<svg width="524" height="503" viewBox="0 0 524 503" fill="none" xmlns="http://www.w3.org/2000/svg">
<path d="M455.132 304.77C467.653 257.251 475.485 224.041 456.499 195.388C424.472 147.058 353.94 170.488 304.422 111.27C280.036 82.1111 286.758 64.0151 261.392 49.8261C216.517 24.7149 155.199 58.8503 149.906 61.7623C117.743 79.4574 96.3678 109.04 90.5746 143.798C86.8084 166.372 81.0105 188.881 70.7062 209.188C52.7756 244.531 38.6219 278.68 67.0278 317.317C92.39 351.816 127.562 387.993 167.049 409.297C193.883 423.776 226.461 434.483 256.184 439.844C407.659 467.167 437.911 370.106 455.132 304.77Z" fill="#6FD7FC" fill-opacity="0.2"/>
<g style="mix-blend-mode:soft-light">
<path d="M301.67 319.154C304.786 319.332 311.735 316.978 313.292 315.619C323.651 306.581 344.15 290.913 345.993 276.519C346.307 274.061 335.829 269.762 334.728 267.243C328.719 262.887 326.364 261.746 322.693 254.811C311.851 234.32 350.549 206.913 315.085 188.082C289.107 174.29 264.006 179.403 275.029 137.23C286.052 95.0578 266.749 10.8252 215.884 32.1512C186.691 44.3907 206.203 85.6657 187.79 109.965C170.293 133.053 177.168 156.047 201.421 176.42C225.674 196.793 208.964 205.823 196.516 228.548C181.563 255.846 225.443 269.404 246.236 273.939C262.98 277.587 303.145 298.152 301.67 319.154Z" fill="url(#paint0_linear_298_3806)"/>
<mask id="mask0_298_3806" style="mask-type:alpha" maskUnits="userSpaceOnUse" x="237" y="90" width="169" height="291">
<path d="M360.686 380.641C363.803 380.82 370.751 378.466 372.308 377.106C382.667 368.068 403.166 352.4 405.009 338.007C405.324 335.549 394.845 331.25 393.745 328.731C387.736 324.374 385.38 323.234 381.709 316.298C370.868 295.807 409.565 268.4 374.101 249.57C348.123 235.778 323.022 240.89 334.045 198.718C345.069 156.545 325.765 72.3127 274.9 93.6388C245.708 105.878 265.22 147.153 246.807 171.452C229.31 194.541 236.185 217.534 260.437 237.908C284.69 258.281 267.98 267.311 255.533 290.036C240.579 317.333 284.46 330.892 305.253 335.427C321.996 339.074 362.162 359.64 360.686 380.641Z" fill="white"/>
</mask>
<g mask="url(#mask0_298_3806)">
<path d="M329.03 297.223L329.427 296.692C247.274 235.795 210.258 132.895 230.405 21.4333L229.75 21.3157C220.202 74.1397 223.686 127.056 239.826 174.342C256.797 224.053 287.643 266.544 329.03 297.223Z" fill="#FCFDFE"/>
<path d="M188.997 239.178C216.754 235.529 260.528 243.487 286.571 256.93L286.878 256.34C260.722 242.845 216.777 234.853 188.906 238.521L188.997 239.178Z" fill="#FCFDFE"/>
<path d="M313.041 285.085L313.57 284.68C304.334 272.584 301.585 256.301 305.402 236.272C308.199 221.59 314.393 205.276 323.816 187.783L323.231 187.47C313.777 205.022 307.558 221.399 304.748 236.149C300.896 256.37 303.686 272.834 313.041 285.085Z" fill="#FCFDFE"/>
<path d="M237.799 167.54L238.341 167.167C222.11 143.475 193.863 132.657 173.02 127.753L172.868 128.399C193.603 133.269 221.688 144.023 237.799 167.54Z" fill="#FCFDFE"/>
<path d="M225.269 103.056L225.929 103.132C229.597 71.0151 253.144 46.5201 266.856 34.778L266.423 34.2753C252.637 46.0809 228.963 70.7151 225.269 103.056Z" fill="#FCFDFE"/>
</g>
</g>
<g style="mix-blend-mode:soft-light">
<path d="M300.29 337.024C303.255 336.041 308.828 331.292 309.776 329.457C316.051 317.239 329.291 295.125 325.662 281.071C325.043 278.671 313.72 278.537 311.757 276.611C304.559 274.777 301.949 274.584 295.963 269.492C278.292 254.45 304.094 214.718 264.153 210.302C234.901 207.059 213.469 221.068 208.08 177.819C202.692 134.569 153.521 63.4249 114.165 101.992C91.58 124.126 125.013 155.285 116.913 184.649C109.219 212.541 124.133 231.379 154.22 241.359C184.307 251.339 172.131 265.899 168.992 291.602C165.221 322.478 211.017 318.9 232.019 315.447C248.929 312.667 293.874 316.967 300.29 337.024Z" fill="#403334"/>
<mask id="mask1_298_3806" style="mask-type:alpha" maskUnits="userSpaceOnUse" x="165" y="152" width="221" height="247">
<path d="M359.306 398.512C362.272 397.528 367.844 392.779 368.793 390.944C375.067 378.726 388.308 356.613 384.678 342.558C384.059 340.158 372.736 340.024 370.774 338.099C363.575 336.265 360.965 336.072 354.979 330.98C337.309 315.938 363.11 276.206 323.17 271.789C293.918 268.546 272.485 282.556 267.097 239.306C261.709 196.057 212.538 124.912 173.181 163.479C150.597 185.614 184.03 216.772 175.929 246.136C168.236 274.029 183.15 292.867 213.237 302.847C243.324 312.827 231.147 327.386 228.009 353.09C224.237 383.966 270.034 380.387 291.035 376.935C307.945 374.155 352.891 378.455 359.306 398.512Z" fill="white"/>
</mask>
<g mask="url(#mask1_298_3806)">
<path d="M317.581 306.562L317.752 305.921C218.842 279.623 146.297 197.665 123.69 86.6726L123.039 86.8077C133.753 139.41 156.61 187.291 189.139 225.275C223.336 265.206 267.75 293.316 317.581 306.562Z" fill="#FCFDFE"/>
<path d="M165.947 304.256C190.383 290.628 234.008 281.888 263.194 284.774L263.259 284.114C233.958 281.218 190.155 289.994 165.626 303.678L165.947 304.256Z" fill="#FCFDFE"/>
<path d="M298.223 301.179L298.566 300.61C285.5 292.772 276.909 278.657 273.029 258.645C270.183 243.97 269.891 226.529 272.16 206.802L271.5 206.726C269.223 226.52 269.517 244.024 272.375 258.77C276.293 278.976 284.99 293.244 298.223 301.179Z" fill="#FCFDFE"/>
<path d="M184.734 219.702L185.106 219.152C161.239 203.123 130.983 203.486 109.802 206.613L109.9 207.268C130.961 204.159 161.043 203.792 184.734 219.702Z" fill="#FCFDFE"/>
</g>
</g>
<path d="M490.259 368.367L119.908 365.124V374.728C119.908 377.335 121.524 379.551 123.711 379.947L228.436 398.859C229.675 399.083 230.938 399.143 232.192 399.036L486.234 377.474C488.502 377.281 490.259 375.057 490.259 372.379V368.367Z" fill="url(#paint1_linear_298_3806)"/>
<path d="M355.86 352.798L123.738 370.366C119.584 370.679 116.207 367.339 116.207 362.903V185.171C116.207 180.734 119.584 177.138 123.738 177.138H355.86C359.282 177.138 362.048 180.389 362.048 184.4V345.068C362.048 349.084 359.285 352.54 355.86 352.798Z" fill="url(#paint2_linear_298_3806)"/>
<path d="M359.556 352.798L127.433 370.366C123.28 370.679 119.903 367.339 119.903 362.903V185.171C119.903 180.734 123.28 177.138 127.433 177.138H359.556C362.978 177.138 365.744 180.389 365.744 184.4V345.068C365.749 349.084 362.983 352.54 359.556 352.798Z" fill="url(#paint3_linear_298_3806)"/>
<path d="M352.33 341.471L136.133 356.733C132.753 356.971 130.006 354.229 130.006 350.607V195C130.006 191.379 132.753 188.431 136.133 188.415L352.33 187.46C355.153 187.447 357.436 190.111 357.436 193.406V335.138C357.436 338.437 355.153 341.272 352.33 341.471Z" fill="#D8DEE8"/>
<path d="M251.697 182C251.697 183.651 250.504 184.993 249.028 184.999C247.552 185.004 246.351 183.665 246.351 182.009C246.351 180.354 247.551 179.012 249.028 179.011C250.505 179.009 251.697 180.347 251.697 182Z" fill="white"/>
<g style="mix-blend-mode:soft-light" opacity="0.48">
<path d="M303.635 304.052C285.746 293.738 271.669 306.806 258.092 293.917C249.859 286.099 253.9 280.268 243.771 268.591C232.551 255.653 225.247 260.001 213.972 248.358C199.714 233.635 206.845 222.18 194.564 211.61C179.666 198.787 163.599 210.656 149.416 198.357C143.3 193.053 139.944 185.342 138.191 177.14H124.314C121.883 177.14 119.908 179.251 119.908 181.855V366.09C119.908 368.694 121.883 370.655 124.314 370.47L360.885 352.484C362.045 352.396 363.075 351.673 363.731 350.618C346.414 349.942 335.775 343.726 328.974 337.295C315.674 324.72 317.982 312.327 303.635 304.052Z" fill="white"/>
</g>
<path d="M368.813 352.002L119.908 370.495L228.436 390.09C229.675 390.314 230.938 390.374 232.192 390.269L490.259 368.363L372.772 352.123C371.46 351.942 370.133 351.902 368.813 352.002Z" fill="url(#paint4_linear_298_3806)"/>
<path style="mix-blend-mode:multiply" opacity="0.3" d="M156.228 370.96L363.448 355.334L427.58 364.128L222.146 380.832L156.228 370.96Z" fill="url(#paint5_linear_298_3806)"/>
<path d="M371.187 113.631L168.553 106.992C161.759 106.769 156.221 112.113 156.221 118.931V315.868C156.221 322.686 161.753 327.977 168.553 327.688L371.187 319.059C377.049 318.809 381.781 313.505 381.781 307.212V125.374C381.781 119.08 377.047 113.823 371.187 113.631Z" fill="url(#paint6_linear_298_3806)"/>
<g style="mix-blend-mode:soft-light" opacity="0.74">
<path d="M168.553 323.762C163.932 323.953 160.174 320.351 160.174 315.717V119.043C160.165 117.954 160.377 116.875 160.798 115.869C161.219 114.864 161.84 113.955 162.623 113.195C163.406 112.436 164.335 111.842 165.354 111.451C166.373 111.059 167.461 110.877 168.553 110.916L371.187 117.284C375.18 117.41 378.407 120.989 378.407 125.279V307.34C378.407 311.631 375.18 315.242 371.187 315.406L168.553 323.762Z" fill="white"/>
</g>
<path d="M371.187 113.631L168.553 106.992C161.759 106.769 156.221 112.113 156.221 118.931V127.785L381.781 133.55V125.374C381.781 119.08 377.049 113.823 371.187 113.631Z" fill="url(#paint7_linear_298_3806)"/>
<path d="M178.144 118.37C178.149 118.891 178.048 119.407 177.847 119.888C177.647 120.369 177.351 120.804 176.978 121.168C176.605 121.532 176.162 121.818 175.675 122.007C175.189 122.196 174.669 122.285 174.147 122.269C173.073 122.23 172.055 121.778 171.308 121.007C170.561 120.236 170.142 119.206 170.14 118.134C170.135 117.612 170.236 117.095 170.437 116.613C170.638 116.132 170.935 115.696 171.309 115.331C171.684 114.967 172.128 114.682 172.616 114.494C173.104 114.305 173.625 114.217 174.147 114.235C175.22 114.277 176.235 114.73 176.98 115.501C177.725 116.272 178.142 117.3 178.144 118.37Z" fill="white"/>
<path d="M192.094 118.775C192.101 119.292 192.002 119.804 191.804 120.282C191.606 120.76 191.314 121.194 190.944 121.556C190.575 121.918 190.135 122.203 189.653 122.392C189.17 122.581 188.654 122.67 188.136 122.656C187.07 122.614 186.061 122.163 185.321 121.397C184.581 120.631 184.167 119.609 184.167 118.545C184.16 118.027 184.26 117.513 184.458 117.034C184.656 116.556 184.95 116.122 185.32 115.759C185.691 115.397 186.132 115.113 186.616 114.924C187.1 114.736 187.617 114.647 188.136 114.664C189.2 114.708 190.206 115.16 190.944 115.926C191.681 116.692 192.094 117.713 192.094 118.775Z" fill="white"/>
<path d="M205.912 119.174C205.919 119.688 205.822 120.197 205.627 120.672C205.432 121.147 205.143 121.578 204.777 121.938C204.411 122.299 203.975 122.583 203.497 122.772C203.018 122.96 202.506 123.051 201.992 123.038C199.823 122.978 198.061 121.146 198.061 118.947C198.054 118.433 198.151 117.923 198.347 117.447C198.542 116.971 198.833 116.54 199.2 116.179C199.567 115.818 200.003 115.535 200.483 115.347C200.963 115.159 201.476 115.069 201.992 115.084C204.158 115.15 205.912 116.981 205.912 119.174Z" fill="white"/>
<g style="mix-blend-mode:soft-light" opacity="0.5">
<path d="M292.422 189.339C268.754 154.999 227.789 165.925 201.875 127.987C197.201 121.145 194.03 114.181 191.855 107.761L168.555 106.997C161.76 106.774 156.222 112.119 156.222 118.937V315.869C156.222 322.686 161.754 327.977 168.555 327.688L363.768 319.375C359.296 312.944 320.346 289.122 310.283 252.546C301.08 219.096 306.703 210.059 292.422 189.339Z" fill="white"/>
</g>
<path d="M370.769 186.168L171.341 185.93V179.431L370.769 180.237V186.168Z" fill="white"/>
<path d="M370.769 172.339L171.341 170.648V153.987L370.769 157.133V172.339Z" fill="white"/>
<path d="M202.202 221.308L175.749 221.463V196.263L202.202 196.295V221.308ZM178.835 218.01L198.233 217.916V199.707L178.835 199.699V218.01Z" fill="white"/>
<path d="M366.401 203.018L213.223 203.107V196.307L366.401 196.468V203.018Z" fill="white"/>
<path d="M366.401 213.572L213.223 214.063V207.641L366.401 207.386V213.572Z" fill="white"/>
<path d="M202.202 258.447L175.749 258.881V233.677L202.202 233.431V258.447ZM178.835 255.395L198.233 255.095V236.885L178.835 237.084V255.395Z" fill="white"/>
<path d="M366.401 238.683L213.223 240.131V233.33L366.401 232.133V238.683Z" fill="white"/>
<path d="M366.401 249.238L213.223 251.086V244.665L366.401 243.051V249.238Z" fill="white"/>
<path d="M202.202 295.587L175.749 296.298V271.099L202.202 270.575V295.587ZM178.835 293.155L198.233 292.645V274.063L178.835 274.468V293.155Z" fill="white"/>
<path d="M366.401 274.349L213.223 277.154V270.354L366.401 267.799V274.349Z" fill="white"/>
<path d="M366.401 284.903L213.223 288.111V281.688L366.401 278.717V284.903Z" fill="white"/>
<path d="M184.943 220.141C184.196 220.149 183.474 219.869 182.928 219.36L174.977 211.863C174.712 211.618 174.5 211.321 174.356 210.99C174.211 210.66 174.136 210.303 174.136 209.943C174.136 209.583 174.211 209.226 174.356 208.896C174.5 208.565 174.712 208.268 174.977 208.023C175.526 207.511 176.249 207.226 177 207.224C177.752 207.222 178.476 207.504 179.028 208.014L184.542 213.23L197.274 195.758C197.719 195.166 198.373 194.767 199.104 194.641C199.835 194.515 200.586 194.673 201.204 195.083C201.506 195.275 201.765 195.528 201.965 195.824C202.165 196.12 202.303 196.454 202.369 196.805C202.435 197.156 202.429 197.516 202.351 197.865C202.272 198.213 202.123 198.542 201.913 198.831L187.277 218.967C187.032 219.298 186.72 219.573 186.36 219.773C186 219.974 185.602 220.096 185.191 220.13C185.114 220.136 185.028 220.14 184.943 220.141Z" fill="url(#paint8_linear_298_3806)"/>
<path d="M185.637 257.672C184.889 257.679 184.167 257.399 183.62 256.889L175.675 249.393C175.41 249.148 175.199 248.851 175.054 248.52C174.91 248.19 174.835 247.834 174.835 247.473C174.835 247.113 174.91 246.756 175.054 246.426C175.199 246.096 175.41 245.799 175.675 245.554C176.224 245.042 176.947 244.756 177.698 244.754C178.45 244.752 179.174 245.035 179.725 245.544L185.241 250.761L197.972 233.289C198.416 232.697 199.071 232.297 199.802 232.171C200.533 232.046 201.284 232.204 201.902 232.613C202.204 232.806 202.462 233.058 202.663 233.354C202.863 233.65 203.001 233.984 203.067 234.335C203.133 234.686 203.127 235.047 203.049 235.395C202.97 235.744 202.821 236.073 202.611 236.362L187.975 256.49C187.73 256.821 187.418 257.096 187.058 257.297C186.699 257.497 186.301 257.619 185.89 257.654C185.806 257.666 185.721 257.67 185.637 257.672Z" fill="url(#paint9_linear_298_3806)"/>
<path d="M415.254 118.393C415.254 143.309 395.716 162.909 370.745 162.144C344.757 161.348 322.9 138.967 322.9 112.184C322.9 85.4009 344.757 65.9587 370.745 68.6574C395.716 71.2507 415.254 93.4768 415.254 118.393Z" fill="url(#paint10_linear_298_3806)"/>
<path d="M422.002 116.242C422.002 141.157 402.464 160.758 377.493 159.993C351.504 159.197 329.647 136.817 329.647 110.034C329.647 83.251 351.504 63.8087 377.493 66.5115C402.464 69.1021 422.002 91.3295 422.002 116.242Z" fill="url(#paint11_linear_298_3806)"/>
<path d="M420.042 116.107C420.042 139.926 401.349 158.632 377.489 157.864C352.712 157.066 331.909 135.702 331.909 110.188C331.909 84.6738 352.712 66.1059 377.493 68.6383C401.349 71.0749 420.042 92.2942 420.042 116.107Z" fill="url(#paint12_linear_298_3806)"/>
<path d="M418.642 116.019C418.642 139.052 400.553 157.117 377.497 156.345C353.576 155.544 333.517 134.915 333.517 110.296C333.517 85.6765 353.574 67.7438 377.497 70.16C400.549 72.4871 418.642 92.9861 418.642 116.019Z" fill="url(#paint13_linear_298_3806)"/>
<path d="M377.257 77.9981C377.864 78.0693 378.423 78.3581 378.832 78.8107C379.24 79.2633 379.47 79.8487 379.477 80.4576V84.6982C381.957 84.976 384.418 85.402 386.847 85.9739C388.662 86.3982 390.464 86.9041 392.253 87.4915C392.78 87.6659 393.233 88.0112 393.54 88.4725C393.847 88.9337 393.99 89.4842 393.947 90.0361L393.425 95.3538C393.401 95.6771 393.298 95.9898 393.126 96.2646C392.953 96.5395 392.716 96.7683 392.435 96.9312C392.154 97.0941 391.837 97.1862 391.513 97.1996C391.188 97.2129 390.864 97.1471 390.571 97.0079C389.391 96.4823 388.18 96.0309 386.944 95.6565C384.716 94.9921 382.423 94.565 380.105 94.3822L379.477 94.3308V106.476C385.878 108.261 390.578 110.665 393.616 113.685C396.654 116.706 398.145 120.442 398.145 124.939C398.145 129.804 396.474 133.704 393.131 136.638C389.768 139.592 385.045 141.251 378.961 141.613V146.294C378.966 146.584 378.911 146.871 378.8 147.139C378.69 147.407 378.526 147.65 378.318 147.852C378.11 148.055 377.862 148.213 377.591 148.317C377.32 148.42 377.03 148.468 376.74 148.456H376.7C376.098 148.423 375.532 148.161 375.117 147.725C374.702 147.288 374.47 146.71 374.47 146.109V141.492L373.482 141.448C370.729 141.331 367.987 141.039 365.272 140.575C363.359 140.244 361.466 139.81 359.6 139.274C359.057 139.123 358.584 138.79 358.259 138.33C357.935 137.871 357.78 137.314 357.821 136.753L358.435 129.918C358.57 128.44 360.061 127.58 361.465 128.134C363.095 128.776 364.761 129.321 366.455 129.768C369.066 130.456 371.736 130.9 374.43 131.096L374.47 117.583C368.326 116.066 363.738 113.821 360.705 110.847C357.668 107.86 356.148 104.04 356.145 99.3863C356.145 94.5745 357.792 90.8636 361.088 88.2537C364.362 85.6604 369.018 84.3698 375.024 84.3725V80.0414C375.016 79.7549 375.07 79.4701 375.182 79.2063C375.294 78.9424 375.462 78.7056 375.673 78.5119C375.885 78.3182 376.136 78.172 376.409 78.0834C376.683 77.9948 376.972 77.9657 377.257 77.9981ZM375.029 94.2146C373.132 94.3524 371.652 94.8727 370.59 95.7754C369.527 96.6781 368.996 97.8944 368.997 99.4241C368.997 100.866 369.488 102.073 370.47 103.047C371.452 104.021 372.972 104.794 375.029 105.366V94.2146ZM378.966 118.674V131.064C381.03 131.064 382.614 130.573 383.719 129.591C384.824 128.609 385.375 127.219 385.372 125.421C385.372 123.783 384.86 122.424 383.835 121.343C382.811 120.263 381.188 119.374 378.966 118.674Z" fill="url(#paint14_linear_298_3806)"/>
<path style="mix-blend-mode:multiply" opacity="0.3" d="M370.046 121.658C371.436 107.968 384.056 102.172 382.408 89.578C381.395 81.8157 375.497 75.2737 368.912 70.1655C348.95 72.2534 333.512 88.7375 333.512 110.301C333.512 134.921 353.569 155.55 377.493 156.351C379.764 156.427 382.037 156.316 384.289 156.02C374.789 146.589 368.852 133.422 370.046 121.658Z" fill="url(#paint15_linear_298_3806)"/>
<path d="M413.113 87.5833V87.7766C411.407 85.4536 408.35 82.2238 406.519 80.3548C406.485 80.2724 406.427 80.19 406.393 80.1075C405.256 77.3973 403.849 74.808 402.192 72.379C400.27 69.5701 398.018 67.0005 395.485 64.7248C395.169 64.414 394.807 64.1397 394.463 63.8451C394.289 63.7018 394.115 63.5532 393.94 63.4099L393.682 63.191C393.593 63.118 393.499 63.0559 393.411 62.9816C393.05 62.7113 392.686 62.4342 392.319 62.1505L392.048 61.941L391.761 61.7464C391.569 61.6113 391.38 61.4842 391.19 61.3558C390.439 60.8153 389.629 60.3437 388.839 59.8477C388.432 59.6072 388.015 59.3869 387.605 59.1585C387.404 59.0436 387.199 58.9274 386.989 58.8153L386.352 58.499C382.925 56.7804 379.266 55.5647 375.49 54.8895L374.066 54.6557C373.59 54.5909 373.107 54.549 372.635 54.4936L371.918 54.4125L371.199 54.3733L370.48 54.33C370.241 54.3179 370.004 54.2936 369.763 54.299C369.284 54.299 368.807 54.2909 368.326 54.2895C368.21 54.2895 368.082 54.2814 367.974 54.2895L367.654 54.3057L367.015 54.3395L366.382 54.3719C366.325 54.3719 366.287 54.3719 366.214 54.3719L365.562 54.4206L364.692 54.4814L364.041 54.5301H363.931H363.892C363.892 54.5301 363.666 54.5301 364.045 54.5382L362.639 54.7544C362.407 54.7909 362.174 54.8138 361.942 54.8638L361.252 54.999L360.562 55.1341L360.218 55.2017C360.103 55.2233 359.992 55.2571 359.879 55.2841C359.428 55.399 358.977 55.5111 358.524 55.6274C358.298 55.676 358.078 55.753 357.859 55.8193L357.2 56.026L356.543 56.2233L355.899 56.4585C355.47 56.6193 355.04 56.7598 354.624 56.9301C354.208 57.1004 353.792 57.2801 353.38 57.4585C350.218 58.8558 347.277 60.7035 344.648 62.9437L344.175 63.337L343.727 63.7572C343.43 64.0275 343.122 64.2978 342.839 64.5843C342.828 64.5937 342.817 64.6086 342.805 64.6181C342.255 65.187 341.697 65.7221 341.202 66.31C341.066 66.4532 340.94 66.5992 340.814 66.7451L340.619 66.96L340.439 67.1884C340.196 67.4843 339.958 67.783 339.719 68.0776C339.661 68.1506 339.597 68.2208 339.539 68.2965L339.375 68.5249C339.263 68.6776 339.153 68.8317 339.043 68.9803C338.829 69.2857 338.594 69.5682 338.402 69.8844C336.882 72.122 335.635 74.5328 334.689 77.0656C333.926 79.1398 333.375 81.2854 333.044 83.4698C333.012 83.7103 332.98 83.9454 332.949 84.1792C332.918 84.413 332.876 84.636 332.866 84.8549C332.829 85.3076 332.793 85.7374 332.756 86.1482C332.72 86.559 332.732 86.9685 332.714 87.3455C332.707 87.5347 332.695 87.7198 332.693 87.8969C332.69 88.0739 332.705 88.2563 332.707 88.4266C332.707 88.7699 332.712 89.0924 332.722 89.3942C332.723 89.4571 332.729 89.5199 332.739 89.582C332.747 89.6374 332.754 89.6928 332.76 89.7469C332.771 89.8537 332.785 89.8388 332.796 89.9361C332.806 90.0334 332.812 90.0577 332.82 90.0577H348.87L339.112 100.84L316.441 125.571L284.02 90.0645H301.069C301.112 89.8941 301.139 89.7198 301.147 89.5442C301.213 89.0509 301.283 88.5699 301.362 87.9834C301.405 87.6915 301.444 87.4198 301.497 87.1063C301.521 86.9536 301.545 86.8077 301.569 86.6468C301.593 86.486 301.612 86.3185 301.643 86.1793C301.763 85.5914 301.887 84.9711 302.019 84.3103C302.089 83.9819 302.154 83.6468 302.232 83.3008C302.309 82.9549 302.402 82.6062 302.495 82.2468C302.68 81.5292 302.86 80.7751 303.084 79.9994C303.308 79.2237 303.572 78.4291 303.828 77.598C303.953 77.1805 304.115 76.7696 304.267 76.344C304.419 75.9183 304.579 75.4953 304.74 75.0574C306.213 71.2043 308.071 67.509 310.287 64.0275C312.873 59.9873 315.93 56.2675 319.395 52.9462C319.836 52.4962 320.324 52.0854 320.795 51.6557L321.509 51.0165L321.873 50.6948L322.243 50.3881C322.743 49.9827 323.247 49.5773 323.75 49.161L324.13 48.8543L324.525 48.5624L325.319 47.9772C326.361 47.1826 327.479 46.465 328.592 45.7258C329.151 45.3664 329.733 45.0299 330.31 44.6826C330.595 44.5123 330.886 44.342 331.176 44.1677L332.068 43.6866C336.909 41.0494 342.104 39.118 347.494 37.9514L349.542 37.546C350.219 37.4203 350.92 37.3324 351.607 37.227L352.641 37.0824L353.682 36.9797L354.72 36.8797C355.067 36.8486 355.411 36.8095 355.76 36.7973C356.452 36.7662 357.147 36.6824 357.841 36.6513C358.012 36.6513 358.188 36.5784 358.36 36.5784H358.878L359.915 36.6365L360.951 36.6703C361.297 36.6703 361.642 36.7176 361.987 36.7338L364.047 36.8581C364.515 36.8581 364.208 36.8703 364.327 36.873H364.381L364.491 36.8851L364.705 36.9149L365.139 36.9676L366.002 37.0757L366.436 37.1284L366.651 37.1554L366.922 37.1919L368.015 37.3527L369.107 37.5176L369.649 37.6027C369.827 37.6311 369.985 37.6703 370.156 37.7041C370.821 37.846 371.487 37.9892 372.153 38.127C372.484 38.1933 372.811 38.2879 373.137 38.373L374.12 38.6338L375.096 38.8933L376.059 39.1973C376.697 39.4041 377.338 39.6027 377.965 39.8217C378.591 40.0406 379.214 40.2892 379.835 40.523C384.609 42.4104 389.087 44.9732 393.129 48.1326C393.373 48.3205 393.614 48.5097 393.856 48.6975C394.097 48.8853 394.323 49.0881 394.555 49.2881C395.018 49.6813 395.485 50.061 395.93 50.4638C396.81 51.2881 397.692 52.0787 398.49 52.9341C398.695 53.1435 398.897 53.3543 399.099 53.5611L399.4 53.8733L399.687 54.1963C400.069 54.6287 400.447 55.0598 400.821 55.4841L401.101 55.8057L401.372 56.1368C401.545 56.3571 401.723 56.576 401.896 56.7949C402.243 57.2355 402.606 57.6531 402.918 58.1085C404.606 60.376 406.112 62.7732 407.421 65.2775C408.026 66.4316 408.564 67.5749 409.039 68.7168C410.366 71.8434 411.373 75.0949 412.048 78.4224C412.114 78.7913 412.183 79.1548 412.251 79.5116C412.319 79.8683 412.387 80.2143 412.431 80.5616C412.524 81.2549 412.616 81.913 412.703 82.5576C412.789 83.2022 412.815 83.8171 412.869 84.4036C412.891 84.6941 412.919 84.9792 412.937 85.2617C412.955 85.5441 413.005 85.8103 413.017 86.0725C413.028 86.605 413.113 87.1131 413.113 87.5833Z" fill="url(#paint16_linear_298_3806)"/>
<path style="mix-blend-mode:multiply" opacity="0.4" d="M413.113 87.5834V87.7766C411.407 85.4536 408.35 82.2238 406.519 80.3548C406.485 80.2724 406.427 80.19 406.393 80.1075C405.256 77.3973 403.849 74.808 402.192 72.379C400.27 69.5701 398.018 67.0005 395.485 64.7248C395.169 64.414 394.807 64.1397 394.463 63.8451C394.289 63.7018 394.115 63.5532 393.94 63.4099L393.682 63.191C393.593 63.118 393.499 63.0559 393.411 62.9816C393.05 62.7113 392.686 62.4342 392.319 62.1505L392.048 61.941L391.761 61.7464C391.57 61.6113 391.38 61.4842 391.19 61.3558C390.439 60.8153 389.629 60.3437 388.839 59.8477C388.432 59.6072 388.015 59.3869 387.606 59.1585C387.404 59.0436 387.199 58.9274 386.989 58.8153L386.352 58.499C382.925 56.7804 379.266 55.5647 375.49 54.8895L374.066 54.6557C373.59 54.5909 373.108 54.549 372.635 54.4936L371.918 54.4125L371.199 54.3733L370.48 54.33C370.241 54.3179 370.004 54.2936 369.763 54.299C369.285 54.299 368.808 54.2909 368.326 54.2895C368.21 54.2895 368.082 54.2814 367.974 54.2895L367.654 54.3057L367.015 54.3395L366.382 54.3719C366.325 54.3719 366.287 54.3719 366.214 54.3719L365.562 54.4206L364.692 54.4814L364.041 54.5301H363.931H363.892C363.892 54.5301 363.666 54.5301 364.045 54.5382L362.639 54.7544C362.407 54.7909 362.174 54.8138 361.942 54.8638L361.252 54.999L360.562 55.1341L360.218 55.2017C360.103 55.2233 359.992 55.2571 359.879 55.2841C359.428 55.399 358.977 55.5111 358.524 55.6274C358.298 55.676 358.078 55.753 357.859 55.8193L357.2 56.026L356.543 56.2233L355.899 56.4585C355.47 56.6193 355.04 56.7598 354.624 56.9301C354.208 57.1004 353.792 57.2801 353.38 57.4585C350.218 58.8558 347.277 60.7035 344.648 62.9437L344.175 63.337L343.727 63.7572C343.43 64.0275 343.122 64.2978 342.839 64.5843C342.828 64.5937 342.817 64.6086 342.805 64.6181C350.009 55.7233 361.681 49.9435 374.852 49.9435C388.346 49.9435 400.265 56.0098 407.419 65.2748C408.023 66.4289 408.561 67.5722 409.037 68.7141C410.363 71.8407 411.371 75.0922 412.045 78.4197C412.112 78.7886 412.181 79.1521 412.249 79.5089C412.316 79.8656 412.384 80.2116 412.429 80.5589C412.521 81.2522 412.613 81.9103 412.7 82.5549C412.787 83.1995 412.812 83.8144 412.867 84.4009C412.888 84.6914 412.917 84.9765 412.934 85.259C412.952 85.5414 413.002 85.8076 413.014 86.0698C413.028 86.6049 413.113 87.1131 413.113 87.5834Z" fill="url(#paint17_linear_298_3806)"/>
<path d="M359.896 185.388C359.896 185.388 360.972 181.359 360.209 180.331C359.446 179.303 354.778 175.184 355.228 176.527C355.491 177.322 355.869 178.076 356.349 178.763C356.349 178.763 353.836 179.927 355.452 181.673C357.067 183.419 357.607 183.822 357.696 185.388C357.785 186.954 358.818 187.49 359.896 185.388Z" fill="url(#paint18_linear_298_3806)"/>
<path d="M404.728 359.238C404.728 359.238 405.299 362.722 405.227 363.968C405.155 365.214 391.358 365.843 391.218 364.914C391.079 363.986 393.499 362.509 395.203 361.988C396.906 361.468 401.891 360.076 401.891 360.076L404.728 359.238Z" fill="url(#paint19_linear_298_3806)"/>
<path d="M401.38 355.767L401.82 360.098C401.82 360.098 403.422 361.154 404.834 360.339L405.542 355.624L401.38 355.767Z" fill="url(#paint20_linear_298_3806)"/>
<path d="M429.349 364.886C429.349 364.886 429.919 368.368 429.848 369.616C429.776 370.863 415.978 371.489 415.839 370.562C415.699 369.635 418.12 368.156 419.823 367.635C421.527 367.113 426.51 365.723 426.51 365.723L429.349 364.886Z" fill="url(#paint21_linear_298_3806)"/>
<path d="M425.995 361.413L426.435 365.744C426.435 365.744 428.037 366.801 429.449 365.984L430.155 361.271L425.995 361.413Z" fill="url(#paint22_linear_298_3806)"/>
<path d="M403.883 242.692C402.289 245.916 400.695 249.14 399.099 252.363C397.817 270.761 397.18 290.767 397.589 312.162C397.893 328.08 398.747 343.158 399.972 357.311L406.458 357.015C409.586 350.827 413.276 341.453 413.616 329.881C413.97 317.81 410.3 316.208 410.533 304.651C410.834 289.672 417.133 285.676 420.49 267.658C421.773 260.766 422.636 251.767 421.61 240.848L403.883 242.692Z" fill="url(#paint23_linear_298_3806)"/>
<path style="mix-blend-mode:multiply" opacity="0.3" d="M421.61 240.848L412.036 241.844C406.292 251.812 404.688 262.188 405.696 266.776C407.122 273.269 410.895 275.349 410.687 281.868C410.483 288.318 406.672 289.991 404.254 297.594C402.581 302.857 403.022 307.697 403.974 317.162C405.891 336.226 410.508 342.057 406.641 348.307C405.542 350.083 403.563 352.199 399.683 353.814C399.778 354.983 399.871 356.156 399.972 357.311C402.135 357.214 404.297 357.115 406.458 357.015C409.586 350.827 413.276 341.453 413.616 329.881C413.97 317.81 410.3 316.208 410.533 304.651C410.834 289.672 417.133 285.676 420.49 267.658C421.773 260.768 422.636 251.767 421.61 240.848Z" fill="url(#paint24_linear_298_3806)"/>
<path d="M412.463 248.496C415.456 264.773 418.1 282.194 420.163 300.668C422.654 322.977 423.983 344.007 424.506 363.532L431.625 363.733C440.976 345.285 441.548 332.778 440.2 324.636C439.681 321.499 438.269 315.346 437.947 306.15C437.722 299.74 438.133 294.862 438.645 288.998C439.767 276.141 441.131 273.334 441.327 263.5C441.51 254.27 441.548 249.6 438.907 246.878C431.945 239.693 413.837 247.866 412.463 248.496Z" fill="url(#paint25_linear_298_3806)"/>
<path d="M361.137 184.766L356.402 184.438C352.679 199.438 355.35 213.994 363.752 219.345C376.882 227.708 401.281 211.953 406.569 194.799C408.89 187.269 408.362 176.403 403.723 174.292C402.435 173.705 400.438 173.616 396.109 176.038C383.182 183.274 382.842 196.953 376.27 198.112C373.349 198.627 368.635 196.769 361.137 184.766Z" fill="url(#paint26_linear_298_3806)"/>
<path d="M397.283 255.665C395.009 251.903 397.866 248.274 398.515 241.146C399.252 233.067 396.131 231.723 393.045 218.334C390.992 209.432 389.022 200.884 391.374 190.879C392.501 186.083 394.413 177.95 401.163 174.022C404.646 171.994 409.403 172.197 418.773 172.685C430.36 173.289 436.153 173.592 440.473 175.861C441.106 176.193 454.25 183.322 455.156 194.944C456.076 206.772 443.158 208.361 441.436 224.133C440.662 231.214 442.041 242.106 442.934 249.169C443.794 255.951 444.385 257.682 443.042 259.741C439.807 264.691 429.903 263.28 410.094 260.46C402.324 259.353 398.98 258.472 397.283 255.665Z" fill="url(#paint27_linear_298_3806)"/>
<path style="mix-blend-mode:multiply" opacity="0.3" d="M427.421 221.598C428.259 224.672 431.271 226.968 433.369 234.445C433.822 236.06 437.046 247.554 432.864 250.392C430.447 252.025 428.278 248.929 422.415 248.525C412.251 247.824 407.414 256.339 400.777 254.015C399.625 253.609 398.104 252.75 396.586 250.771C396.284 252.552 396.337 254.098 397.283 255.666C398.98 258.473 402.324 259.355 410.094 260.462C429.903 263.282 439.807 264.693 443.041 259.743C444.384 257.69 443.794 255.959 442.934 249.171C442.041 242.108 440.662 231.217 441.435 224.136C443.158 208.363 456.072 206.773 455.156 194.946C454.909 191.784 453.742 188.969 452.182 186.518C435.795 193.127 424.79 211.937 427.421 221.598Z" fill="url(#paint28_linear_298_3806)"/>
<path d="M448.12 244.865L444.841 246.952C444.253 246.277 442.89 244.906 440.762 244.439C438.365 243.914 435.613 244.667 435.547 245.431C435.497 246.042 437.174 246.658 437.431 246.754C439.524 247.524 441.075 246.889 441.921 247.723C442.221 248.02 442.599 248.571 443.45 249.082C443.638 249.196 443.833 249.296 444.035 249.384C445.432 249.924 447.83 247.501 448.033 247.289L448.12 244.865Z" fill="url(#paint29_linear_298_3806)"/>
<path d="M438.429 201.984C436.057 196.321 434.413 187.647 438.158 174.768C462.841 184.466 475.426 207.46 470.516 225.686C466.464 240.712 451.722 248.03 448.426 249.57L446.13 244.359C449.941 240.128 454.236 233.871 453.629 226.731C452.801 216.832 443.236 213.452 438.429 201.984Z" fill="url(#paint30_linear_298_3806)"/>
<path d="M419.378 161.032C419.378 161.032 419.573 165.339 420.914 168.563C422.125 171.477 428.496 173.309 429.788 173.959C431.079 174.609 427.368 176.511 423.642 176.885C419.915 177.259 409.276 176.415 407.353 175.007C405.43 173.598 408.896 173.704 411.555 172.73C414.214 171.755 415.756 166.569 415.283 164.216C414.81 161.863 419.378 161.032 419.378 161.032Z" fill="url(#paint31_linear_298_3806)"/>
<path d="M413.485 159.471C411.551 157.579 411.281 157.356 411.071 156.701C410.225 154.073 412.27 150.474 414.951 149.587C415.086 149.541 416.889 148.967 417.576 149.745C418.159 150.406 417.305 151.318 417.711 152.591C418.094 153.783 419.129 153.873 421.049 155.429C422.632 156.716 423.615 157.517 423.842 158.643C424.31 160.963 421.493 164.327 418.998 164.236C418.1 164.216 417.854 163.753 413.485 159.471Z" fill="url(#paint32_linear_298_3806)"/>
<path d="M418.751 164.601C418.751 164.601 416.697 166.921 413.565 166.154C410.761 165.467 411.476 159.051 413.528 158.026C414.206 157.684 415.457 157.713 416.392 158.162C416.945 158.432 417.098 158.702 418.008 159.12C418.849 159.503 419.116 159.451 419.342 159.721C419.624 160.059 419.748 160.786 418.859 162.543C419.499 162.091 420.185 162.002 420.606 162.295C420.749 162.408 420.858 162.558 420.919 162.729C421.186 163.524 420.358 164.332 418.751 164.601Z" fill="url(#paint33_linear_298_3806)"/>
<path d="M342.153 179.424C342.153 197.09 328.302 210.986 310.597 210.444C292.167 209.879 276.677 194.011 276.677 175.023C276.677 156.035 292.172 142.249 310.597 144.163C328.302 146.001 342.153 161.759 342.153 179.424Z" fill="url(#paint34_linear_298_3806)"/>
<path d="M346.937 177.901C346.937 195.566 333.086 209.463 315.381 208.919C296.95 208.356 281.46 192.488 281.46 173.5C281.46 154.512 296.956 140.726 315.381 142.64C333.086 144.478 346.937 160.236 346.937 177.901Z" fill="url(#paint35_linear_298_3806)"/>
<path d="M345.548 177.808C345.548 194.7 332.294 207.956 315.381 207.41C297.812 206.844 283.061 191.7 283.061 173.607C283.061 155.513 297.812 142.355 315.381 144.147C332.294 145.878 345.548 160.921 345.548 177.808Z" fill="url(#paint36_linear_298_3806)"/>
<path d="M344.553 177.741C344.553 194.071 331.728 206.879 315.381 206.332C298.422 205.764 284.201 191.138 284.201 173.684C284.201 156.229 298.422 143.516 315.376 145.228C331.728 146.878 344.553 161.412 344.553 177.741Z" fill="url(#paint37_linear_298_3806)"/>
<path d="M315.215 150.783C315.645 150.833 316.041 151.038 316.331 151.359C316.621 151.681 316.783 152.096 316.788 152.528V155.534C318.546 155.731 320.291 156.033 322.014 156.437C323.3 156.739 324.578 157.099 325.846 157.518C326.22 157.642 326.541 157.887 326.758 158.214C326.976 158.541 327.078 158.931 327.047 159.322L326.677 163.093C326.66 163.322 326.587 163.544 326.465 163.739C326.343 163.934 326.175 164.096 325.976 164.211C325.776 164.327 325.552 164.392 325.321 164.402C325.091 164.411 324.862 164.364 324.654 164.266C323.816 163.894 322.956 163.574 322.079 163.31C320.499 162.838 318.873 162.535 317.228 162.406L316.784 162.37V170.972C321.321 172.234 324.664 173.937 326.812 176.083C328.961 178.229 330.031 180.887 330.023 184.056C330.023 187.506 328.839 190.271 326.472 192.351C324.088 194.446 320.748 195.623 316.426 195.878V199.197C316.43 199.403 316.391 199.607 316.313 199.797C316.234 199.987 316.118 200.159 315.97 200.302C315.823 200.446 315.647 200.558 315.455 200.631C315.263 200.705 315.057 200.738 314.851 200.73H314.823C314.396 200.707 313.994 200.521 313.701 200.212C313.407 199.902 313.243 199.492 313.243 199.066V195.793L312.541 195.761C310.59 195.678 308.646 195.471 306.721 195.142C305.365 194.908 304.022 194.6 302.699 194.22C302.315 194.113 301.979 193.876 301.75 193.551C301.52 193.225 301.41 192.831 301.437 192.434L301.874 187.586C301.967 186.539 303.023 185.93 304.022 186.323C305.177 186.777 306.358 187.164 307.559 187.481C309.411 187.97 311.304 188.286 313.214 188.427L313.243 178.848C308.887 177.767 305.625 176.182 303.485 174.074C301.345 171.966 300.253 169.244 300.253 165.947C300.253 162.536 301.421 159.905 303.758 158.055C306.08 156.215 309.373 155.298 313.637 155.303V152.23C313.632 152.028 313.67 151.827 313.749 151.64C313.828 151.454 313.947 151.286 314.096 151.149C314.245 151.012 314.423 150.909 314.616 150.845C314.808 150.782 315.013 150.761 315.215 150.783ZM313.634 162.276C312.289 162.374 311.24 162.743 310.488 163.383C309.735 164.024 309.358 164.885 309.357 165.967C309.345 166.444 309.432 166.918 309.612 167.359C309.791 167.801 310.06 168.201 310.402 168.535C311.098 169.221 312.175 169.769 313.634 170.179V162.276ZM316.426 179.62V188.404C317.89 188.404 319.013 188.056 319.795 187.359C320.578 186.663 320.968 185.677 320.967 184.402C320.967 183.241 320.606 182.278 319.883 181.512C319.16 180.746 318.008 180.116 316.426 179.621V179.62Z" fill="url(#paint38_linear_298_3806)"/>
<path style="mix-blend-mode:multiply" opacity="0.3" d="M310.103 181.74C311.088 172.034 320.035 167.924 318.867 158.995C318.147 153.491 313.964 148.86 309.298 145.233C295.145 146.72 284.201 158.399 284.201 173.684C284.201 191.138 298.422 205.764 315.381 206.331C316.991 206.385 318.603 206.307 320.2 206.098C313.465 199.414 309.256 190.08 310.103 181.74Z" fill="url(#paint39_linear_298_3806)"/>
<defs>
<linearGradient id="paint0_linear_298_3806" x1="234.923" y1="36.5608" x2="322.558" y2="598.387" gradientUnits="userSpaceOnUse">
<stop stop-color="#DA00CB"/>
<stop offset="1" stop-color="#9571F6"/>
</linearGradient>
<linearGradient id="paint1_linear_298_3806" x1="276.335" y1="382.591" x2="250.339" y2="393.541" gradientUnits="userSpaceOnUse">
<stop stop-color="#40447E"/>
<stop offset="1" stop-color="#3C3B6B"/>
</linearGradient>
<linearGradient id="paint2_linear_298_3806" x1="234.001" y1="267.25" x2="207.048" y2="278.604" gradientUnits="userSpaceOnUse">
<stop stop-color="#40447E"/>
<stop offset="1" stop-color="#3C3B6B"/>
</linearGradient>
<linearGradient id="paint3_linear_298_3806" x1="119.908" y1="273.764" x2="365.749" y2="273.764" gradientUnits="userSpaceOnUse">
<stop stop-color="#40447E"/>
<stop offset="1" stop-color="#3C3B6B"/>
</linearGradient>
<linearGradient id="paint4_linear_298_3806" x1="119.908" y1="371.137" x2="490.259" y2="371.137" gradientUnits="userSpaceOnUse">
<stop stop-color="#40447E"/>
<stop offset="1" stop-color="#3C3B6B"/>
</linearGradient>
<linearGradient id="paint5_linear_298_3806" x1="156.228" y1="368.083" x2="427.58" y2="368.083" gradientUnits="userSpaceOnUse">
<stop stop-color="#40447E"/>
<stop offset="1" stop-color="#3C3B6B"/>
</linearGradient>
<linearGradient id="paint6_linear_298_3806" x1="344.627" y1="62.2814" x2="126.015" y2="500.744" gradientUnits="userSpaceOnUse">
<stop stop-color="#AA80F9"/>
<stop offset="1" stop-color="#6165D7"/>
</linearGradient>
<linearGradient id="paint7_linear_298_3806" x1="249.647" y1="48.6041" x2="287.602" y2="200.852" gradientUnits="userSpaceOnUse">
<stop stop-color="#AA80F9"/>
<stop offset="1" stop-color="#6165D7"/>
</linearGradient>
<linearGradient id="paint8_linear_298_3806" x1="188.282" y1="247.609" x2="188.282" y2="200.38" gradientUnits="userSpaceOnUse">
<stop stop-color="#AA80F9"/>
<stop offset="1" stop-color="#6165D7"/>
</linearGradient>
<linearGradient id="paint9_linear_298_3806" x1="188.975" y1="285.14" x2="188.975" y2="237.909" gradientUnits="userSpaceOnUse">
<stop stop-color="#AA80F9"/>
<stop offset="1" stop-color="#6165D7"/>
</linearGradient>
<linearGradient id="paint10_linear_298_3806" x1="353.25" y1="120.342" x2="299.418" y2="137.668" gradientUnits="userSpaceOnUse">
<stop stop-color="#FCB148"/>
<stop offset="0.05" stop-color="#FDBA46"/>
<stop offset="0.14" stop-color="#FFC244"/>
<stop offset="0.32" stop-color="#FFC444"/>
<stop offset="0.48" stop-color="#FDB946"/>
<stop offset="0.78" stop-color="#F99C4D"/>
<stop offset="0.87" stop-color="#F8924F"/>
<stop offset="1" stop-color="#F8924F"/>
</linearGradient>
<linearGradient id="paint11_linear_298_3806" x1="396.82" y1="66.8804" x2="348.962" y2="172.764" gradientUnits="userSpaceOnUse">
<stop stop-color="#FFDB44"/>
<stop offset="1" stop-color="#FEEF06"/>
</linearGradient>
<linearGradient id="paint12_linear_298_3806" x1="387.974" y1="178.573" x2="378.747" y2="128.023" gradientUnits="userSpaceOnUse">
<stop stop-color="#FCB148"/>
<stop offset="0.05" stop-color="#FDBA46"/>
<stop offset="0.14" stop-color="#FFC244"/>
<stop offset="0.32" stop-color="#FFC444"/>
<stop offset="0.48" stop-color="#FDB946"/>
<stop offset="0.78" stop-color="#F99C4D"/>
<stop offset="0.87" stop-color="#F8924F"/>
<stop offset="1" stop-color="#F8924F"/>
</linearGradient>
<linearGradient id="paint13_linear_298_3806" x1="368.303" y1="96.7673" x2="406.362" y2="177.787" gradientUnits="userSpaceOnUse">
<stop stop-color="#FCB148"/>
<stop offset="0.05" stop-color="#FDBA46"/>
<stop offset="0.14" stop-color="#FFC244"/>
<stop offset="0.32" stop-color="#FFC444"/>
<stop offset="0.48" stop-color="#FDB946"/>
<stop offset="0.78" stop-color="#F99C4D"/>
<stop offset="0.87" stop-color="#F8924F"/>
<stop offset="1" stop-color="#F8924F"/>
</linearGradient>
<linearGradient id="paint14_linear_298_3806" x1="366.78" y1="79.3508" x2="385.905" y2="151.229" gradientUnits="userSpaceOnUse">
<stop stop-color="#FFDB44"/>
<stop offset="1" stop-color="#FEEF06"/>
</linearGradient>
<linearGradient id="paint15_linear_298_3806" x1="357.055" y1="102.005" x2="395.037" y2="182.861" gradientUnits="userSpaceOnUse">
<stop stop-color="#FCB148"/>
<stop offset="0.05" stop-color="#FDBA46"/>
<stop offset="0.14" stop-color="#FFC244"/>
<stop offset="0.32" stop-color="#FFC444"/>
<stop offset="0.48" stop-color="#FDB946"/>
<stop offset="0.78" stop-color="#F99C4D"/>
<stop offset="0.87" stop-color="#F8924F"/>
<stop offset="1" stop-color="#F8924F"/>
</linearGradient>
<linearGradient id="paint16_linear_298_3806" x1="319.906" y1="128.089" x2="383.312" y2="40.9454" gradientUnits="userSpaceOnUse">
<stop stop-color="#311944"/>
<stop offset="1" stop-color="#893976"/>
</linearGradient>
<linearGradient id="paint17_linear_298_3806" x1="371.275" y1="85.332" x2="394.203" y2="53.8196" gradientUnits="userSpaceOnUse">
<stop stop-color="#311944"/>
<stop offset="1" stop-color="#893976"/>
</linearGradient>
<linearGradient id="paint18_linear_298_3806" x1="352.397" y1="176.571" x2="370.817" y2="195.373" gradientUnits="userSpaceOnUse">
<stop stop-color="#FFC444"/>
<stop offset="1" stop-color="#F36F56"/>
</linearGradient>
<linearGradient id="paint19_linear_298_3806" x1="398.187" y1="354.673" x2="398.032" y2="313.078" gradientUnits="userSpaceOnUse">
<stop stop-color="#AA80F9"/>
<stop offset="1" stop-color="#6165D7"/>
</linearGradient>
<linearGradient id="paint20_linear_298_3806" x1="402.339" y1="368.047" x2="404.314" y2="346.552" gradientUnits="userSpaceOnUse">
<stop stop-color="#FFC444"/>
<stop offset="1" stop-color="#F36F56"/>
</linearGradient>
<linearGradient id="paint21_linear_298_3806" x1="422.78" y1="354.582" x2="422.625" y2="312.986" gradientUnits="userSpaceOnUse">
<stop stop-color="#AA80F9"/>
<stop offset="1" stop-color="#6165D7"/>
</linearGradient>
<linearGradient id="paint22_linear_298_3806" x1="427.265" y1="370.335" x2="429.238" y2="348.84" gradientUnits="userSpaceOnUse">
<stop stop-color="#FFC444"/>
<stop offset="1" stop-color="#F36F56"/>
</linearGradient>
<linearGradient id="paint23_linear_298_3806" x1="403.074" y1="259.738" x2="418.28" y2="337.701" gradientUnits="userSpaceOnUse">
<stop stop-color="#311944"/>
<stop offset="1" stop-color="#893976"/>
</linearGradient>
<linearGradient id="paint24_linear_298_3806" x1="395.46" y1="297.86" x2="418.431" y2="299.706" gradientUnits="userSpaceOnUse">
<stop stop-color="#311944"/>
<stop offset="1" stop-color="#893976"/>
</linearGradient>
<linearGradient id="paint25_linear_298_3806" x1="408.166" y1="302.168" x2="443.037" y2="304.97" gradientUnits="userSpaceOnUse">
<stop stop-color="#311944"/>
<stop offset="1" stop-color="#893976"/>
</linearGradient>
<linearGradient id="paint26_linear_298_3806" x1="380.604" y1="187.387" x2="406.263" y2="352.636" gradientUnits="userSpaceOnUse">
<stop stop-color="#FFC444"/>
<stop offset="1" stop-color="#F36F56"/>
</linearGradient>
<linearGradient id="paint27_linear_298_3806" x1="435.497" y1="368.753" x2="447.914" y2="535.512" gradientUnits="userSpaceOnUse">
<stop stop-color="#FFC444"/>
<stop offset="1" stop-color="#F36F56"/>
</linearGradient>
<linearGradient id="paint28_linear_298_3806" x1="477.919" y1="311.894" x2="409.331" y2="194.09" gradientUnits="userSpaceOnUse">
<stop stop-color="#FFC444"/>
<stop offset="1" stop-color="#F36F56"/>
</linearGradient>
<linearGradient id="paint29_linear_298_3806" x1="453.488" y1="230.553" x2="439.016" y2="250.159" gradientUnits="userSpaceOnUse">
<stop stop-color="#FFC444"/>
<stop offset="1" stop-color="#F36F56"/>
</linearGradient>
<linearGradient id="paint30_linear_298_3806" x1="465.985" y1="366.483" x2="478.402" y2="533.244" gradientUnits="userSpaceOnUse">
<stop stop-color="#FFC444"/>
<stop offset="1" stop-color="#F36F56"/>
</linearGradient>
<linearGradient id="paint31_linear_298_3806" x1="410.506" y1="180.851" x2="424.52" y2="163.451" gradientUnits="userSpaceOnUse">
<stop stop-color="#FFC444"/>
<stop offset="1" stop-color="#F36F56"/>
</linearGradient>
<linearGradient id="paint32_linear_298_3806" x1="422.881" y1="175.429" x2="415.508" y2="151.105" gradientUnits="userSpaceOnUse">
<stop stop-color="#444B8C"/>
<stop offset="1" stop-color="#3E4177"/>
</linearGradient>
<linearGradient id="paint33_linear_298_3806" x1="402.252" y1="165.936" x2="423.156" y2="156.665" gradientUnits="userSpaceOnUse">
<stop stop-color="#FFC444"/>
<stop offset="1" stop-color="#F36F56"/>
</linearGradient>
<linearGradient id="paint34_linear_298_3806" x1="298.193" y1="180.807" x2="260.028" y2="193.089" gradientUnits="userSpaceOnUse">
<stop stop-color="#FCB148"/>
<stop offset="0.05" stop-color="#FDBA46"/>
<stop offset="0.14" stop-color="#FFC244"/>
<stop offset="0.32" stop-color="#FFC444"/>
<stop offset="0.48" stop-color="#FDB946"/>
<stop offset="0.78" stop-color="#F99C4D"/>
<stop offset="0.87" stop-color="#F8924F"/>
<stop offset="1" stop-color="#F8924F"/>
</linearGradient>
<linearGradient id="paint35_linear_298_3806" x1="329.084" y1="142.903" x2="295.153" y2="217.972" gradientUnits="userSpaceOnUse">
<stop stop-color="#FFDB44"/>
<stop offset="1" stop-color="#FEEF06"/>
</linearGradient>
<linearGradient id="paint36_linear_298_3806" x1="322.813" y1="222.091" x2="316.271" y2="186.252" gradientUnits="userSpaceOnUse">
<stop stop-color="#FCB148"/>
<stop offset="0.05" stop-color="#FDBA46"/>
<stop offset="0.14" stop-color="#FFC244"/>
<stop offset="0.32" stop-color="#FFC444"/>
<stop offset="0.48" stop-color="#FDB946"/>
<stop offset="0.78" stop-color="#F99C4D"/>
<stop offset="0.87" stop-color="#F8924F"/>
<stop offset="1" stop-color="#F8924F"/>
</linearGradient>
<linearGradient id="paint37_linear_298_3806" x1="308.867" y1="164.093" x2="335.85" y2="221.534" gradientUnits="userSpaceOnUse">
<stop stop-color="#FCB148"/>
<stop offset="0.05" stop-color="#FDBA46"/>
<stop offset="0.14" stop-color="#FFC244"/>
<stop offset="0.32" stop-color="#FFC444"/>
<stop offset="0.48" stop-color="#FDB946"/>
<stop offset="0.78" stop-color="#F99C4D"/>
<stop offset="0.87" stop-color="#F8924F"/>
<stop offset="1" stop-color="#F8924F"/>
</linearGradient>
<linearGradient id="paint38_linear_298_3806" x1="307.787" y1="151.745" x2="321.345" y2="202.704" gradientUnits="userSpaceOnUse">
<stop stop-color="#FFDB44"/>
<stop offset="1" stop-color="#FEEF06"/>
</linearGradient>
<linearGradient id="paint39_linear_298_3806" x1="300.891" y1="167.806" x2="327.82" y2="225.131" gradientUnits="userSpaceOnUse">
<stop stop-color="#FCB148"/>
<stop offset="0.05" stop-color="#FDBA46"/>
<stop offset="0.14" stop-color="#FFC244"/>
<stop offset="0.32" stop-color="#FFC444"/>
<stop offset="0.48" stop-color="#FDB946"/>
<stop offset="0.78" stop-color="#F99C4D"/>
<stop offset="0.87" stop-color="#F8924F"/>
<stop offset="1" stop-color="#F8924F"/>
</linearGradient>
</defs>
</svg>
