<svg width="107" height="89" viewBox="0 0 107 89" fill="none" xmlns="http://www.w3.org/2000/svg">
<path fill-rule="evenodd" clip-rule="evenodd" d="M41.5764 32.7172C37.9036 34.8325 34.8534 37.8787 32.7332 41.5486C30.6131 45.2185 29.4979 49.3826 29.5 53.621L0.500007 53.6357C0.495267 44.2992 2.95187 35.1263 7.62243 27.0418C12.293 18.9573 19.0123 12.2469 27.1029 7.58716L41.5764 32.7172Z" fill="#5EA518"/>
<path fill-rule="evenodd" clip-rule="evenodd" d="M74.5331 41.5713C72.4209 37.9068 69.3817 34.8623 65.7207 32.7437L80.246 7.64355C88.3105 12.3105 95.0055 19.0169 99.6584 27.0897C104.311 35.1625 106.758 44.3173 106.754 53.6349L77.7542 53.6216C77.7561 49.3917 76.6453 45.2359 74.5331 41.5713Z" fill="#EA6B7E"/>
<path fill-rule="evenodd" clip-rule="evenodd" d="M53.6001 29.5C49.3843 29.4934 45.2414 30.6002 41.5906 32.7086L27.0879 7.59539C35.1548 2.9368 44.308 0.489362 53.6232 0.500035C62.9774 0.489315 72.1676 2.95713 80.2583 7.65247L65.7022 32.7347C62.0401 30.6095 57.88 29.4933 53.6459 29.5H53.6001Z" fill="#EAD622"/>
<path d="M49.3114 45.9098C48.7567 46.2784 48.2417 46.7033 47.7745 47.1778L47.7617 47.189C45.9889 48.9866 44.9966 51.4108 45 53.9355C45 56.4886 46.0142 58.9372 47.8195 60.7425C49.6249 62.5479 52.0735 63.5621 54.6266 63.5621C56.2135 63.5626 57.7759 63.1705 59.1745 62.4207C60.5731 61.671 61.7646 60.5869 62.6427 59.2651L62.6538 59.2747C62.6538 59.2747 76.1885 38.0139 82.4018 25.5872C82.4034 25.5872 57.1145 39.9927 49.3114 45.9098ZM54.6282 58.9833C53.2894 58.9833 52.0055 58.4515 51.0588 57.5049C50.1122 56.5582 49.5804 55.2743 49.5804 53.9355C49.5802 53.2725 49.7105 52.6159 49.9641 52.0033C50.2177 51.3907 50.5896 50.834 51.0584 50.3651C51.5271 49.8962 52.0835 49.5242 52.6961 49.2704C53.3086 49.0167 53.9651 48.886 54.6282 48.886C55.9671 48.8865 57.2511 49.4187 58.1977 50.3656C59.1443 51.3125 59.6761 52.5966 59.6761 53.9355C59.6761 55.2743 59.1443 56.5582 58.1977 57.5049C57.251 58.4515 55.9669 58.9833 54.6282 58.9833V58.9833Z" fill="#454545"/>
<path d="M37.106 88H33.8105L38.8319 73.4546H42.7949L47.8091 88H44.5137L40.8702 76.7785H40.7566L37.106 88ZM36.9 82.2827H44.6841V84.6833H36.9V82.2827Z" fill="#EA6B7E"/>
<path d="M52.5286 73.4546V88H49.503V73.4546H52.5286Z" fill="#EA6B7E"/>
<path d="M60.7548 77.091V79.3637H54.1852V77.091H60.7548ZM55.6767 74.4773H58.7022V84.6478C58.7022 84.9271 58.7449 85.1449 58.8301 85.3012C58.9153 85.4527 59.0337 85.5592 59.1852 85.6208C59.3414 85.6823 59.5214 85.7131 59.725 85.7131C59.867 85.7131 60.0091 85.7013 60.1511 85.6776C60.2931 85.6492 60.402 85.6279 60.4778 85.6137L60.9537 87.8651C60.8021 87.9125 60.5891 87.9669 60.3145 88.0285C60.0398 88.0947 59.706 88.135 59.313 88.1492C58.5839 88.1776 57.9447 88.0805 57.3954 87.858C56.8509 87.6355 56.4271 87.2898 56.1241 86.8211C55.8211 86.3523 55.6719 85.7605 55.6767 85.0455V74.4773Z" fill="#EA6B7E"/>
<path d="M67.5375 88.2131C66.4342 88.2131 65.4802 87.9787 64.6752 87.51C63.8751 87.0365 63.2572 86.3784 62.8216 85.5356C62.386 84.688 62.1681 83.7055 62.1681 82.5881C62.1681 81.4612 62.386 80.4764 62.8216 79.6336C63.2572 78.786 63.8751 78.1279 64.6752 77.6591C65.4802 77.1857 66.4342 76.9489 67.5375 76.9489C68.6407 76.9489 69.5924 77.1857 70.3926 77.6591C71.1975 78.1279 71.8178 78.786 72.2534 79.6336C72.689 80.4764 72.9068 81.4612 72.9068 82.5881C72.9068 83.7055 72.689 84.688 72.2534 85.5356C71.8178 86.3784 71.1975 87.0365 70.3926 87.51C69.5924 87.9787 68.6407 88.2131 67.5375 88.2131ZM67.5517 85.8694C68.0536 85.8694 68.4726 85.7273 68.8088 85.4432C69.1449 85.1544 69.3983 84.7614 69.5687 84.2642C69.7439 83.7671 69.8315 83.2013 69.8315 82.5668C69.8315 81.9323 69.7439 81.3665 69.5687 80.8694C69.3983 80.3722 69.1449 79.9792 68.8088 79.6904C68.4726 79.4016 68.0536 79.2571 67.5517 79.2571C67.045 79.2571 66.6189 79.4016 66.2733 79.6904C65.9324 79.9792 65.6743 80.3722 65.4991 80.8694C65.3287 81.3665 65.2434 81.9323 65.2434 82.5668C65.2434 83.2013 65.3287 83.7671 65.4991 84.2642C65.6743 84.7614 65.9324 85.1544 66.2733 85.4432C66.6189 85.7273 67.045 85.8694 67.5517 85.8694Z" fill="#EA6B7E"/>
</svg>
