<svg width="107" height="93" viewBox="0 0 107 93" fill="none" xmlns="http://www.w3.org/2000/svg">
<path fill-rule="evenodd" clip-rule="evenodd" d="M41.0764 32.7172C37.4036 34.8325 34.3534 37.8787 32.2332 41.5486C30.1131 45.2185 28.9979 49.3826 29 53.621L6.84567e-06 53.6357C-0.00473292 44.2992 2.45187 35.1263 7.12243 27.0418C11.793 18.9573 18.5123 12.2469 26.6029 7.58716L41.0764 32.7172Z" fill="#5EA518"/>
<path fill-rule="evenodd" clip-rule="evenodd" d="M74.0331 41.5713C71.9209 37.9068 68.8817 34.8623 65.2207 32.7437L79.746 7.64355C87.8105 12.3105 94.5055 19.0169 99.1584 27.0897C103.811 35.1625 106.258 44.3173 106.254 53.6349L77.2542 53.6216C77.2561 49.3917 76.1453 45.2359 74.0331 41.5713Z" fill="#EA6B7E"/>
<path fill-rule="evenodd" clip-rule="evenodd" d="M53.1001 29.5C48.8843 29.4934 44.7414 30.6002 41.0906 32.7086L26.5879 7.59539C34.6548 2.9368 43.808 0.489362 53.1232 0.500035C62.4774 0.489315 71.6676 2.95713 79.7583 7.65247L65.2022 32.7347C61.5401 30.6095 57.38 29.4933 53.1459 29.5H53.1001Z" fill="#EAD622"/>
<path d="M59.298 45.9098C59.8526 46.2784 60.3676 46.7033 60.8349 47.1778L60.8477 47.189C62.6204 48.9866 63.6128 51.4108 63.6094 53.9355C63.6094 56.4886 62.5952 58.9372 60.7899 60.7425C58.9845 62.5479 56.5359 63.5621 53.9828 63.5621C52.3959 63.5626 50.8335 63.1705 49.4349 62.4207C48.0362 61.671 46.8448 60.5869 45.9667 59.2651L45.9556 59.2747C45.9556 59.2747 32.4209 38.0139 26.2075 25.5872C26.2059 25.5872 51.4949 39.9927 59.298 45.9098ZM53.9812 58.9833C55.32 58.9833 56.6039 58.4515 57.5505 57.5049C58.4972 56.5582 59.0289 55.2743 59.0289 53.9355C59.0292 53.2725 58.8989 52.6159 58.6453 52.0033C58.3917 51.3907 58.0198 50.834 57.551 50.3651C57.0823 49.8962 56.5258 49.5242 55.9133 49.2704C55.3008 49.0167 54.6442 48.886 53.9812 48.886C52.6423 48.8865 51.3583 49.4187 50.4117 50.3656C49.4651 51.3125 48.9333 52.5966 48.9333 53.9355C48.9333 55.2743 49.465 56.5582 50.4117 57.5049C51.3584 58.4515 52.6424 58.9833 53.9812 58.9833V58.9833Z" fill="#454545"/>
<path d="M33.4941 88V73.4545H39.318C40.3881 73.4545 41.2806 73.6131 41.9956 73.9304C42.7105 74.2476 43.2479 74.6879 43.6078 75.2514C43.9676 75.8101 44.1475 76.454 44.1475 77.1832C44.1475 77.7514 44.0339 78.2509 43.8066 78.6818C43.5794 79.1079 43.2669 79.4583 42.8691 79.7329C42.4761 80.0028 42.0263 80.1946 41.5197 80.3082V80.4502C42.0737 80.4739 42.5922 80.6302 43.0751 80.919C43.5628 81.2078 43.9582 81.6126 44.2612 82.1335C44.5642 82.6496 44.7157 83.2651 44.7157 83.9801C44.7157 84.7519 44.524 85.4408 44.1404 86.0468C43.7617 86.6482 43.2006 87.124 42.4572 87.4744C41.7138 87.8248 40.7976 88 39.7086 88H33.4941ZM36.5694 85.4858H39.0765C39.9335 85.4858 40.5585 85.3224 40.9515 84.9957C41.3445 84.6643 41.541 84.2239 41.541 83.6747C41.541 83.2722 41.444 82.9171 41.2498 82.6093C41.0557 82.3016 40.7787 82.0601 40.4189 81.8849C40.0637 81.7097 39.64 81.6221 39.1475 81.6221H36.5694V85.4858ZM36.5694 79.5411H38.8493C39.2707 79.5411 39.6447 79.4678 39.9714 79.321C40.3029 79.1695 40.5633 78.9564 40.7527 78.6818C40.9468 78.4072 41.0439 78.0781 41.0439 77.6946C41.0439 77.169 40.8568 76.7452 40.4828 76.4233C40.1135 76.1013 39.5879 75.9403 38.9061 75.9403H36.5694V79.5411Z" fill="#5EA518"/>
<path d="M49.7708 88.2059C49.0748 88.2059 48.4545 88.0852 47.91 87.8437C47.3655 87.5975 46.9346 87.2353 46.6174 86.7571C46.3049 86.2741 46.1486 85.6728 46.1486 84.9531C46.1486 84.347 46.2599 83.838 46.4824 83.4261C46.705 83.0142 47.008 82.6827 47.3915 82.4318C47.775 82.1808 48.2106 81.9914 48.6983 81.8636C49.1908 81.7358 49.7069 81.6458 50.2466 81.5937C50.8811 81.5274 51.3925 81.4659 51.7807 81.409C52.169 81.3475 52.4507 81.2575 52.6259 81.1392C52.8011 81.0208 52.8887 80.8456 52.8887 80.6136V80.571C52.8887 80.1212 52.7466 79.7732 52.4625 79.5269C52.1832 79.2807 51.7855 79.1576 51.2694 79.1576C50.7248 79.1576 50.2916 79.2784 49.9696 79.5198C49.6477 79.7566 49.4346 80.0549 49.3304 80.4147L46.5321 80.1875C46.6742 79.5246 46.9535 78.9517 47.3702 78.4687C47.7869 77.981 48.3243 77.607 48.9824 77.3465C49.6453 77.0814 50.4123 76.9488 51.2836 76.9488C51.8896 76.9488 52.4696 77.0198 53.0236 77.1619C53.5823 77.3039 54.0771 77.5241 54.508 77.8224C54.9436 78.1207 55.2869 78.5042 55.5378 78.973C55.7888 79.437 55.9142 79.9933 55.9142 80.642V88H53.0449V86.4872H52.9597C52.7845 86.8281 52.5501 87.1287 52.2566 87.3892C51.963 87.6448 51.6103 87.8461 51.1983 87.9929C50.7864 88.1349 50.3105 88.2059 49.7708 88.2059ZM50.6373 86.1179C51.0823 86.1179 51.4753 86.0303 51.8162 85.8551C52.1571 85.6751 52.4247 85.4337 52.6188 85.1306C52.8129 84.8276 52.91 84.4843 52.91 84.1008V82.9431C52.8153 83.0047 52.6851 83.0615 52.5194 83.1136C52.3584 83.1609 52.1761 83.2059 51.9725 83.2485C51.7689 83.2864 51.5653 83.3219 51.3617 83.3551C51.1581 83.3835 50.9734 83.4095 50.8077 83.4332C50.4526 83.4853 50.1425 83.5681 49.8773 83.6818C49.6122 83.7954 49.4062 83.9493 49.2594 84.1434C49.1126 84.3328 49.0392 84.5696 49.0392 84.8536C49.0392 85.2656 49.1884 85.5804 49.4867 85.7983C49.7897 86.0113 50.1732 86.1179 50.6373 86.1179Z" fill="#5EA518"/>
<path d="M58.2615 77.0909H61.2871V88.5397C61.2871 89.3825 61.1214 90.0644 60.79 90.5852C60.4585 91.106 59.9827 91.4872 59.3624 91.7286C58.7469 91.9701 58.0106 92.0909 57.1536 92.0909C57.0494 92.0909 56.95 92.0885 56.8553 92.0838C56.7559 92.0838 56.6517 92.0814 56.5428 92.0767V89.7116C56.6233 89.7163 56.6943 89.7187 56.7559 89.7187C56.8127 89.7234 56.8742 89.7258 56.9405 89.7258C57.4282 89.7258 57.7691 89.6216 57.9632 89.4133C58.1621 89.2097 58.2615 88.9019 58.2615 88.49V77.0909ZM59.7672 75.6846C59.3221 75.6846 58.9386 75.5355 58.6167 75.2372C58.2947 74.9341 58.1337 74.5719 58.1337 74.1505C58.1337 73.7339 58.2947 73.3764 58.6167 73.0781C58.9386 72.7751 59.3221 72.6235 59.7672 72.6235C60.2218 72.6235 60.6077 72.7751 60.9249 73.0781C61.2469 73.3764 61.4078 73.7339 61.4078 74.1505C61.4078 74.5719 61.2469 74.9341 60.9249 75.2372C60.6077 75.5355 60.2218 75.6846 59.7672 75.6846Z" fill="#5EA518"/>
<path d="M68.6397 88.213C67.5365 88.213 66.5824 87.9786 65.7775 87.5099C64.9773 87.0364 64.3594 86.3783 63.9238 85.5355C63.4882 84.6879 63.2704 83.7054 63.2704 82.588C63.2704 81.4611 63.4882 80.4763 63.9238 79.6335C64.3594 78.7859 64.9773 78.1278 65.7775 77.659C66.5824 77.1856 67.5365 76.9488 68.6397 76.9488C69.743 76.9488 70.6947 77.1856 71.4949 77.659C72.2998 78.1278 72.92 78.7859 73.3556 79.6335C73.7913 80.4763 74.0091 81.4611 74.0091 82.588C74.0091 83.7054 73.7913 84.6879 73.3556 85.5355C72.92 86.3783 72.2998 87.0364 71.4949 87.5099C70.6947 87.9786 69.743 88.213 68.6397 88.213ZM68.6539 85.8693C69.1558 85.8693 69.5749 85.7272 69.911 85.4431C70.2472 85.1543 70.5005 84.7613 70.671 84.2642C70.8462 83.767 70.9338 83.2012 70.9338 82.5667C70.9338 81.9322 70.8462 81.3664 70.671 80.8693C70.5005 80.3721 70.2472 79.9791 69.911 79.6903C69.5749 79.4015 69.1558 79.2571 68.6539 79.2571C68.1473 79.2571 67.7212 79.4015 67.3755 79.6903C67.0346 79.9791 66.7766 80.3721 66.6014 80.8693C66.4309 81.3664 66.3457 81.9322 66.3457 82.5667C66.3457 83.2012 66.4309 83.767 66.6014 84.2642C66.7766 84.7613 67.0346 85.1543 67.3755 85.4431C67.7212 85.7272 68.1473 85.8693 68.6539 85.8693Z" fill="#5EA518"/>
</svg>
