<svg width="107" height="89" viewBox="0 0 107 89" fill="none" xmlns="http://www.w3.org/2000/svg">
<path fill-rule="evenodd" clip-rule="evenodd" d="M41.5764 32.7172C37.9036 34.8325 34.8534 37.8787 32.7332 41.5486C30.6131 45.2185 29.4979 49.3826 29.5 53.621L0.500007 53.6357C0.495267 44.2992 2.95187 35.1263 7.62243 27.0418C12.293 18.9573 19.0123 12.2469 27.1029 7.58716L41.5764 32.7172Z" fill="#5EA518"/>
<path fill-rule="evenodd" clip-rule="evenodd" d="M74.5331 41.5713C72.4209 37.9068 69.3817 34.8623 65.7207 32.7437L80.246 7.64355C88.3105 12.3105 95.0055 19.0169 99.6584 27.0897C104.311 35.1625 106.758 44.3173 106.754 53.6349L77.7542 53.6216C77.7561 49.3917 76.6453 45.2359 74.5331 41.5713Z" fill="#EA6B7E"/>
<path fill-rule="evenodd" clip-rule="evenodd" d="M53.6001 29.5C49.3843 29.4934 45.2414 30.6002 41.5906 32.7086L27.0879 7.59539C35.1548 2.9368 44.308 0.489362 53.6232 0.500035C62.9774 0.489315 72.1676 2.95713 80.2583 7.65247L65.7022 32.7347C62.0401 30.6095 57.88 29.4933 53.6459 29.5H53.6001Z" fill="#EAD622"/>
<path d="M63.8799 51.7687C64.0115 52.4215 64.0752 53.0861 64.0701 53.7521L64.0712 53.769C64.0536 56.2937 63.0411 58.7095 61.2535 60.4923C59.4482 62.2977 56.9997 63.3119 54.4465 63.3119C51.8934 63.3119 49.4448 62.2977 47.6394 60.4923C46.517 59.3706 45.6895 57.9885 45.2307 56.4694C44.7718 54.9503 44.6959 53.3412 45.0096 51.7857L44.995 51.7846C44.995 51.7846 50.4582 27.1805 54.8517 13.9999C54.8506 13.9988 62.5464 42.067 63.8799 51.7687ZM50.876 57.2535C51.8227 58.2002 53.1066 58.732 54.4454 58.732C55.7841 58.732 57.068 58.2001 58.0147 57.2535C58.4836 56.7848 58.8558 56.2284 59.1097 55.6159C59.3635 55.0034 59.4942 54.3468 59.4943 53.6838C59.4944 53.0207 59.364 52.3643 59.1103 51.7517C58.8566 51.1391 58.4847 50.5825 58.0159 50.1137C57.0688 49.1672 55.7846 48.6356 54.4457 48.6358C53.1068 48.636 51.8227 49.168 50.876 50.1148C49.9293 51.0614 49.3974 52.3453 49.3974 53.6841C49.3974 55.0229 49.9294 56.3069 50.876 57.2535V57.2535Z" fill="#454545"/>
<path d="M24.4219 73.4545H28.2145L32.2202 83.2272H32.3906L36.3963 73.4545H40.1889V88H37.206V78.5326H37.0852L33.321 87.9289H31.2898L27.5256 78.4971H27.4048V88H24.4219V73.4545Z" fill="#EAD622"/>
<path d="M47.6374 88.213C46.5153 88.213 45.5494 87.9858 44.7397 87.5312C43.9348 87.0719 43.3145 86.4233 42.8789 85.5852C42.4433 84.7424 42.2255 83.7457 42.2255 82.5951C42.2255 81.473 42.4433 80.4881 42.8789 79.6406C43.3145 78.793 43.9277 78.1325 44.7184 77.659C45.5138 77.1856 46.4466 76.9488 47.5167 76.9488C48.2364 76.9488 48.9064 77.0648 49.5266 77.2968C50.1516 77.5241 50.6961 77.8674 51.1602 78.3267C51.6289 78.7859 51.9935 79.3636 52.2539 80.0596C52.5143 80.7509 52.6445 81.5606 52.6445 82.4886V83.3196H43.4329V81.4446H49.7965C49.7965 81.009 49.7018 80.6231 49.5124 80.2869C49.323 79.9507 49.0603 79.6879 48.7241 79.4985C48.3926 79.3044 48.0067 79.2073 47.5664 79.2073C47.1071 79.2073 46.6999 79.3139 46.3448 79.5269C45.9944 79.7353 45.7198 80.017 45.521 80.3721C45.3221 80.7225 45.2203 81.1131 45.2156 81.544V83.3267C45.2156 83.8664 45.315 84.3328 45.5138 84.7258C45.7174 85.1188 46.0039 85.4218 46.3732 85.6349C46.7425 85.848 47.1805 85.9545 47.6871 85.9545C48.0233 85.9545 48.3311 85.9072 48.6104 85.8125C48.8898 85.7178 49.1289 85.5757 49.3278 85.3863C49.5266 85.1969 49.6781 84.9649 49.7823 84.6903L52.5806 84.875C52.4386 85.5473 52.1474 86.1344 51.707 86.6363C51.2714 87.1335 50.708 87.5217 50.0167 87.8011C49.3301 88.0757 48.537 88.213 47.6374 88.213Z" fill="#EAD622"/>
<path d="M58.6389 88.1775C57.8103 88.1775 57.0598 87.9644 56.3874 87.5383C55.7198 87.1074 55.1895 86.4753 54.7965 85.642C54.4083 84.8039 54.2141 83.7765 54.2141 82.5596C54.2141 81.3096 54.4154 80.2703 54.8178 79.4417C55.2203 78.6084 55.7553 77.9858 56.4229 77.5738C57.0953 77.1572 57.8316 76.9488 58.6317 76.9488C59.2425 76.9488 59.7515 77.053 60.1587 77.2613C60.5707 77.4649 60.9021 77.7206 61.1531 78.0284C61.4087 78.3314 61.6029 78.6297 61.7354 78.9233H61.8278V73.4545H64.8462V88H61.8633V86.2528H61.7354C61.5934 86.5558 61.3922 86.8565 61.1317 87.1548C60.8761 87.4483 60.5423 87.6922 60.1303 87.8863C59.7231 88.0804 59.226 88.1775 58.6389 88.1775ZM59.5977 85.7698C60.0853 85.7698 60.4973 85.6373 60.8335 85.3721C61.1744 85.1022 61.4348 84.7258 61.6147 84.2429C61.7994 83.7599 61.8917 83.1941 61.8917 82.5454C61.8917 81.8967 61.8017 81.3333 61.6218 80.8551C61.4419 80.3768 61.1815 80.0075 60.8406 79.7471C60.4996 79.4867 60.0853 79.3565 59.5977 79.3565C59.1005 79.3565 58.6815 79.4914 58.3406 79.7613C57.9996 80.0312 57.7416 80.4053 57.5664 80.8835C57.3912 81.3617 57.3036 81.9157 57.3036 82.5454C57.3036 83.1799 57.3912 83.741 57.5664 84.2286C57.7463 84.7116 58.0044 85.0904 58.3406 85.365C58.6815 85.6349 59.1005 85.7698 59.5977 85.7698Z" fill="#EAD622"/>
<path d="M67.3338 88V77.0909H70.3594V88H67.3338ZM68.8537 75.6846C68.4039 75.6846 68.018 75.5355 67.696 75.2372C67.3788 74.9341 67.2202 74.5719 67.2202 74.1505C67.2202 73.7339 67.3788 73.3764 67.696 73.0781C68.018 72.7751 68.4039 72.6235 68.8537 72.6235C69.3035 72.6235 69.687 72.7751 70.0043 73.0781C70.3262 73.3764 70.4872 73.7339 70.4872 74.1505C70.4872 74.5719 70.3262 74.9341 70.0043 75.2372C69.687 75.5355 69.3035 75.6846 68.8537 75.6846Z" fill="#EAD622"/>
<path d="M77.712 88.213C76.6088 88.213 75.6547 87.9786 74.8498 87.5099C74.0496 87.0364 73.4317 86.3783 72.9961 85.5355C72.5605 84.6879 72.3427 83.7054 72.3427 82.588C72.3427 81.4611 72.5605 80.4763 72.9961 79.6335C73.4317 78.7859 74.0496 78.1278 74.8498 77.659C75.6547 77.1856 76.6088 76.9488 77.712 76.9488C78.8152 76.9488 79.7669 77.1856 80.5671 77.659C81.372 78.1278 81.9923 78.7859 82.4279 79.6335C82.8635 80.4763 83.0813 81.4611 83.0813 82.588C83.0813 83.7054 82.8635 84.6879 82.4279 85.5355C81.9923 86.3783 81.372 87.0364 80.5671 87.5099C79.7669 87.9786 78.8152 88.213 77.712 88.213ZM77.7262 85.8693C78.2281 85.8693 78.6471 85.7272 78.9833 85.4431C79.3195 85.1543 79.5728 84.7613 79.7433 84.2642C79.9184 83.767 80.006 83.2012 80.006 82.5667C80.006 81.9322 79.9184 81.3664 79.7433 80.8693C79.5728 80.3721 79.3195 79.9791 78.9833 79.6903C78.6471 79.4015 78.2281 79.2571 77.7262 79.2571C77.2196 79.2571 76.7934 79.4015 76.4478 79.6903C76.1069 79.9791 75.8488 80.3721 75.6737 80.8693C75.5032 81.3664 75.418 81.9322 75.418 82.5667C75.418 83.2012 75.5032 83.767 75.6737 84.2642C75.8488 84.7613 76.1069 85.1543 76.4478 85.4431C76.7934 85.7272 77.2196 85.8693 77.7262 85.8693Z" fill="#EAD622"/>
</svg>
