<svg width="137" height="138" viewBox="0 0 137 138" fill="none" xmlns="http://www.w3.org/2000/svg">
<path d="M131.289 93.3997C117.491 125.652 81.0678 139.504 52.5294 137.143C44.7373 136.498 29.0595 135.2 16.8179 123.624C-6.6893 101.392 -3.07014 54.9225 19.4345 27.5631C22.3327 24.0401 42.3929 0.434349 73.6534 0.750211C96.5411 0.981712 112.605 13.9105 114.558 15.5212C117.026 17.5556 122.469 22.3907 127.374 30.0616C138.899 48.0848 139.912 73.2454 131.289 93.3997Z" fill="url(#paint0_linear_298_3901)"/>
<path d="M131.674 33.1805H54.1855V98.1126H131.674V33.1805Z" fill="url(#paint1_linear_298_3901)"/>
<path d="M134.362 24.7562L51.4468 25.2776C50.3221 25.2849 49.3942 26.1079 49.3942 27.1158V39.4869C49.3942 40.4576 50.2697 41.2526 51.3521 41.257L134.363 41.7794C135.594 41.7872 136.631 40.9524 136.631 39.9156V26.6239C136.631 25.5831 135.595 24.7483 134.362 24.7562Z" fill="url(#paint2_linear_298_3901)"/>
<path d="M134.325 24.7562L51.351 25.278C50.2686 25.2849 49.3921 26.0775 49.3921 27.0481L136.555 26.6205C136.555 25.5831 135.556 24.7483 134.325 24.7562Z" fill="url(#paint3_linear_298_3901)"/>
<path d="M51.351 41.257L134.325 41.7794C135.556 41.7872 136.555 40.9524 136.555 39.9156L49.3921 39.4879C49.3921 40.4575 50.2686 41.2501 51.351 41.257Z" fill="url(#paint4_linear_298_3901)"/>
<path d="M134.429 45.3853L51.4499 45.2131C50.2895 45.2131 49.3296 46.0504 49.3174 47.0887L49.1584 59.8585C49.1462 60.8625 50.0413 61.6845 51.161 61.6943L134.425 62.4222C135.623 62.4325 136.633 61.5982 136.633 60.5584V47.2643C136.631 46.2289 135.624 45.3877 134.429 45.3853Z" fill="url(#paint5_linear_298_3901)"/>
<path d="M134.391 45.3853L51.3546 45.2126C50.2373 45.2126 49.3226 46.019 49.3103 47.019L136.557 47.2643C136.555 46.2289 135.586 45.3877 134.391 45.3853Z" fill="url(#paint6_linear_298_3901)"/>
<path d="M51.1584 61.6943L134.386 62.4222C135.584 62.4325 136.555 61.5982 136.555 60.5584L49.1538 59.8585C49.1411 60.8625 50.0386 61.6845 51.1584 61.6943Z" fill="url(#paint7_linear_298_3901)"/>
<path d="M134.464 66.0595H51.563C50.3643 66.0595 49.3942 66.9424 49.3942 68.0214V81.243C49.3942 82.2803 50.3261 83.0773 51.4826 83.0773H134.464C135.619 83.0773 136.631 82.2803 136.631 81.243V67.9488C136.631 66.911 135.619 66.0595 134.464 66.0595Z" fill="url(#paint8_linear_298_3901)"/>
<path d="M134.464 66.0595H51.4825C50.3279 66.0595 49.3921 66.8855 49.3921 67.8772H136.555C136.555 66.8855 135.619 66.0595 134.464 66.0595Z" fill="url(#paint9_linear_298_3901)"/>
<path d="M51.4825 83.0773H134.464C135.619 83.0773 136.555 82.2514 136.555 81.2601H49.3921C49.3921 82.2533 50.3279 83.0773 51.4825 83.0773Z" fill="url(#paint10_linear_298_3901)"/>
<path d="M134.552 87.0688L51.6042 86.7441C50.3834 86.7392 49.3942 87.6093 49.3942 88.6868V101.909C49.3942 102.946 50.3462 103.787 51.5213 103.787L134.509 103.819C135.643 103.819 136.564 102.995 136.569 101.977L136.605 88.9223C136.605 87.9031 135.688 87.0732 134.552 87.0688Z" fill="url(#paint11_linear_298_3901)"/>
<path d="M134.552 87.0688L51.5212 86.7436C50.3441 86.7392 49.3921 87.5774 49.3921 88.6147L136.602 88.9223C136.605 87.9031 135.688 87.0732 134.552 87.0688Z" fill="url(#paint12_linear_298_3901)"/>
<path d="M51.5203 103.787L134.508 103.819C135.642 103.819 136.564 102.995 136.568 101.977L49.3942 101.909C49.3922 102.946 50.3452 103.787 51.5203 103.787Z" fill="url(#paint13_linear_298_3901)"/>
<g opacity="0.3">
<path d="M92.0619 26.4694C91.9258 26.4456 91.8032 26.3724 91.7179 26.2637C91.6325 26.1551 91.5903 26.0187 91.5994 25.8809C91.6415 25.2496 91.7117 24.6115 91.8078 23.9832C91.8189 23.9106 91.8442 23.8408 91.8822 23.7779C91.9202 23.715 91.9703 23.6603 92.0295 23.6167C92.0887 23.5732 92.1559 23.5417 92.2273 23.5242C92.2986 23.5066 92.3728 23.5033 92.4454 23.5143H92.4557C92.6005 23.5392 92.7296 23.6201 92.8153 23.7393C92.901 23.8586 92.9364 24.0068 92.9138 24.152C92.8221 24.7489 92.7554 25.3556 92.7152 25.9549C92.7052 26.1031 92.6369 26.2412 92.5251 26.3389C92.4134 26.4367 92.2674 26.4861 92.1193 26.4763C92.1006 26.4748 92.081 26.4724 92.0619 26.4694ZM92.928 21.6697C92.9062 21.6658 92.8846 21.6607 92.8633 21.6545C92.721 21.612 92.6014 21.5148 92.5307 21.3843C92.46 21.2537 92.4439 21.1004 92.4861 20.958C92.6671 20.3493 92.8785 19.7421 93.1071 19.1541C93.1612 19.0159 93.2681 18.9048 93.4041 18.8454C93.5402 18.786 93.6943 18.7831 93.8325 18.8372C93.9707 18.8914 94.0817 18.9983 94.1411 19.1343C94.2005 19.2704 94.2035 19.4244 94.1493 19.5626C93.9296 20.1223 93.7314 20.6986 93.5607 21.2793C93.5212 21.4104 93.435 21.5225 93.3184 21.5945C93.2018 21.6664 93.063 21.6931 92.928 21.6697ZM94.8296 17.1799C94.7412 17.1646 94.6578 17.1283 94.5864 17.0741C94.5149 17.0198 94.4576 16.9492 94.4191 16.8682C94.3807 16.7871 94.3622 16.698 94.3654 16.6084C94.3685 16.5187 94.3932 16.4312 94.4372 16.353C94.7482 15.8012 95.0876 15.2553 95.4451 14.7345C95.4856 14.6714 95.5383 14.6171 95.6001 14.5747C95.6619 14.5323 95.7316 14.5028 95.805 14.4879C95.8785 14.4729 95.9541 14.4729 96.0276 14.4877C96.101 14.5026 96.1708 14.532 96.2327 14.5743C96.2945 14.6166 96.3473 14.6708 96.3878 14.7339C96.4283 14.7969 96.4558 14.8674 96.4686 14.9413C96.4813 15.0151 96.4792 15.0908 96.4622 15.1638C96.4452 15.2367 96.4137 15.3056 96.3697 15.3662C96.0298 15.863 95.708 16.381 95.4123 16.9053C95.3552 17.0055 95.2686 17.0856 95.1644 17.1348C95.0601 17.1839 94.9432 17.1997 94.8296 17.1799ZM97.688 13.2273C97.5831 13.2093 97.4855 13.1614 97.407 13.0894C97.3527 13.0399 97.3086 12.9802 97.2774 12.9137C97.2461 12.8472 97.2283 12.7752 97.2248 12.7017C97.2214 12.6283 97.2325 12.5549 97.2574 12.4858C97.2824 12.4167 97.3207 12.3531 97.3702 12.2988C97.7974 11.8299 98.2501 11.3743 98.7156 10.9436C98.7695 10.8937 98.8328 10.8549 98.9018 10.8295C98.9708 10.804 99.0441 10.7924 99.1175 10.7952C99.191 10.7981 99.2632 10.8154 99.3299 10.8462C99.3967 10.8769 99.4568 10.9206 99.5067 10.9745C99.5566 11.0285 99.5954 11.0918 99.6209 11.1608C99.6463 11.2297 99.658 11.303 99.6551 11.3765C99.6522 11.45 99.6349 11.5221 99.6041 11.5889C99.5734 11.6557 99.5298 11.7157 99.4758 11.7657C99.0344 12.1742 98.6037 12.6073 98.1981 13.0531C98.1347 13.1228 98.0546 13.1753 97.9654 13.2057C97.8763 13.2362 97.7808 13.2436 97.688 13.2273ZM101.356 10.0117C101.247 9.99268 101.146 9.94162 101.066 9.86502C100.985 9.78842 100.93 9.68973 100.906 9.58147C100.882 9.47321 100.89 9.36024 100.931 9.25688C100.971 9.15352 101.041 9.06443 101.132 9.00089C101.651 8.63941 102.193 8.2951 102.743 7.97777C102.806 7.94103 102.877 7.91718 102.95 7.9076C103.023 7.89801 103.097 7.90288 103.168 7.92192C103.239 7.94095 103.305 7.97379 103.363 8.01855C103.422 8.06331 103.471 8.11912 103.507 8.18279C103.544 8.24645 103.568 8.31674 103.578 8.38962C103.587 8.46251 103.582 8.53656 103.563 8.60757C103.544 8.67857 103.511 8.74513 103.467 8.80344C103.422 8.86176 103.366 8.91068 103.302 8.94743C102.78 9.24858 102.265 9.57621 101.771 9.91954C101.65 10.0039 101.501 10.037 101.356 10.0117ZM105.644 7.6879C105.524 7.66717 105.414 7.60797 105.331 7.51926C105.248 7.43054 105.196 7.31714 105.183 7.19618C105.169 7.07523 105.196 6.95331 105.258 6.84885C105.321 6.74439 105.415 6.66308 105.528 6.61721C106.117 6.37884 106.721 6.16304 107.326 5.97568C107.397 5.95149 107.472 5.94177 107.546 5.94709C107.621 5.95242 107.694 5.97267 107.761 6.00665C107.827 6.04064 107.887 6.08767 107.935 6.14496C107.983 6.20225 108.02 6.26864 108.042 6.34019C108.064 6.41175 108.071 6.48702 108.064 6.56155C108.056 6.63609 108.034 6.70836 107.998 6.77411C107.962 6.83986 107.914 6.89775 107.855 6.94435C107.796 6.99094 107.729 7.0253 107.657 7.04539C107.081 7.22343 106.507 7.42845 105.949 7.65455C105.852 7.69424 105.747 7.70581 105.644 7.6879ZM126.086 9.86902C126.007 9.85528 125.932 9.82484 125.866 9.77975C125.369 9.44133 124.851 9.12007 124.325 8.82481C124.261 8.78884 124.204 8.74059 124.159 8.68283C124.114 8.62507 124.08 8.55893 124.06 8.48818C124.04 8.41743 124.034 8.34345 124.043 8.27047C124.052 8.1975 124.075 8.12695 124.111 8.06287C124.147 7.99878 124.195 7.9424 124.253 7.89696C124.311 7.85152 124.377 7.8179 124.447 7.79802C124.518 7.77814 124.592 7.77239 124.665 7.7811C124.738 7.78981 124.809 7.8128 124.873 7.84878C125.426 8.15973 125.973 8.49767 126.497 8.85424C126.602 8.92629 126.68 9.03237 126.717 9.15485C126.754 9.27732 126.748 9.40879 126.7 9.5274C126.652 9.646 126.565 9.74458 126.453 9.80673C126.342 9.86889 126.212 9.89087 126.086 9.86902ZM110.336 6.37247C110.206 6.3497 110.088 6.2815 110.003 6.17995C109.918 6.0784 109.872 5.95007 109.872 5.81771C109.873 5.68535 109.921 5.55752 110.007 5.45688C110.093 5.35625 110.212 5.2893 110.342 5.26793C110.967 5.1664 111.605 5.09087 112.237 5.0433C112.312 5.03602 112.387 5.04366 112.458 5.06577C112.529 5.08787 112.595 5.12399 112.652 5.17202C112.709 5.22004 112.756 5.27899 112.79 5.34541C112.824 5.41183 112.845 5.48438 112.85 5.5588C112.856 5.63321 112.847 5.70799 112.823 5.77875C112.799 5.84951 112.762 5.91481 112.712 5.97083C112.663 6.02684 112.603 6.07244 112.536 6.10494C112.469 6.13745 112.396 6.1562 112.321 6.16009C111.721 6.20522 111.116 6.27683 110.522 6.37296C110.46 6.3831 110.398 6.38294 110.336 6.37247ZM121.77 7.59864C121.733 7.59223 121.697 7.58204 121.662 7.56823C121.101 7.34948 120.523 7.15231 119.945 6.97967C119.873 6.96032 119.805 6.92672 119.746 6.88085C119.687 6.83498 119.638 6.77777 119.601 6.71259C119.565 6.6474 119.542 6.57557 119.533 6.50131C119.525 6.42704 119.532 6.35186 119.553 6.28018C119.574 6.20851 119.609 6.14179 119.657 6.08395C119.704 6.02611 119.762 5.97833 119.828 5.94342C119.894 5.90851 119.967 5.88717 120.041 5.88067C120.116 5.87416 120.191 5.88262 120.262 5.90554C120.871 6.08554 121.478 6.29301 122.068 6.52304C122.197 6.57367 122.303 6.67032 122.365 6.79431C122.427 6.91829 122.44 7.06081 122.403 7.19433C122.366 7.32784 122.281 7.44287 122.164 7.51719C122.047 7.5915 121.907 7.61982 121.77 7.59668V7.59864ZM115.206 6.14047C115.065 6.11524 114.939 6.03725 114.854 5.92244C114.769 5.80763 114.731 5.66468 114.748 5.52284C114.765 5.381 114.836 5.25098 114.945 5.15938C115.055 5.06778 115.195 5.02151 115.338 5.03006C115.97 5.07125 116.608 5.13992 117.236 5.23507H117.247C117.32 5.24686 117.39 5.27282 117.452 5.31148C117.515 5.35013 117.569 5.40072 117.612 5.46037C117.655 5.52001 117.686 5.58753 117.702 5.65907C117.719 5.73061 117.722 5.80478 117.71 5.87734C117.698 5.9499 117.672 6.01942 117.634 6.08194C117.595 6.14447 117.545 6.19876 117.485 6.24173C117.425 6.28471 117.358 6.31551 117.286 6.33239C117.215 6.34926 117.14 6.35188 117.068 6.3401C116.472 6.24985 115.865 6.18462 115.265 6.14391C115.246 6.1444 115.226 6.14195 115.206 6.13851L115.206 6.14047Z" fill="#91B3FA"/>
<path d="M129.121 12.366C129.01 12.3464 128.907 12.2936 128.827 12.2144C128.622 12.0118 128.409 11.8098 128.194 11.6146C128.139 11.5651 128.095 11.5054 128.064 11.4389C128.033 11.3724 128.015 11.3003 128.011 11.2269C128.008 11.1535 128.019 11.0801 128.044 11.0109C128.069 10.9417 128.107 10.8781 128.156 10.8237C128.206 10.7693 128.265 10.7252 128.332 10.6939C128.398 10.6625 128.471 10.6446 128.544 10.6411C128.617 10.6376 128.691 10.6487 128.76 10.6735C128.829 10.6984 128.893 10.7367 128.947 10.7862C129.173 10.9917 129.397 11.204 129.614 11.4174C129.699 11.5012 129.755 11.61 129.774 11.7281C129.793 11.8461 129.773 11.967 129.719 12.0732C129.664 12.1794 129.576 12.2653 129.469 12.3182C129.362 12.3711 129.241 12.3884 129.123 12.3674L129.121 12.366Z" fill="#91B3FA"/>
</g>
<g opacity="0.3">
<path d="M135.624 28.1477C135.493 28.1249 135.374 28.0562 135.289 27.9538C135.204 27.8514 135.158 27.7221 135.16 27.5891C135.163 27.3007 135.16 27.0069 135.153 26.717C135.148 26.5686 135.203 26.4246 135.305 26.3166C135.407 26.2086 135.548 26.1455 135.696 26.1412C135.845 26.1369 135.989 26.1918 136.097 26.2937C136.205 26.3956 136.268 26.5362 136.272 26.6847C136.281 26.9902 136.283 27.2992 136.28 27.6028C136.279 27.6764 136.264 27.749 136.235 27.8167C136.206 27.8843 136.164 27.9455 136.111 27.9969C136.058 28.0483 135.996 28.0888 135.928 28.1161C135.859 28.1434 135.786 28.157 135.713 28.1561C135.683 28.1556 135.653 28.1528 135.624 28.1477Z" fill="#91B3FA"/>
<path d="M110.128 49.3851C109.874 49.3416 109.62 49.2934 109.366 49.2404C109.222 49.2087 109.096 49.1215 109.016 48.9977C108.936 48.874 108.908 48.7237 108.938 48.5794C108.968 48.4351 109.054 48.3084 109.176 48.2268C109.299 48.1453 109.449 48.1154 109.594 48.1437C110.182 48.2653 110.771 48.3634 111.355 48.435C111.503 48.4531 111.637 48.529 111.728 48.646C111.82 48.763 111.861 48.9115 111.843 49.0589C111.825 49.2063 111.749 49.3405 111.632 49.4319C111.515 49.5233 111.366 49.5645 111.219 49.5464C110.857 49.5023 110.49 49.4479 110.128 49.3851ZM106.52 48.4424C106.489 48.4372 106.458 48.4292 106.428 48.4184C105.839 48.2099 105.251 47.974 104.685 47.7175C104.618 47.6872 104.557 47.644 104.507 47.5904C104.457 47.5368 104.418 47.4739 104.392 47.4051C104.339 47.2662 104.344 47.1122 104.405 46.9769C104.466 46.8416 104.579 46.7361 104.718 46.6837C104.857 46.6313 105.011 46.6362 105.146 46.6973C105.685 46.9426 106.242 47.1647 106.802 47.3634C106.934 47.4102 107.043 47.5049 107.109 47.6287C107.175 47.7526 107.192 47.8965 107.156 48.0321C107.121 48.1677 107.036 48.2851 106.918 48.3611C106.8 48.437 106.658 48.4661 106.52 48.4424ZM114.162 49.7019C114.024 49.6786 113.9 49.6045 113.814 49.4943C113.728 49.384 113.686 49.2455 113.697 49.106C113.709 48.9666 113.771 48.8364 113.874 48.741C113.976 48.6456 114.11 48.5919 114.25 48.5905C114.841 48.5817 115.44 48.5474 116.031 48.4885C116.105 48.4791 116.18 48.4848 116.252 48.505C116.324 48.5252 116.392 48.5597 116.45 48.6063C116.509 48.6529 116.557 48.7108 116.593 48.7765C116.629 48.8422 116.651 48.9144 116.658 48.9888C116.666 49.0632 116.658 49.1384 116.636 49.2098C116.614 49.2813 116.578 49.3476 116.53 49.4048C116.481 49.462 116.422 49.509 116.356 49.5431C116.289 49.5771 116.216 49.5974 116.142 49.6029C115.52 49.6646 114.889 49.7009 114.267 49.7103C114.232 49.7107 114.197 49.7079 114.162 49.7019ZM102.199 46.351C102.127 46.3383 102.058 46.3118 101.997 46.2731C101.468 45.9405 100.948 45.581 100.45 45.2053C100.391 45.161 100.342 45.1056 100.305 45.0423C100.268 44.9789 100.243 44.9088 100.233 44.836C100.223 44.7632 100.227 44.6891 100.245 44.618C100.264 44.5468 100.296 44.48 100.34 44.4213C100.385 44.3626 100.44 44.3132 100.504 44.276C100.567 44.2387 100.637 44.2143 100.71 44.2041C100.783 44.1939 100.857 44.1982 100.928 44.2166C100.999 44.2351 101.066 44.2674 101.125 44.3117C101.597 44.6687 102.091 45.0096 102.593 45.3255C102.702 45.3947 102.784 45.4995 102.825 45.6223C102.866 45.745 102.863 45.878 102.816 45.9988C102.77 46.1196 102.684 46.2206 102.571 46.2848C102.459 46.349 102.328 46.3724 102.201 46.351H102.199ZM118.919 49.0977C118.792 49.0756 118.677 49.0105 118.593 48.9133C118.508 48.8161 118.46 48.6928 118.455 48.5641C118.451 48.4354 118.491 48.3092 118.569 48.2068C118.647 48.1043 118.758 48.0318 118.883 48.0015C119.458 47.8632 120.035 47.6979 120.6 47.511C120.67 47.4878 120.743 47.4786 120.817 47.4839C120.89 47.4891 120.962 47.5088 121.027 47.5417C121.093 47.5747 121.152 47.6202 121.2 47.6758C121.248 47.7313 121.285 47.7959 121.308 47.8656C121.331 47.9354 121.34 48.009 121.335 48.0823C121.33 48.1556 121.31 48.2272 121.277 48.2929C121.244 48.3586 121.199 48.4172 121.143 48.4654C121.087 48.5135 121.023 48.5502 120.953 48.5734C120.36 48.7695 119.753 48.9446 119.148 49.0903C119.073 49.1086 118.995 49.1111 118.92 49.0977H118.919ZM123.432 47.4659C123.315 47.4456 123.208 47.3891 123.126 47.3043C123.043 47.2196 122.99 47.111 122.973 46.994C122.956 46.8771 122.977 46.7578 123.032 46.6532C123.087 46.5487 123.174 46.4642 123.279 46.4119C123.812 46.15 124.339 45.863 124.849 45.5584C124.976 45.482 125.129 45.4593 125.273 45.4953C125.417 45.5312 125.541 45.6229 125.617 45.7502C125.693 45.8775 125.716 46.0299 125.68 46.174C125.644 46.318 125.553 46.4419 125.425 46.5183C124.891 46.8391 124.336 47.1412 123.776 47.4163C123.67 47.47 123.549 47.488 123.432 47.4678L123.432 47.4659ZM127.48 44.8894C127.374 44.8711 127.275 44.8225 127.196 44.7494C127.116 44.6763 127.06 44.5819 127.033 44.4776C127.006 44.3732 127.01 44.2633 127.044 44.161C127.078 44.0588 127.141 43.9685 127.225 43.9012C127.688 43.5294 128.14 43.1346 128.569 42.727C128.622 42.6754 128.685 42.6349 128.754 42.6077C128.823 42.5806 128.896 42.5674 128.97 42.5689C129.044 42.5703 129.117 42.5865 129.185 42.6163C129.253 42.6462 129.314 42.6892 129.365 42.7428C129.416 42.7965 129.456 42.8597 129.482 42.9288C129.508 42.998 129.521 43.0717 129.518 43.1457C129.516 43.2196 129.499 43.2924 129.469 43.3598C129.438 43.4272 129.394 43.4878 129.34 43.5382C128.889 43.9674 128.413 44.3833 127.926 44.7742C127.864 44.8246 127.792 44.8611 127.715 44.8813C127.638 44.9016 127.557 44.905 127.479 44.8914L127.48 44.8894ZM130.87 41.4915C130.774 41.475 130.684 41.4338 130.609 41.372C130.534 41.3102 130.476 41.2298 130.441 41.1389C130.407 41.048 130.396 40.9496 130.411 40.8534C130.426 40.7572 130.466 40.6666 130.527 40.5905C130.897 40.127 131.252 39.6429 131.58 39.1505C131.621 39.0893 131.673 39.0367 131.735 38.9958C131.796 38.9549 131.864 38.9265 131.937 38.9121C132.009 38.8977 132.083 38.8976 132.155 38.912C132.227 38.9263 132.296 38.9547 132.357 38.9955C132.418 39.0363 132.471 39.0888 132.512 39.15C132.553 39.2111 132.581 39.2797 132.595 39.3518C132.61 39.424 132.61 39.4983 132.596 39.5704C132.581 39.6426 132.553 39.7112 132.512 39.7724C132.166 40.2913 131.793 40.8024 131.403 41.2894C131.34 41.3687 131.258 41.4296 131.164 41.4659C131.07 41.5022 130.968 41.5123 130.869 41.4954L130.87 41.4915ZM133.432 37.4309C133.347 37.4161 133.266 37.3816 133.196 37.3302C133.126 37.2789 133.069 37.2119 133.029 37.1347C132.99 37.0576 132.969 36.9722 132.968 36.8855C132.967 36.7987 132.986 36.7129 133.024 36.6349C133.282 36.1022 133.52 35.5519 133.733 34.9987C133.76 34.93 133.799 34.8673 133.85 34.814C133.901 34.7606 133.961 34.7178 134.028 34.688C134.096 34.6581 134.168 34.6417 134.241 34.6398C134.315 34.6379 134.388 34.6505 134.457 34.6769C134.525 34.7033 134.588 34.7429 134.641 34.7936C134.695 34.8442 134.738 34.9048 134.767 34.972C134.797 35.0392 134.814 35.1116 134.816 35.1851C134.817 35.2586 134.805 35.3317 134.778 35.4004C134.554 35.983 134.303 36.5628 134.031 37.1234C133.978 37.2331 133.891 37.3227 133.783 37.3785C133.675 37.4343 133.551 37.4534 133.431 37.4329L133.432 37.4309ZM135.038 32.9098C135.027 32.9078 135.016 32.9053 135.005 32.9024C134.933 32.8855 134.866 32.8547 134.806 32.8117C134.746 32.7687 134.696 32.7144 134.657 32.6518C134.619 32.5893 134.593 32.5198 134.581 32.4472C134.569 32.3747 134.572 32.3005 134.589 32.229C134.687 31.8042 134.778 31.3716 134.852 30.942C134.879 30.787 134.904 30.6315 134.927 30.4765C134.938 30.4038 134.963 30.3338 135.001 30.2708C135.039 30.2077 135.089 30.1528 135.148 30.1091C135.208 30.0654 135.275 30.0338 135.346 30.0162C135.418 29.9985 135.492 29.9951 135.565 30.0062C135.638 30.0163 135.708 30.0409 135.772 30.0786C135.835 30.1163 135.89 30.1664 135.934 30.2258C135.978 30.2852 136.01 30.3528 136.027 30.4246C136.044 30.4964 136.047 30.5709 136.035 30.6438C136.011 30.8073 135.984 30.9708 135.956 31.1343C135.878 31.586 135.785 32.0411 135.679 32.488C135.647 32.6273 135.562 32.7489 135.443 32.8278C135.323 32.9067 135.178 32.9369 135.037 32.9122L135.038 32.9098Z" fill="#91B3FA"/>
<path d="M98.4353 43.3494C98.322 43.3297 98.2175 43.2756 98.1361 43.1944C97.9212 42.9805 97.7069 42.7579 97.4985 42.5327C97.3977 42.4237 97.3444 42.279 97.3503 42.1307C97.3562 41.9823 97.4208 41.8424 97.5298 41.7416C97.6389 41.6409 97.7835 41.5876 97.9319 41.5935C98.0803 41.5993 98.2202 41.6639 98.321 41.773C98.5172 41.9868 98.7217 42.1982 98.9252 42.4013C99.0096 42.4852 99.065 42.5939 99.0834 42.7115C99.1018 42.829 99.0822 42.9494 99.0276 43.0551C98.9729 43.1608 98.8859 43.2464 98.7793 43.2993C98.6727 43.3522 98.552 43.3697 98.4348 43.3494H98.4353Z" fill="#91B3FA"/>
</g>
<path d="M100.285 37.0812C100.312 37.1287 100.353 37.1666 100.402 37.1898C100.452 37.2129 100.507 37.22 100.561 37.2102L103.693 36.6363C104.713 37.747 105.908 38.684 107.23 39.4104L107.42 42.5872C107.424 42.6415 107.444 42.6936 107.478 42.7359C107.512 42.7783 107.559 42.809 107.611 42.8236L111.29 43.8506C111.342 43.8652 111.398 43.863 111.449 43.8445C111.5 43.8259 111.544 43.7919 111.575 43.7471L113.383 41.128C114.89 41.1913 116.398 41.008 117.846 40.5856L120.229 42.699C120.27 42.7351 120.321 42.7576 120.375 42.7633C120.429 42.769 120.484 42.7577 120.531 42.7309L123.859 40.8553C123.906 40.8286 123.944 40.7877 123.967 40.7384C123.99 40.6891 123.998 40.6338 123.988 40.5802L123.414 37.4475C124.525 36.4274 125.461 35.2329 126.188 33.9113L129.365 33.7205C129.419 33.7173 129.471 33.6973 129.514 33.663C129.556 33.6288 129.587 33.5822 129.601 33.5297L130.628 29.8512C130.643 29.7987 130.64 29.7429 130.622 29.6916C130.603 29.6403 130.569 29.5961 130.524 29.5652L127.905 27.7574C127.969 26.2502 127.787 24.7427 127.366 23.2941L129.479 20.9114C129.515 20.8707 129.537 20.8197 129.543 20.7655C129.549 20.7114 129.538 20.6567 129.511 20.6093L127.635 17.2814C127.608 17.234 127.568 17.1961 127.518 17.173C127.469 17.1499 127.414 17.1427 127.36 17.1525L124.228 17.7268C123.208 16.6159 122.013 15.6789 120.691 14.9527L120.498 11.773C120.494 11.7186 120.474 11.6667 120.44 11.6243C120.406 11.5819 120.359 11.5513 120.307 11.5366L116.628 10.51C116.576 10.4954 116.52 10.4974 116.469 10.516C116.418 10.5345 116.374 10.5687 116.343 10.6135L114.535 13.2326C113.027 13.1695 111.52 13.3525 110.071 13.7746L107.688 11.6631C107.647 11.6271 107.596 11.6046 107.542 11.5988C107.488 11.593 107.433 11.6041 107.386 11.6308L104.058 13.5068C104.011 13.5336 103.973 13.5744 103.95 13.6238C103.927 13.6731 103.919 13.7284 103.929 13.782L104.503 16.9141C103.392 17.9343 102.455 19.1287 101.729 20.4504L98.5522 20.6412C98.4978 20.6444 98.4459 20.6646 98.4035 20.6988C98.3611 20.733 98.3305 20.7795 98.3158 20.832L97.2892 24.5105C97.2746 24.5628 97.2766 24.6185 97.2951 24.6697C97.3135 24.7208 97.3475 24.765 97.3922 24.7959L100.012 26.6043C99.9477 28.1115 100.13 29.619 100.551 31.0675L98.4423 33.4517C98.4061 33.4924 98.3835 33.5434 98.3777 33.5976C98.3719 33.6518 98.3832 33.7064 98.4099 33.7538L100.285 37.0812Z" fill="#91B3FA"/>
<path d="M113.303 30.9636C112.323 30.7943 111.446 30.2516 110.858 29.4495C110.27 28.6474 110.016 27.6485 110.149 26.6628C110.282 25.6771 110.792 24.7815 111.572 24.1643C112.352 23.5471 113.341 23.2563 114.331 23.3533C115.321 23.4502 116.235 23.9272 116.88 24.6839C117.526 25.4407 117.852 26.4183 117.792 27.4111C117.731 28.4038 117.288 29.3345 116.556 30.0073C115.823 30.68 114.858 31.0425 113.864 31.0185C113.676 31.0137 113.488 30.9954 113.303 30.9636ZM114.467 24.28C114.324 24.2553 114.178 24.2411 114.033 24.2373C113.274 24.2196 112.538 24.4966 111.979 25.0103C111.42 25.524 111.082 26.2342 111.036 26.9918C110.99 27.7494 111.24 28.4953 111.732 29.0727C112.225 29.6502 112.922 30.0143 113.677 30.0885C114.433 30.1626 115.187 29.9411 115.783 29.4705C116.378 28.9998 116.768 28.3167 116.87 27.5646C116.973 26.8126 116.779 26.0502 116.331 25.4376C115.883 24.8251 115.215 24.4102 114.467 24.28Z" fill="#BDD0FB"/>
<path d="M112.435 36.4436C112.116 36.3884 111.8 36.3172 111.488 36.2302C111.39 36.2027 111.292 36.1733 111.194 36.1429C110.712 35.9917 110.244 35.8024 109.792 35.5769L109.774 35.5676L109.722 35.5411L109.621 35.4886C109.579 35.4666 109.545 35.4319 109.524 35.3896C109.503 35.3472 109.496 35.2993 109.504 35.2527C109.509 35.2294 109.516 35.2069 109.527 35.186C109.541 35.16 109.559 35.137 109.582 35.1182C109.605 35.0994 109.631 35.0853 109.659 35.0766C109.687 35.0679 109.716 35.0648 109.746 35.0675C109.775 35.0702 109.803 35.0786 109.829 35.0923C111.087 35.7536 112.483 36.1079 113.903 36.1263C115.324 36.1448 116.728 35.8267 118.002 35.1983C119.276 34.5698 120.384 33.6487 121.233 32.5104C122.083 31.372 122.652 30.0487 122.892 28.6485C123.266 26.4551 122.814 24.2008 121.623 22.3212C120.432 20.4416 118.587 19.0702 116.444 18.4718C111.665 17.1387 106.697 19.9408 105.364 24.7169C105.282 25.0106 105.215 25.3082 105.163 25.6086C104.938 26.9064 105.002 28.2376 105.35 29.5078C105.359 29.5366 105.362 29.5669 105.359 29.5969C105.357 29.6269 105.348 29.6559 105.333 29.6824C105.319 29.7088 105.299 29.7321 105.275 29.7508C105.252 29.7695 105.225 29.7832 105.196 29.7912C105.166 29.7991 105.136 29.8011 105.106 29.7971C105.076 29.793 105.048 29.783 105.022 29.7676C104.996 29.7522 104.973 29.7317 104.955 29.7074C104.938 29.683 104.925 29.6554 104.918 29.626C104.469 27.9791 104.474 26.2412 104.932 24.5968C106.332 19.5817 111.551 16.6414 116.564 18.0402C118.814 18.6688 120.751 20.1087 122.001 22.0819C123.251 24.0551 123.725 26.4215 123.333 28.7241C123.277 29.0435 123.206 29.3599 123.119 29.6721C122.491 31.9222 121.05 33.8595 119.077 35.1096C117.103 36.3597 114.736 36.8339 112.434 36.4406L112.435 36.4436Z" fill="#BDD0FB"/>
<g opacity="0.3">
<path d="M70.7231 37.7526C70.6492 37.7402 70.5815 37.7041 70.5302 37.6496C70.4788 37.5951 70.4466 37.5254 70.4386 37.451C70.4052 37.1597 70.3797 36.8624 70.364 36.5682C70.359 36.4766 70.3906 36.3868 70.4518 36.3185C70.513 36.2502 70.5989 36.209 70.6905 36.204C70.782 36.199 70.8718 36.2305 70.9401 36.2918C71.0084 36.353 71.0496 36.4388 71.0546 36.5304C71.0698 36.81 71.0934 37.093 71.1257 37.371C71.1324 37.4246 71.1264 37.4789 71.1081 37.5296C71.0899 37.5804 71.0599 37.6261 71.0207 37.6631C70.9815 37.7002 70.9341 37.7274 70.8824 37.7427C70.8307 37.758 70.7761 37.7609 70.7231 37.7512V37.7526Z" fill="#91B3FA"/>
<path d="M70.6631 35.0932C70.5787 35.0791 70.5026 35.0338 70.4498 34.9664C70.3969 34.899 70.3712 34.8142 70.3777 34.7288C70.4129 34.2225 70.4738 33.7183 70.5601 33.2182C70.5783 33.1137 70.5979 33.0088 70.618 32.9038C70.6383 32.8152 70.6915 32.7377 70.7668 32.6869C70.8421 32.636 70.9339 32.6158 71.0236 32.6301C71.1136 32.6476 71.193 32.7 71.2443 32.776C71.2957 32.852 71.3147 32.9452 71.2973 33.0352C71.2777 33.136 71.2592 33.2363 71.2419 33.3364C71.1594 33.8131 71.1012 34.2938 71.0673 34.7764C71.0642 34.8217 71.0522 34.866 71.0319 34.9067C71.0117 34.9473 70.9837 34.9836 70.9494 35.0135C70.9152 35.0433 70.8754 35.0661 70.8323 35.0805C70.7892 35.095 70.7438 35.1008 70.6984 35.0977L70.6631 35.0932ZM71.3498 31.5692C71.3332 31.5663 71.3168 31.5624 71.3007 31.5575C71.2135 31.5291 71.1411 31.4672 71.0994 31.3854C71.0578 31.3037 71.0503 31.2087 71.0786 31.1214C71.2684 30.5375 71.4937 29.9656 71.7534 29.4092C71.7925 29.3261 71.8629 29.2619 71.9493 29.2307C72.0357 29.1995 72.1309 29.2039 72.214 29.2429C72.2971 29.282 72.3613 29.3524 72.3925 29.4388C72.4237 29.5251 72.4193 29.6204 72.3803 29.7035C72.1324 30.2342 71.9173 30.7797 71.7363 31.3368C71.7103 31.4153 71.6571 31.482 71.5862 31.5247C71.5152 31.5673 71.4314 31.5831 71.3498 31.5692ZM72.8702 28.3169C72.8258 28.3086 72.7834 28.292 72.7452 28.2679C72.6677 28.2188 72.6127 28.1411 72.5924 28.0517C72.5721 27.9622 72.5881 27.8684 72.6368 27.7907C72.9643 27.2709 73.3235 26.7718 73.7124 26.2962C73.7411 26.261 73.7765 26.2319 73.8165 26.2104C73.8565 26.1889 73.9003 26.1755 73.9455 26.1709C73.9907 26.1664 74.0363 26.1708 74.0798 26.1838C74.1233 26.1969 74.1638 26.2184 74.1989 26.2472C74.2341 26.2759 74.2633 26.3113 74.2848 26.3513C74.3062 26.3913 74.3197 26.4351 74.3242 26.4803C74.3288 26.5255 74.3244 26.5711 74.3113 26.6146C74.2982 26.6581 74.2767 26.6985 74.248 26.7337C73.877 27.1873 73.5345 27.6635 73.2224 28.1595C73.1859 28.2177 73.1328 28.2638 73.07 28.2919C73.0072 28.3199 72.9375 28.3286 72.8698 28.3169H72.8702ZM75.1441 25.5375C75.0809 25.527 75.022 25.4992 74.9738 25.457C74.9257 25.4148 74.8903 25.3601 74.8716 25.2989C74.853 25.2377 74.8518 25.1725 74.8682 25.1106C74.8846 25.0488 74.918 24.9928 74.9645 24.9489C75.4094 24.5253 75.8798 24.1294 76.3732 23.7634C76.4097 23.7364 76.4511 23.7168 76.4952 23.7058C76.5392 23.6948 76.585 23.6926 76.6299 23.6993C76.6748 23.706 76.718 23.7215 76.7569 23.7449C76.7958 23.7682 76.8298 23.799 76.8568 23.8355C76.8838 23.872 76.9034 23.9135 76.9144 23.9575C76.9254 24.0016 76.9276 24.0474 76.9209 24.0923C76.9142 24.1372 76.8987 24.1803 76.8753 24.2192C76.852 24.2582 76.8212 24.2921 76.7847 24.3191C76.3144 24.6673 75.8659 25.0441 75.4418 25.4472C75.4027 25.4847 75.3553 25.5124 75.3035 25.5281C75.2517 25.5438 75.1969 25.547 75.1436 25.5375H75.1441ZM78.027 23.397C77.9558 23.3863 77.8898 23.3534 77.8384 23.3031C77.7869 23.2527 77.7525 23.1875 77.7402 23.1165C77.7278 23.0456 77.738 22.9726 77.7695 22.9078C77.8009 22.843 77.8519 22.7897 77.9152 22.7555C78.4493 22.453 79.0013 22.1832 79.5681 21.9477C79.6099 21.9303 79.6548 21.9213 79.7002 21.9212C79.7455 21.9211 79.7904 21.93 79.8324 21.9473C79.8743 21.9646 79.9124 21.9899 79.9445 22.0219C79.9766 22.054 80.0021 22.092 80.0196 22.1338C80.037 22.1757 80.046 22.2206 80.0461 22.2659C80.0461 22.3113 80.0373 22.3562 80.02 22.3981C80.0027 22.4401 79.9773 22.4782 79.9453 22.5103C79.9133 22.5424 79.8753 22.5679 79.8334 22.5853C79.2924 22.81 78.7657 23.0674 78.2561 23.3563C78.1868 23.3961 78.1058 23.4105 78.027 23.397ZM81.3416 22.0237C81.2624 22.0128 81.1894 21.9745 81.1354 21.9155C81.0814 21.8565 81.0496 21.7805 81.0457 21.7006C81.0417 21.6207 81.0658 21.5419 81.1137 21.4779C81.1617 21.4138 81.2305 21.3685 81.3083 21.3498C81.8998 21.186 82.501 21.0591 83.1083 20.9697C83.1534 20.9633 83.1993 20.9658 83.2434 20.9771C83.2875 20.9884 83.329 21.0083 83.3654 21.0356C83.4018 21.0629 83.4326 21.0972 83.4558 21.1363C83.479 21.1755 83.4942 21.2189 83.5007 21.264C83.5071 21.3091 83.5046 21.355 83.4933 21.3991C83.482 21.4432 83.4621 21.4847 83.4348 21.5211C83.4075 21.5576 83.3732 21.5883 83.334 21.6115C83.2948 21.6347 83.2515 21.6499 83.2064 21.6564C82.6272 21.7416 82.0539 21.8626 81.4897 22.0188C81.4413 22.0312 81.3908 22.0329 81.3416 22.0237ZM84.8911 21.5014C84.8001 21.4946 84.7155 21.4518 84.6559 21.3826C84.5964 21.3134 84.5667 21.2234 84.5736 21.1323C84.5804 21.0413 84.6231 20.9566 84.6923 20.8971C84.7615 20.8375 84.8516 20.8079 84.9426 20.8147C85.5566 20.8014 86.1709 20.8258 86.7819 20.8878C86.8687 20.9022 86.9468 20.9491 87.0002 21.019C87.0537 21.0889 87.0784 21.1766 87.0695 21.2641C87.0605 21.3516 87.0186 21.4325 86.9521 21.4901C86.8856 21.5478 86.7997 21.578 86.7118 21.5745C86.1291 21.5151 85.5434 21.4917 84.9578 21.5043C84.9355 21.5054 84.9132 21.5043 84.8911 21.5009V21.5014ZM90.1882 22.3725C90.1679 22.3693 90.148 22.364 90.1288 22.3568C89.6498 22.1837 89.1619 22.0364 88.6672 21.9153C88.5922 21.8967 88.5201 21.879 88.4441 21.8624C88.3547 21.8419 88.2771 21.7868 88.2283 21.7092C88.1795 21.6316 88.1634 21.5378 88.1837 21.4484C88.1934 21.404 88.2118 21.3619 88.238 21.3247C88.2641 21.2874 88.2973 21.2558 88.3358 21.2315C88.3743 21.2072 88.4172 21.1908 88.462 21.1833C88.5069 21.1757 88.5528 21.1771 88.5971 21.1875C88.6761 21.2056 88.7546 21.2243 88.833 21.2439C89.3513 21.3708 89.8624 21.5252 90.3643 21.7064C90.4525 21.7298 90.5279 21.7872 90.5738 21.8661C90.6197 21.945 90.6324 22.039 90.609 22.1272C90.5857 22.2155 90.5282 22.2909 90.4493 22.3367C90.3704 22.3826 90.2765 22.3953 90.1882 22.372V22.3725Z" fill="#91B3FA"/>
</g>
<g opacity="0.3">
<path d="M82.9357 50.4985C82.8909 50.491 82.848 50.4748 82.8095 50.4508C82.771 50.4268 82.7375 50.3954 82.7111 50.3585C82.6847 50.3216 82.6658 50.2798 82.6555 50.2356C82.6453 50.1913 82.6438 50.1455 82.6513 50.1007C82.6587 50.0559 82.6749 50.013 82.6989 49.9745C82.7229 49.9359 82.7543 49.9025 82.7912 49.8761C82.8282 49.8497 82.8699 49.8308 82.9142 49.8205C82.9584 49.8103 83.0042 49.8088 83.049 49.8162C83.6173 49.9069 84.1906 49.9631 84.7657 49.9845C84.8111 49.9861 84.8557 49.9967 84.897 50.0157C84.9383 50.0346 84.9755 50.0615 85.0064 50.0948C85.0374 50.1281 85.0614 50.1671 85.0773 50.2097C85.0931 50.2523 85.1004 50.2976 85.0987 50.343C85.097 50.3884 85.0864 50.433 85.0675 50.4743C85.0486 50.5157 85.0217 50.5528 84.9884 50.5838C84.9551 50.6147 84.916 50.6388 84.8735 50.6546C84.8309 50.6704 84.7856 50.6777 84.7402 50.676C84.1366 50.6533 83.5351 50.5941 82.9387 50.499L82.9357 50.4985ZM81.2083 50.1149C81.1961 50.1129 81.1839 50.1101 81.172 50.1066C80.5911 49.9408 80.0206 49.7403 79.4637 49.5063C79.3792 49.4707 79.3122 49.403 79.2776 49.318C79.2429 49.2331 79.2435 49.1379 79.279 49.0533C79.3146 48.9688 79.3823 48.9018 79.4673 48.8672C79.5522 48.8325 79.6474 48.8331 79.732 48.8686C80.2634 49.092 80.8076 49.2835 81.3618 49.442C81.4511 49.4624 81.5285 49.5173 81.5772 49.5948C81.626 49.6723 81.6419 49.766 81.6215 49.8552C81.6012 49.9445 81.5462 50.022 81.4687 50.0707C81.3912 50.1194 81.2975 50.1353 81.2083 50.1149ZM86.4637 50.6284C86.3726 50.6245 86.2868 50.5846 86.2252 50.5175C86.1636 50.4503 86.1312 50.3615 86.1351 50.2704C86.139 50.1794 86.1789 50.0936 86.246 50.0319C86.3132 49.9703 86.402 49.9379 86.4931 49.9418C87.0673 49.8923 87.6379 49.8081 88.2019 49.6897C88.2916 49.6709 88.3852 49.6885 88.4619 49.7387C88.5387 49.7889 88.5924 49.8675 88.6112 49.9572C88.63 50.047 88.6124 50.1405 88.5622 50.2173C88.512 50.2941 88.4334 50.3477 88.3436 50.3665C87.7524 50.4906 87.1543 50.5789 86.5524 50.6309C86.5229 50.6338 86.493 50.633 86.4637 50.6284ZM77.9531 48.7431C77.9134 48.7362 77.8752 48.7224 77.8403 48.7024C77.316 48.4013 76.8105 48.0687 76.3267 47.7062C76.2903 47.679 76.2597 47.6449 76.2366 47.6058C76.2135 47.5667 76.1983 47.5235 76.1918 47.4785C76.1854 47.4336 76.1879 47.3878 76.1992 47.3438C76.2104 47.2998 76.2303 47.2585 76.2575 47.2221C76.2848 47.1858 76.3189 47.1552 76.358 47.1321C76.397 47.1089 76.4403 47.0937 76.4852 47.0873C76.5302 47.0809 76.576 47.0834 76.62 47.0946C76.6639 47.1059 76.7053 47.1257 76.7416 47.153C77.2027 47.4985 77.6844 47.8156 78.1841 48.1025C78.2582 48.1407 78.316 48.2045 78.3465 48.2822C78.377 48.3598 78.3782 48.4458 78.3499 48.5243C78.3216 48.6027 78.2658 48.6682 78.1927 48.7085C78.1197 48.7487 78.0345 48.761 77.9531 48.7431ZM89.9205 49.9021C89.8432 49.8911 89.772 49.8542 89.7185 49.7973C89.6651 49.7404 89.6326 49.6671 89.6264 49.5893C89.6203 49.5115 89.6408 49.4339 89.6846 49.3693C89.7284 49.3048 89.7929 49.257 89.8675 49.234C90.4127 49.0479 90.9461 48.8291 91.465 48.5788C91.5476 48.5389 91.6426 48.5335 91.7292 48.5637C91.8158 48.5939 91.8869 48.6573 91.9268 48.7399C91.9666 48.8225 91.972 48.9176 91.9418 49.0042C91.9116 49.0908 91.8482 49.1618 91.7656 49.2017C91.2216 49.4639 90.6623 49.6932 90.0907 49.8883C90.0353 49.9072 89.9762 49.912 89.9185 49.9021H89.9205ZM93.1002 48.3679C93.0307 48.3572 92.9662 48.3255 92.9153 48.277C92.8644 48.2285 92.8297 48.1656 92.8157 48.0967C92.8017 48.0278 92.8093 47.9563 92.8372 47.8918C92.8652 47.8273 92.9123 47.773 92.9722 47.7362C93.457 47.4246 93.9228 47.0845 94.3671 46.7175C94.4021 46.6885 94.4424 46.6667 94.4858 46.6533C94.5292 46.6399 94.5748 46.6352 94.62 46.6394C94.6653 46.6436 94.7092 46.6567 94.7494 46.6779C94.7895 46.6992 94.8251 46.7281 94.8541 46.7631C94.8831 46.798 94.9049 46.8384 94.9183 46.8818C94.9317 46.9252 94.9364 46.9708 94.9322 47.016C94.9279 47.0613 94.9148 47.1052 94.8936 47.1454C94.8724 47.1855 94.8435 47.2211 94.8085 47.2501C94.3429 47.6351 93.8547 47.9918 93.3464 48.3183C93.273 48.3659 93.1843 48.3836 93.0982 48.3679H93.1002ZM95.8213 46.1161C95.7598 46.1053 95.7023 46.078 95.655 46.0371C95.6077 45.9963 95.5723 45.9434 95.5526 45.884C95.533 45.8247 95.5297 45.7611 95.5433 45.7001C95.5568 45.6391 95.5866 45.5828 95.6295 45.5374C96.026 45.119 96.3966 44.6768 96.739 44.2131C96.7936 44.1394 96.8752 44.0903 96.9659 44.0767C97.0567 44.0632 97.1491 44.0862 97.2228 44.1408C97.2966 44.1953 97.3456 44.277 97.3592 44.3677C97.3728 44.4585 97.3498 44.5509 97.2952 44.6246C96.9357 45.1104 96.547 45.5739 96.1313 46.0126C96.0918 46.0545 96.0426 46.0859 95.9879 46.104C95.9333 46.1221 95.875 46.1262 95.8184 46.1161H95.8213Z" fill="#91B3FA"/>
<path d="M75.1149 46.614C75.0468 46.6021 74.9838 46.5702 74.9339 46.5223C74.7211 46.3173 74.5126 46.1049 74.3154 45.891C74.2846 45.8577 74.2607 45.8186 74.245 45.776C74.2293 45.7333 74.2221 45.688 74.2239 45.6427C74.2257 45.5973 74.2364 45.5527 74.2555 45.5114C74.2745 45.4702 74.3015 45.4331 74.3348 45.4023C74.3682 45.3715 74.4073 45.3475 74.4499 45.3318C74.4925 45.3161 74.5378 45.309 74.5832 45.3108C74.6286 45.3126 74.6732 45.3233 74.7144 45.3423C74.7557 45.3613 74.7927 45.3883 74.8236 45.4217C75.0114 45.6257 75.2101 45.8283 75.4121 46.024C75.4649 46.0754 75.4998 46.1423 75.5119 46.215C75.5239 46.2877 75.5124 46.3623 75.4791 46.428C75.4457 46.4937 75.3923 46.547 75.3265 46.5802C75.2607 46.6134 75.1861 46.6247 75.1134 46.6125L75.1149 46.614Z" fill="#91B3FA"/>
</g>
<path d="M76.159 42.261C76.1767 42.2929 76.204 42.3183 76.237 42.3338C76.27 42.3493 76.3071 42.354 76.3429 42.3474L78.4391 41.9633C79.1216 42.7067 79.9208 43.3337 80.8052 43.8197L80.9327 45.9454C80.9349 45.9818 80.9485 46.0166 80.9714 46.0449C80.9944 46.0732 81.0256 46.0936 81.0607 46.1034L83.5224 46.79C83.5575 46.7999 83.5948 46.7986 83.6291 46.7862C83.6634 46.7738 83.693 46.7509 83.7136 46.7209L84.9236 44.9684C85.9319 45.0106 86.9403 44.888 87.9091 44.6055L89.5036 46.0195C89.5309 46.0437 89.565 46.0588 89.6012 46.0627C89.6375 46.0666 89.674 46.059 89.7057 46.0411L91.9324 44.786C91.9642 44.7681 91.9896 44.7408 92.0051 44.7078C92.0206 44.6749 92.0254 44.6379 92.0188 44.602L91.6347 42.5058C92.3782 41.8232 93.0052 41.0239 93.4911 40.1393L95.6168 40.0117C95.6532 40.0096 95.6879 39.9962 95.7162 39.9733C95.7446 39.9504 95.765 39.9193 95.7748 39.8842L96.4614 37.4221C96.4713 37.387 96.47 37.3496 96.4576 37.3153C96.4452 37.281 96.4223 37.2515 96.3923 37.2308L94.6413 36.0218C94.6835 35.0133 94.5609 34.0048 94.2783 33.0358L95.6924 31.4413C95.7166 31.4141 95.7317 31.38 95.7356 31.3437C95.7394 31.3075 95.7319 31.2709 95.714 31.2392L94.4588 29.0125C94.4409 28.9809 94.4135 28.9556 94.3806 28.9401C94.3477 28.9247 94.3107 28.9198 94.2749 28.9262L92.1786 29.3107C91.4961 28.5672 90.6967 27.9402 89.8121 27.4543L89.6846 25.3281C89.6824 25.2918 89.6689 25.2571 89.6461 25.2288C89.6232 25.2005 89.5921 25.18 89.5571 25.1702L87.0949 24.4835C87.0598 24.4738 87.0225 24.4752 86.9883 24.4876C86.954 24.5 86.9244 24.5227 86.9037 24.5527L85.6942 26.3056C84.6858 26.2633 83.6772 26.3857 82.7082 26.6681L81.1142 25.254C81.0868 25.23 81.0526 25.215 81.0163 25.2111C80.98 25.2072 80.9435 25.2147 80.9116 25.2325L78.6849 26.4881C78.6532 26.506 78.6279 26.5333 78.6124 26.5663C78.597 26.5992 78.5921 26.6362 78.5986 26.672L78.9826 28.7682C78.2395 29.4509 77.6127 30.25 77.1267 31.1343L75.0005 31.2618C74.9641 31.2641 74.9294 31.2777 74.9011 31.3006C74.8728 31.3235 74.8523 31.3547 74.8425 31.3898L74.1559 33.8515C74.1461 33.8866 74.1474 33.9239 74.1598 33.9582C74.1722 33.9925 74.195 34.022 74.225 34.0427L75.978 35.2527C75.9356 36.261 76.0581 37.2694 76.3404 38.2382L74.9245 39.8322C74.9004 39.8595 74.8853 39.8936 74.8815 39.9298C74.8776 39.966 74.8851 40.0025 74.9029 40.0343L76.159 42.261Z" fill="#91B3FA"/>
<path d="M84.8574 38.2136C84.1882 38.0977 83.59 37.7268 83.1886 37.179C82.7872 36.6312 82.6139 35.949 82.705 35.276C82.7961 34.603 83.1447 33.9916 83.6773 33.5702C84.2099 33.1488 84.8852 32.9504 85.5611 33.0166C86.237 33.0828 86.861 33.4085 87.3017 33.9253C87.7424 34.442 87.9657 35.1095 87.9245 35.7874C87.8832 36.4653 87.5808 37.1008 87.0807 37.5603C86.5806 38.0198 85.9219 38.2675 85.2429 38.2514C85.1137 38.248 84.9848 38.2354 84.8574 38.2136ZM85.6372 33.7411C85.5442 33.7252 85.4501 33.7159 85.3557 33.7131C84.8455 33.7005 84.3512 33.891 83.9816 34.2429C83.6119 34.5947 83.3971 35.079 83.3845 35.5891C83.3719 36.0993 83.5625 36.5936 83.9143 36.9633C84.2661 37.3329 84.7504 37.5477 85.2606 37.5603C85.7462 37.5724 86.2185 37.4002 86.5825 37.0784C86.9465 36.7567 87.1753 36.3091 87.223 35.8257C87.2707 35.3422 87.1337 34.8586 86.8396 34.4719C86.5454 34.0852 86.1159 33.8241 85.6372 33.7411Z" fill="#BDD0FB"/>
<path d="M84.2488 42.0261C83.5932 41.9128 82.9586 41.7004 82.3669 41.3963L82.3139 41.3688C82.2327 41.3262 82.1719 41.253 82.1446 41.1654C82.1174 41.0779 82.1261 40.9831 82.1687 40.9019C82.2114 40.8207 82.2846 40.7598 82.3721 40.7326C82.4597 40.7054 82.5545 40.7141 82.6357 40.7567C83.0025 40.9496 83.3889 41.1029 83.7883 41.2138L83.854 41.232C84.786 41.4839 85.7663 41.4977 86.7051 41.2722C87.2154 41.149 87.7068 40.9579 88.1662 40.7038L88.1775 40.6979L88.2123 40.6783C88.8791 40.3041 89.4651 39.8016 89.9365 39.1997C90.4079 38.5977 90.7554 37.9084 90.9589 37.1714C91.0129 36.9772 91.0567 36.7823 91.0904 36.5868C91.2368 35.7278 91.1885 34.8468 90.949 34.009C90.7096 33.1711 90.2852 32.3977 89.707 31.7457C89.1289 31.0937 88.4118 30.5798 87.6086 30.2419C86.8054 29.904 85.9365 29.7507 85.0662 29.7933C84.1958 29.8359 83.3461 30.0733 82.5798 30.488C81.8134 30.9027 81.1499 31.4842 80.6381 32.1895C80.1264 32.8948 79.7795 33.706 79.623 34.5632C79.4666 35.4204 79.5045 36.3019 79.7341 37.1425C79.7461 37.1863 79.7493 37.232 79.7437 37.2771C79.738 37.3221 79.7235 37.3656 79.701 37.4051C79.6786 37.4446 79.6485 37.4792 79.6127 37.5071C79.5768 37.5349 79.5358 37.5554 79.492 37.5675C79.4482 37.5795 79.4025 37.5827 79.3574 37.5771C79.3124 37.5714 79.2689 37.5569 79.2294 37.5345C79.1899 37.512 79.1553 37.4819 79.1274 37.4461C79.0996 37.4102 79.079 37.3692 79.067 37.3254C78.8151 36.4054 78.7687 35.4412 78.9312 34.5013C78.9689 34.2845 79.0175 34.0687 79.0783 33.8558C79.5267 32.2473 80.5757 30.8724 82.0088 30.0151C83.4418 29.1578 85.1493 28.8836 86.7787 29.249C88.4081 29.6145 89.8348 30.5918 90.7644 31.9791C91.6939 33.3663 92.0552 35.0575 91.7736 36.7035C91.7358 36.9218 91.6868 37.14 91.6265 37.3568C90.7215 40.6017 87.4992 42.5876 84.2488 42.0261Z" fill="#BDD0FB"/>
<path d="M8.311 118.425C8.31269 118.918 8.50968 119.391 8.85893 119.74C9.20817 120.089 9.68127 120.285 10.1748 120.286H110.917C111.41 120.285 111.883 120.088 112.233 119.74C112.582 119.391 112.779 118.918 112.781 118.425L113.619 60.5319C113.619 59.5083 112.413 57.5102 110.202 57.6602L11.7448 55.1127C11.1089 55.096 10.4763 55.2086 9.88535 55.4437C9.29436 55.6788 8.75731 56.0316 8.3068 56.4806C7.85629 56.9296 7.50172 57.4654 7.26459 58.0556C7.02747 58.6458 6.91275 59.2781 6.92739 59.9139L8.311 118.425Z" fill="url(#paint14_linear_298_3901)"/>
<path d="M10.1503 116.639C10.1513 117.106 10.3373 117.554 10.6676 117.884C10.9979 118.214 11.4455 118.4 11.9125 118.401H108.486C108.953 118.4 109.401 118.214 109.731 117.884C110.061 117.553 110.247 117.105 110.248 116.638L111.039 64.0829C110.946 60.9199 108.173 59.7835 106.493 59.8507L12.1318 57.3199C11.6848 57.3082 11.2401 57.3874 10.8248 57.5529C10.4094 57.7183 10.032 57.9665 9.71551 58.2822C9.399 58.598 9.14998 58.9748 8.98358 59.3898C8.81718 59.8048 8.73686 60.2493 8.74752 60.6962L10.1503 116.639Z" fill="url(#paint15_linear_298_3901)"/>
<path d="M109.204 91.6703H109.2C109.166 91.6698 109.133 91.6626 109.101 91.6492C109.07 91.6357 109.042 91.6162 109.018 91.5919C108.995 91.5675 108.976 91.5387 108.964 91.5071C108.951 91.4756 108.945 91.4419 108.945 91.4079L109.008 87.1458C109.009 87.0779 109.037 87.0132 109.085 86.9655C109.133 86.9179 109.198 86.8912 109.266 86.8912H109.269C109.303 86.8916 109.336 86.8987 109.368 86.9121C109.399 86.9255 109.427 86.9449 109.451 86.9693C109.475 86.9937 109.493 87.0225 109.506 87.0542C109.519 87.0858 109.525 87.1196 109.524 87.1536L109.462 91.4158C109.461 91.4836 109.433 91.5483 109.385 91.596C109.337 91.6436 109.272 91.6703 109.204 91.6703Z" fill="#7D97F4"/>
<path d="M109.355 81.2273C109.321 81.2268 109.288 81.2197 109.257 81.2062C109.226 81.1928 109.197 81.1733 109.174 81.1489C109.15 81.1245 109.131 81.0957 109.119 81.0641C109.106 81.0326 109.1 80.9988 109.101 80.9648L109.34 64.6406C109.336 63.6709 109.042 62.897 108.466 62.3447C107.39 61.3147 105.683 61.3672 105.611 61.3706L75.4518 60.5619C75.4179 60.561 75.3844 60.5535 75.3534 60.5397C75.3224 60.526 75.2944 60.5062 75.271 60.4816C75.2476 60.457 75.2294 60.4281 75.2172 60.3964C75.205 60.3647 75.1993 60.3309 75.2002 60.297C75.1992 60.2625 75.2056 60.2283 75.2188 60.1964C75.2319 60.1646 75.2517 60.1359 75.2767 60.1122C75.3018 60.0885 75.3315 60.0703 75.3641 60.0589C75.3966 60.0475 75.4312 60.043 75.4655 60.0459L105.607 60.8547C105.795 60.8434 107.612 60.812 108.823 61.9719C109.504 62.6243 109.853 63.5233 109.857 64.6435L109.617 80.9727C109.617 81.0066 109.61 81.0401 109.596 81.0713C109.583 81.1024 109.563 81.1307 109.539 81.1543C109.515 81.1779 109.486 81.1966 109.455 81.2091C109.423 81.2216 109.389 81.2278 109.355 81.2273Z" fill="#7D97F4"/>
<path d="M0.415543 125.092L118.63 125.092C118.783 125.092 118.907 124.968 118.907 124.815V120.282C118.907 120.129 118.783 120.005 118.63 120.005L0.415543 120.005C0.262497 120.005 0.138435 120.129 0.138435 120.282V124.815C0.138435 124.968 0.262497 125.092 0.415543 125.092Z" fill="url(#paint16_linear_298_3901)"/>
<path d="M18.1309 75.451V77.587H49.3158V75.451H18.1309Z" fill="#7D97F4"/>
<path d="M17.9836 61.175V63.3109H49.1686V61.175H17.9836Z" fill="#7D97F4"/>
<path d="M26.7751 64.8294V66.9654H49.2617V64.8294H26.7751Z" fill="#7D97F4"/>
<path d="M22.0166 64.6587V66.7947H25.2527V64.6587H22.0166Z" fill="#7D97F4"/>
<path d="M26.7533 68.4V70.536H49.2398V68.4H26.7533Z" fill="#7D97F4"/>
<path d="M22.0007 68.2289V70.3649H25.2368V68.2289H22.0007Z" fill="#7D97F4"/>
<path d="M26.6703 71.9648V74.1008H49.1568V71.9648H26.6703Z" fill="#7D97F4"/>
<path d="M21.8082 71.7936V73.9296H25.0443V71.7936H21.8082Z" fill="#7D97F4"/>
<path d="M17.9827 90.3146V92.4506H49.1676V90.3146H17.9827Z" fill="#7D97F4"/>
<path d="M26.6281 79.6936V81.8296H49.1146V79.6936H26.6281Z" fill="#7D97F4"/>
<path d="M21.8685 79.5219V81.6579H25.1046V79.5219H21.8685Z" fill="#7D97F4"/>
<path d="M26.6056 83.2637V85.3997H49.0921V83.2637H26.6056Z" fill="#7D97F4"/>
<path d="M21.8528 83.0925V85.2285H25.0889V83.0925H21.8528Z" fill="#7D97F4"/>
<path d="M26.5231 86.8284V88.9644H49.0096V86.8284H26.5231Z" fill="#7D97F4"/>
<path d="M21.6602 86.6567V88.7927H24.8963V86.6567H21.6602Z" fill="#7D97F4"/>
<path d="M17.9832 105.159V107.295H49.1681V105.159H17.9832Z" fill="#7D97F4"/>
<path d="M26.6281 94.5376V96.6736H49.1146V94.5376H26.6281Z" fill="#7D97F4"/>
<path d="M21.8685 94.3659V96.5019H25.1046V94.3659H21.8685Z" fill="#7D97F4"/>
<path d="M26.6051 98.1082V100.244H49.0916V98.1082H26.6051Z" fill="#7D97F4"/>
<path d="M21.8523 97.937V100.073H25.0884V97.937H21.8523Z" fill="#7D97F4"/>
<path d="M26.5227 101.672V103.808H49.0092V101.672H26.5227Z" fill="#7D97F4"/>
<path d="M21.6602 101.501V103.637H24.8963V101.501H21.6602Z" fill="#7D97F4"/>
<path d="M26.7759 109.03V111.166H49.2624V109.03H26.7759Z" fill="#7D97F4"/>
<path d="M22.0166 108.86V110.996H25.2527V108.86H22.0166Z" fill="#7D97F4"/>
<path d="M26.5978 112.601V114.737H49.0843V112.601H26.5978Z" fill="#7D97F4"/>
<path d="M21.845 112.43V114.566H25.0811V112.43H21.845Z" fill="#7D97F4"/>
<path d="M73.0107 102.037V104.202H95.4575V102.037H73.0107Z" fill="#7D97F4"/>
<path d="M63.8798 98.4192V100.584H100.299V98.4192H63.8798Z" fill="#7D97F4"/>
<path d="M75.5264 94.8054V96.9703H104.72V94.8054H75.5264Z" fill="#7D97F4"/>
<path d="M75.5269 91.1887V93.3541H92.1739V91.1887H75.5269Z" fill="#7D97F4"/>
<path d="M75.9132 87.5675V89.7325H105.07V87.5675H75.9132Z" fill="#7D97F4"/>
<path d="M73.3044 83.9538V86.1187H97.9426V83.9538H73.3044Z" fill="#7D97F4"/>
<path d="M63.8806 80.3297V82.4947H90.1864V80.3297H63.8806Z" fill="#7D97F4"/>
<path d="M75.6224 76.714V78.8794H105.635V76.714H75.6224Z" fill="#7D97F4"/>
<path d="M75.6229 73.0968V75.2617H106.008V73.0968H75.6229Z" fill="#7D97F4"/>
<path d="M75.9132 69.4791V71.644H105.847V69.4791H75.9132Z" fill="#7D97F4"/>
<path d="M70.4951 65.8614V68.0263H95.0166V65.8614H70.4951Z" fill="#7D97F4"/>
<path d="M55.1106 76.6232V78.7881H61.469V76.6232H55.1106Z" fill="#7D97F4"/>
<path d="M55.1106 80.3445V82.5094H61.469V80.3445H55.1106Z" fill="#7D97F4"/>
<path d="M55.1106 83.9131V86.078H61.469V83.9131H55.1106Z" fill="#7D97F4"/>
<path d="M55.1101 87.544V89.7089H61.4685V87.544H55.1101Z" fill="#7D97F4"/>
<path d="M55.1106 91.2647V93.4296H61.469V91.2647H55.1106Z" fill="#7D97F4"/>
<path d="M55.1101 94.8339V96.9988H61.4685V94.8339H55.1101Z" fill="#7D97F4"/>
<path d="M55.4329 98.3912V100.556H61.7913V98.3912H55.4329Z" fill="#7D97F4"/>
<path d="M55.4333 102.112V104.277H61.7918V102.112H55.4333Z" fill="#7D97F4"/>
<path d="M55.4329 105.682V107.846H61.7913V105.682H55.4329Z" fill="#7D97F4"/>
<path d="M55.4333 109.322V111.487H61.7918V109.322H55.4333Z" fill="#7D97F4"/>
<path d="M55.4333 113.043V115.208H61.7918V113.043H55.4333Z" fill="#7D97F4"/>
<path d="M55.1101 73.0958V75.2607H61.4685V73.0958H55.1101Z" fill="#7D97F4"/>
<path d="M55.1101 69.4811V71.646H61.4685V69.4811H55.1101Z" fill="#7D97F4"/>
<path d="M55.1106 65.8609V68.0258H61.469V65.8609H55.1106Z" fill="#7D97F4"/>
<path d="M55.1101 62.2437V64.4086H61.4685V62.2437H55.1101Z" fill="#7D97F4"/>
<path d="M63.8889 62.2466V64.4121H94.3818C94.3818 63.2163 93.4009 62.2466 92.1875 62.2466H63.8889Z" fill="#7D97F4"/>
<path d="M75.8167 113.185V115.35H106.566V113.185H75.8167Z" fill="#7D97F4"/>
<path d="M75.8167 109.458V111.623H106.007V109.458H75.8167Z" fill="#7D97F4"/>
<path d="M75.8221 105.904V108.069H95.0215C95.0215 106.873 94.4031 105.903 93.6399 105.903L75.8221 105.904Z" fill="#7D97F4"/>
<path d="M52.2331 60.763H52.1983C52.0363 60.763 51.905 60.8943 51.905 61.0563V116.517C51.905 116.679 52.0363 116.81 52.1983 116.81H52.2331C52.3951 116.81 52.5264 116.679 52.5264 116.517V61.0563C52.5264 60.8943 52.3951 60.763 52.2331 60.763Z" fill="#7D97F4"/>
<path d="M96.2257 89.9537L134.422 130.712C134.801 131.116 135.092 131.594 135.278 132.116C135.463 132.639 135.538 133.193 135.499 133.746C135.459 134.299 135.306 134.838 135.049 135.328C134.791 135.819 134.435 136.251 134.002 136.597L133.702 136.838C133.317 137.146 132.875 137.375 132.402 137.511C131.928 137.647 131.433 137.689 130.943 137.633C130.454 137.577 129.98 137.425 129.55 137.185C129.119 136.945 128.74 136.623 128.435 136.236L93.6179 92.1784L96.2257 89.9537Z" fill="url(#paint17_linear_298_3901)"/>
<path opacity="0.5" d="M103.011 80.5165C109.36 67.9807 104.158 52.5771 91.3917 46.1117C78.6256 39.6463 63.1299 44.5673 56.7811 57.1032C50.4323 69.639 55.6346 85.0425 68.4007 91.5079C81.1668 97.9733 96.6625 93.0523 103.011 80.5165Z" fill="white"/>
<path d="M54.1724 55.7798C47.1097 69.7292 52.8972 86.8687 67.1041 94.0619C81.311 101.255 98.552 95.7785 105.615 81.8296C112.678 67.8807 106.89 50.7403 92.6835 43.547C78.4766 36.3538 61.2357 41.8304 54.1724 55.7798ZM57.949 57.6926C63.9749 45.7924 78.6846 41.1197 90.8036 47.2565C102.923 53.3932 107.862 68.0155 101.836 79.9158C95.8098 91.816 81.1001 96.4882 68.9811 90.3515C56.8621 84.2147 51.9246 69.5934 57.9505 57.6931L57.949 57.6926Z" fill="url(#paint18_linear_298_3901)"/>
<path d="M102.122 83.8562C102.105 83.8452 102.094 83.8283 102.09 83.8091C102.087 83.7899 102.091 83.77 102.101 83.7537C102.477 83.2 102.837 82.6256 103.168 82.0415C103.172 82.0324 103.178 82.0243 103.186 82.0177C103.194 82.0111 103.203 82.0062 103.212 82.0032C103.222 82.0002 103.232 81.9992 103.242 82.0003C103.252 82.0014 103.262 82.0046 103.271 82.0096C103.28 82.0146 103.287 82.0213 103.293 82.0294C103.3 82.0375 103.304 82.0468 103.306 82.0566C103.309 82.0664 103.309 82.0766 103.307 82.0866C103.306 82.0966 103.302 82.1061 103.296 82.1145C102.962 82.7007 102.601 83.2799 102.224 83.8366C102.216 83.8479 102.206 83.8569 102.193 83.8625C102.181 83.8681 102.167 83.8702 102.153 83.8685C102.142 83.867 102.131 83.8628 102.122 83.8562ZM105.542 76.714C105.523 76.7082 105.507 76.6953 105.498 76.678C105.489 76.6607 105.487 76.6405 105.493 76.6218C106.019 74.8643 106.356 73.0557 106.499 71.2266C106.902 66.0532 105.761 60.89 103.199 56.2958C100.575 51.5917 96.6234 47.8068 91.7707 45.3495C87.2389 43.0453 82.1496 42.0645 77.0861 42.5195C77.0674 42.5198 77.0492 42.5131 77.0353 42.5006C77.0214 42.4881 77.0127 42.4707 77.011 42.4521C77.0094 42.4335 77.0148 42.4149 77.0263 42.4001C77.0377 42.3853 77.0544 42.3754 77.0729 42.3724C82.1634 41.9146 87.28 42.9005 91.836 45.2171C96.7142 47.6871 100.687 51.4951 103.325 56.2227C105.902 60.8424 107.049 66.0321 106.644 71.2374C106.5 73.0771 106.161 74.8963 105.631 76.664C105.626 76.6807 105.616 76.6951 105.601 76.7047C105.586 76.7142 105.569 76.7182 105.551 76.716L105.542 76.714Z" fill="#BDD0FB"/>
<path d="M130.511 136.306C132.155 136.518 133.294 136.082 133.895 135.01C134.509 133.917 134.331 132.525 133.454 131.544L128.941 126.505C128.928 126.492 128.91 126.485 128.892 126.484C128.873 126.484 128.855 126.491 128.841 126.503C128.827 126.515 128.818 126.533 128.817 126.551C128.815 126.57 128.82 126.588 128.831 126.603L133.343 131.642C134.177 132.574 134.349 133.898 133.767 134.937C133.19 135.963 132.089 136.373 130.477 136.152C130.467 136.151 130.458 136.151 130.448 136.154C130.439 136.156 130.43 136.161 130.422 136.167C130.415 136.172 130.408 136.18 130.403 136.188C130.398 136.197 130.395 136.206 130.394 136.216C130.392 136.225 130.393 136.235 130.396 136.245C130.398 136.254 130.402 136.263 130.408 136.271C130.414 136.278 130.422 136.285 130.43 136.29C130.439 136.295 130.448 136.298 130.458 136.299L130.511 136.306Z" fill="#BDD0FB"/>
<path d="M127.488 125.074C127.498 125.076 127.509 125.075 127.519 125.072C127.529 125.069 127.539 125.063 127.546 125.056C127.561 125.043 127.57 125.025 127.571 125.005C127.572 124.985 127.565 124.966 127.552 124.952L126.968 124.299C126.961 124.291 126.954 124.284 126.945 124.279C126.936 124.274 126.926 124.271 126.916 124.27C126.906 124.269 126.895 124.27 126.886 124.273C126.876 124.276 126.867 124.281 126.859 124.288C126.852 124.295 126.846 124.303 126.841 124.312C126.837 124.322 126.835 124.332 126.834 124.342C126.834 124.352 126.836 124.362 126.84 124.372C126.844 124.381 126.85 124.39 126.857 124.397L127.442 125.05C127.454 125.063 127.47 125.072 127.488 125.074Z" fill="#BDD0FB"/>
<path d="M49.0803 29.1581C48.9832 29.1554 48.891 29.1152 48.8229 29.046C48.7548 28.9768 48.7161 28.8839 48.7149 28.7869C48.6776 26.7073 48.037 16.3824 39.0556 14.2248C29.0569 11.8215 24.4808 22.1175 24.4808 22.1175C24.4808 22.1175 12.1092 17.3153 9.73683 30.1817C1.97958 32.0666 -0.0357497 42.3233 5.0097 47.3349C5.80694 48.1294 6.88343 48.5804 8.00891 48.5915L56.5893 49.0329C57.287 49.0369 57.9669 48.8128 58.5256 48.3948C59.0842 47.9769 59.4911 47.3879 59.6842 46.7174C61.2017 41.5332 63.191 29.4926 49.0803 29.1581Z" fill="#91B3FA"/>
<path d="M47.9699 29.3808C47.873 29.3779 47.781 29.3377 47.713 29.2687C47.645 29.1996 47.6063 29.1069 47.605 29.01C47.5652 27.0158 46.9306 17.4418 38.4719 15.4348C29.0172 13.1919 24.6898 22.8056 24.6898 22.8056C24.6898 22.8056 12.9916 18.3193 10.7482 30.3363C3.48339 32.0794 1.54457 41.4915 6.14271 46.2186C6.53989 46.6277 7.0142 46.9541 7.53825 47.1789C8.06229 47.4037 8.62569 47.5224 9.19587 47.5282L54.9281 47.9401C55.6274 47.9437 56.3086 47.7185 56.8678 47.2987C57.4271 46.879 57.8336 46.2877 58.0254 45.6153C59.4517 40.6896 61.1424 29.6982 47.9699 29.3808Z" fill="#BDD0FB"/>
<path d="M2.49454 116.711C2.0796 117.325 0.430649 131.229 0.172663 136.361C0.168464 136.444 0.181084 136.526 0.20975 136.603C0.238417 136.681 0.282529 136.751 0.339396 136.811C0.396263 136.87 0.464691 136.918 0.540505 136.95C0.616319 136.983 0.697927 136.999 0.780352 136.999C0.925456 136.999 1.06579 136.947 1.17604 136.853C1.28629 136.758 1.35922 136.628 1.38167 136.484L4.39805 117.155L2.49454 116.711Z" fill="#7D97F4"/>
<path d="M15.7541 116.711C16.169 117.325 17.818 131.229 18.0765 136.361C18.0806 136.444 18.0679 136.526 18.0392 136.603C18.0105 136.681 17.9663 136.751 17.9094 136.811C17.8525 136.871 17.784 136.918 17.7082 136.95C17.6324 136.983 17.5507 136.999 17.4683 136.999C17.3232 136.999 17.1828 136.947 17.0726 136.853C16.9623 136.758 16.8894 136.628 16.867 136.484L13.8506 117.155L15.7541 116.711Z" fill="#7D97F4"/>
<path d="M7.61403e-05 115.626V115.778C-0.00973323 116.869 0.929513 117.763 2.10615 117.783L16.0487 118.02C17.2082 118.04 18.1749 117.202 18.2308 116.129L18.2381 115.99C18.297 114.87 17.346 113.926 16.137 113.905L2.18806 113.655C0.993274 113.634 0.010376 114.52 7.61403e-05 115.626Z" fill="#7D97F4"/>
<path d="M27.124 135.857C24.6456 135.857 23.5489 135.644 23.0585 135.45C23.1064 135.657 23.223 135.842 23.3894 135.974C23.5558 136.106 23.7621 136.178 23.9747 136.178H32.7442C32.8099 136.178 32.8746 136.163 32.9334 136.134C32.9922 136.105 33.0435 136.062 33.0832 136.01C33.123 135.958 33.1503 135.897 33.1629 135.833C33.1754 135.769 33.173 135.702 33.1557 135.639C32.1557 135.72 30.0315 135.857 27.124 135.857Z" fill="url(#paint19_linear_298_3901)"/>
<path d="M33.1538 135.64C33.1399 135.586 33.1154 135.536 33.0817 135.493C32.4137 134.64 31.0708 133.301 29.2472 133.326C26.5737 133.364 25.6413 133.654 23.5637 133.343L23.0732 134.967C23.0259 135.125 23.0208 135.292 23.0585 135.452C23.549 135.646 24.6457 135.859 27.124 135.859C30.0315 135.857 32.1557 135.72 33.1538 135.64Z" fill="url(#paint20_linear_298_3901)"/>
<path d="M24.1649 131.59L23.5636 133.636C23.5636 133.636 24.8967 134.243 26.0689 133.756L26.2989 131.983L24.1649 131.59Z" fill="url(#paint21_linear_298_3901)"/>
<path d="M42.3384 134.568C40.4059 136.12 39.4186 136.642 38.9154 136.799C39.0826 136.929 39.289 137 39.5011 136.998C39.7132 136.996 39.9185 136.923 40.0837 136.79L46.9189 131.3C46.9699 131.259 47.0108 131.207 47.0384 131.148C47.066 131.089 47.0796 131.024 47.0781 130.959C47.0767 130.893 47.0602 130.829 47.0299 130.771C46.9996 130.713 46.9564 130.663 46.9037 130.625C46.1743 131.311 44.6044 132.747 42.3384 134.568Z" fill="url(#paint22_linear_298_3901)"/>
<path d="M46.9036 130.623C46.8597 130.59 46.8097 130.566 46.7565 130.552C45.7039 130.307 43.8235 130.111 42.4168 131.273C40.3568 132.977 39.81 133.786 37.9962 134.846L38.627 136.415C38.6879 136.567 38.7881 136.7 38.9173 136.801C39.4205 136.644 40.4079 136.122 42.3403 134.57C44.6043 132.747 46.1743 131.312 46.9036 130.623Z" fill="url(#paint23_linear_298_3901)"/>
<path d="M11.2946 108.276C11.2946 108.276 26.1332 109.488 29.1771 110.921C32.2209 112.354 26.6934 132.438 26.6934 132.438C26.6934 132.438 25.8645 132.836 24.0203 132.263C24.0203 132.263 25.9115 117.442 24.5044 114.228L8.43762 111.6L11.2946 108.276Z" fill="url(#paint24_linear_298_3901)"/>
<path d="M36.5209 132.025C36.6587 132.15 37.9952 134.846 37.9952 134.846C37.9952 134.846 39.4833 134.524 39.7869 133.582L38.4479 131.15L36.5209 132.025Z" fill="url(#paint25_linear_298_3901)"/>
<path d="M2.35727 108.15C2.35727 108.15 1.87366 109.314 1.89328 110.86C1.92075 112.998 3.63984 114.735 5.77583 114.84L23.3174 115.64C23.4976 115.648 23.6704 115.714 23.8102 115.828C23.9501 115.942 24.0497 116.098 24.0943 116.272C24.5063 117.867 26.5212 122.763 36.3703 132.533C36.4978 132.659 36.664 132.738 36.8421 132.758C37.0202 132.777 37.1996 132.736 37.3512 132.64L38.7535 131.754C38.8242 131.71 38.8748 131.639 38.8946 131.558C38.9144 131.476 38.9018 131.391 38.8594 131.318L28.6474 113.879C28.1104 112.993 27.2475 112.354 26.2441 112.098L11.2931 108.276L2.35727 108.15Z" fill="url(#paint26_linear_298_3901)"/>
<path d="M19.6442 80.907C19.6442 80.907 17.7653 84.2294 15.8495 85.8392L19.8095 88.0463C19.8095 88.0463 20.7017 84.5286 22.7406 83.4986L19.6442 80.907Z" fill="url(#paint27_linear_298_3901)"/>
<path d="M2.04102 108.276C2.04102 108.276 6.77698 109.43 11.2971 108.276C11.2971 108.276 17.6242 99.7734 20.0692 97.4593C20.0692 97.4593 23.9723 103.619 32.66 104.491L33.1446 103.409C33.1446 103.409 26.229 100.221 24.0989 95.3214C21.9688 90.4221 21.1119 88.3352 19.175 87.055C17.9685 86.259 17.246 85.7151 16.8728 85.4178C16.7735 85.3384 16.6521 85.2915 16.5252 85.2835C16.3983 85.2755 16.272 85.3069 16.1636 85.3732C14.1065 86.6259 4.4345 93.2506 2.04102 108.276Z" fill="url(#paint28_linear_298_3901)"/>
<path d="M17.469 92.8867C17.469 92.8867 18.3111 95.0816 19.8095 97.0356L17.469 92.8867Z" fill="url(#paint29_linear_298_3901)"/>
<path d="M32.135 102.843L33.113 102.582L36.0823 101.896C36.2592 101.855 36.4425 101.849 36.6215 101.88C36.8005 101.91 36.9718 101.975 37.1255 102.072L39.6784 103.678L32.6284 103.666L32.135 102.843Z" fill="url(#paint30_linear_298_3901)"/>
<path d="M22.6282 75.9263C22.6282 75.9263 24.4543 78.9623 24.7711 80.6402C25.0879 82.3181 25.5966 83.3667 23.6872 83.9646C21.7778 84.5624 20.0028 83.8056 18.8889 82.2396C18.8889 82.2396 17.1497 79.8294 17.3233 78.7254C17.497 77.6213 22.6282 75.9263 22.6282 75.9263Z" fill="url(#paint31_linear_298_3901)"/>
<path d="M19.3977 80.9394L19.6429 80.907C19.6429 80.907 18.35 78.953 19.1961 78.4684C20.0422 77.9838 23.4906 76.7939 24.0895 75.4363C24.6668 74.1273 23.8031 72.648 22.7618 72.3395C22.7296 72.3308 22.6952 72.3346 22.6657 72.3502C22.6361 72.3657 22.6135 72.3919 22.6024 72.4234L22.5416 72.5882C22.5323 72.6132 22.5157 72.6348 22.494 72.6503C22.4723 72.6659 22.4465 72.6745 22.4198 72.6753C22.3932 72.676 22.3669 72.6688 22.3444 72.6545C22.3218 72.6402 22.3041 72.6195 22.2934 72.595C22.2836 72.5708 22.2669 72.55 22.2454 72.5352C22.2239 72.5204 22.1985 72.5122 22.1724 72.5117C22.1463 72.5112 22.1206 72.5183 22.0985 72.5323C22.0764 72.5462 22.0589 72.5663 22.0482 72.5901C21.8638 72.9972 21.3125 73.6917 19.6522 74.2293C17.298 74.9924 15.8339 76.1784 16.0139 77.8499C16.0166 77.8737 16.0129 77.8977 16.0032 77.9195C15.9934 77.9414 15.978 77.9602 15.9586 77.974C15.9391 77.9879 15.9163 77.9963 15.8925 77.9984C15.8686 78.0004 15.8447 77.9961 15.8232 77.9858C15.6304 77.9009 15.3391 77.8877 15.0006 78.258C14.4121 78.902 14.8726 80.3106 16.4809 81.3072C16.499 81.3178 16.5143 81.3325 16.5256 81.3501C16.537 81.3677 16.544 81.3878 16.5461 81.4087C16.5482 81.4295 16.5453 81.4506 16.5377 81.4701C16.5302 81.4896 16.5181 81.5071 16.5024 81.5211C16.2621 81.7271 15.9237 82.1861 17.0116 82.5957C18.1249 83.0145 18.7321 82.8728 18.9563 82.783C18.9855 82.7716 19.0097 82.7502 19.0248 82.7227C19.0398 82.6952 19.0447 82.6632 19.0387 82.6325L18.7532 81.1674C18.7496 81.1495 18.7498 81.131 18.7536 81.1131C18.7575 81.0953 18.765 81.0784 18.7757 81.0635C18.7864 81.0487 18.8 81.0361 18.8157 81.0268C18.8314 81.0174 18.8489 81.0114 18.867 81.009L19.3977 80.9394Z" fill="url(#paint32_linear_298_3901)"/>
<path d="M19.4987 81.2405C19.4987 81.2405 18.6929 79.2536 17.8468 79.9521C17.0008 80.6505 18.6316 82.194 19.3805 82.1734L19.4987 81.2405Z" fill="url(#paint33_linear_298_3901)"/>
<path d="M29.4115 105.06C29.4228 105.06 29.4346 105.06 29.4459 105.06L44.5072 105.045C44.6856 105.045 44.8568 104.974 44.983 104.848C45.1092 104.722 45.1801 104.551 45.1801 104.372C45.1801 104.194 45.1092 104.023 44.983 103.897C44.8568 103.77 44.6856 103.7 44.5072 103.7L29.4459 103.715C29.2708 103.716 29.103 103.785 28.978 103.907C28.853 104.03 28.7807 104.196 28.7764 104.371C28.7722 104.546 28.8363 104.716 28.9551 104.845C29.0739 104.973 29.2382 105.05 29.413 105.06L29.4115 105.06Z" fill="url(#paint34_linear_298_3901)"/>
<path d="M50.3398 90.3102L50.3245 90.3411L43.9877 104.005C43.9485 104.085 43.9258 104.172 43.9208 104.262C43.9159 104.351 43.9287 104.44 43.9587 104.525C43.9887 104.609 44.0352 104.686 44.0954 104.753C44.1557 104.819 44.2285 104.872 44.3097 104.91C44.3908 104.947 44.4786 104.968 44.568 104.972C44.6574 104.975 44.7465 104.96 44.8302 104.929C44.9139 104.897 44.9905 104.849 45.0554 104.788C45.1204 104.726 45.1724 104.652 45.2085 104.571L51.5458 90.9071C51.6217 90.7476 51.6319 90.5646 51.5741 90.3977C51.5162 90.2307 51.395 90.0932 51.2367 90.0148C51.0783 89.9365 50.8955 89.9235 50.7277 89.9788C50.5599 90.0341 50.4205 90.1531 50.3398 90.3102Z" fill="url(#paint35_linear_298_3901)"/>
<path d="M36.1176 106.192C36.0519 106.464 29.7675 130.034 28.172 136.009C28.1281 136.169 28.1216 136.336 28.1528 136.499C28.1841 136.661 28.2524 136.815 28.3523 136.947C28.4523 137.079 28.5813 137.186 28.7293 137.26C28.8773 137.334 29.0404 137.373 29.2059 137.374C29.446 137.373 29.6788 137.292 29.8671 137.143C30.0555 136.994 30.1884 136.786 30.2447 136.553L37.2212 108.269L36.1176 106.192Z" fill="#BDD0FB"/>
<path d="M39.5589 106.192C39.6251 106.464 45.9095 130.034 47.5045 136.009C47.5483 136.169 47.5549 136.336 47.5236 136.499C47.4924 136.661 47.4241 136.815 47.3242 136.947C47.2242 137.079 47.0952 137.186 46.9472 137.26C46.7992 137.334 46.6361 137.373 46.4706 137.374C46.2305 137.373 45.9977 137.292 45.8094 137.143C45.6211 136.994 45.4881 136.786 45.4317 136.553L38.4558 108.269L39.5589 106.192Z" fill="#BDD0FB"/>
<path d="M39.8207 105.421H35.9068V108.565C35.9061 108.671 35.9265 108.777 35.9668 108.876C36.007 108.975 36.0664 109.065 36.1415 109.141C36.2165 109.217 36.3058 109.277 36.4042 109.319C36.5026 109.36 36.6083 109.382 36.715 109.383H37.2546V116.442C37.254 116.523 37.2695 116.603 37.2999 116.678C37.3304 116.753 37.3753 116.821 37.4321 116.879C37.4889 116.936 37.5564 116.982 37.6309 117.014C37.7054 117.045 37.7853 117.061 37.8662 117.062C37.9471 117.061 38.027 117.045 38.1016 117.014C38.1761 116.982 38.2438 116.937 38.3006 116.879C38.3574 116.821 38.4024 116.753 38.4329 116.678C38.4634 116.603 38.4788 116.523 38.4783 116.442V109.383H38.7505C38.8922 109.382 39.0324 109.353 39.1631 109.298C39.2937 109.243 39.4122 109.163 39.5118 109.062C39.6114 108.961 39.6902 108.842 39.7436 108.71C39.797 108.579 39.824 108.438 39.8231 108.297L39.8207 105.421Z" fill="#BDD0FB"/>
<path d="M26.2834 104.668H48.1377C48.287 104.668 48.4318 104.719 48.5493 104.811C48.6667 104.903 48.7501 105.031 48.7861 105.176L49.0917 106.373C49.1173 106.472 49.1199 106.577 49.0992 106.677C49.0785 106.778 49.035 106.873 48.9721 106.955C48.9092 107.036 48.8285 107.102 48.7362 107.148C48.6438 107.194 48.5423 107.218 48.4393 107.218L26.0146 107.088C25.9124 107.086 25.8118 107.062 25.7205 107.016C25.6292 106.97 25.5495 106.904 25.4873 106.822C25.4252 106.741 25.3823 106.647 25.3618 106.547C25.3414 106.447 25.3439 106.343 25.3692 106.244L25.6345 105.178C25.6704 105.033 25.7537 104.904 25.8712 104.811C25.9888 104.719 26.1339 104.668 26.2834 104.668Z" fill="#BDD0FB"/>
<defs>
<linearGradient id="paint0_linear_298_3901" x1="145.284" y1="155.167" x2="44.8638" y2="46.7773" gradientUnits="userSpaceOnUse">
<stop stop-color="#DAE3FE"/>
<stop offset="1" stop-color="#E9EFFD"/>
</linearGradient>
<linearGradient id="paint1_linear_298_3901" x1="92.5981" y1="10.897" x2="92.268" y2="-43.6259" gradientUnits="userSpaceOnUse">
<stop stop-color="#E1473D"/>
<stop offset="1" stop-color="#E9605A"/>
</linearGradient>
<linearGradient id="paint2_linear_298_3901" x1="77.8629" y1="-98.0679" x2="87.4457" y2="-15.1268" gradientUnits="userSpaceOnUse">
<stop stop-color="#FF928E"/>
<stop offset="1" stop-color="#FE7062"/>
</linearGradient>
<linearGradient id="paint3_linear_298_3901" x1="120.939" y1="-40.5747" x2="100.122" y2="9.48497" gradientUnits="userSpaceOnUse">
<stop stop-color="#FEBBBA"/>
<stop offset="1" stop-color="#FF928E"/>
</linearGradient>
<linearGradient id="paint4_linear_298_3901" x1="117.268" y1="-25.2766" x2="99.4247" y2="22.5524" gradientUnits="userSpaceOnUse">
<stop stop-color="#FEBBBA"/>
<stop offset="1" stop-color="#FF928E"/>
</linearGradient>
<linearGradient id="paint5_linear_298_3901" x1="75.4073" y1="-97.7839" x2="84.9901" y2="-14.8428" gradientUnits="userSpaceOnUse">
<stop stop-color="#FF928E"/>
<stop offset="1" stop-color="#FE7062"/>
</linearGradient>
<linearGradient id="paint6_linear_298_3901" x1="101.942" y1="28.4004" x2="89.5513" y2="53.9258" gradientUnits="userSpaceOnUse">
<stop stop-color="#FEBBBA"/>
<stop offset="1" stop-color="#FF928E"/>
</linearGradient>
<linearGradient id="paint7_linear_298_3901" x1="121.116" y1="-5.41992" x2="89.3953" y2="68.4304" gradientUnits="userSpaceOnUse">
<stop stop-color="#FEBBBA"/>
<stop offset="1" stop-color="#FF928E"/>
</linearGradient>
<linearGradient id="paint8_linear_298_3901" x1="73.1265" y1="-97.5206" x2="82.7092" y2="-14.5794" gradientUnits="userSpaceOnUse">
<stop stop-color="#FF928E"/>
<stop offset="1" stop-color="#FE7062"/>
</linearGradient>
<linearGradient id="paint9_linear_298_3901" x1="120.668" y1="2.57565" x2="85.4772" y2="85.3477" gradientUnits="userSpaceOnUse">
<stop stop-color="#FEBBBA"/>
<stop offset="1" stop-color="#FF928E"/>
</linearGradient>
<linearGradient id="paint10_linear_298_3901" x1="118.739" y1="31.9959" x2="97.1789" y2="73.3822" gradientUnits="userSpaceOnUse">
<stop stop-color="#FEBBBA"/>
<stop offset="1" stop-color="#FF928E"/>
</linearGradient>
<linearGradient id="paint11_linear_298_3901" x1="70.7389" y1="-97.2448" x2="80.3216" y2="-14.3037" gradientUnits="userSpaceOnUse">
<stop stop-color="#FF928E"/>
<stop offset="1" stop-color="#FE7062"/>
</linearGradient>
<linearGradient id="paint12_linear_298_3901" x1="117.868" y1="29.3564" x2="95.8121" y2="81.8944" gradientUnits="userSpaceOnUse">
<stop stop-color="#FEBBBA"/>
<stop offset="1" stop-color="#FF928E"/>
</linearGradient>
<linearGradient id="paint13_linear_298_3901" x1="120.25" y1="48.1178" x2="94.2289" y2="99.664" gradientUnits="userSpaceOnUse">
<stop stop-color="#FEBBBA"/>
<stop offset="1" stop-color="#FF928E"/>
</linearGradient>
<linearGradient id="paint14_linear_298_3901" x1="69.7456" y1="115.835" x2="45.953" y2="44.4573" gradientUnits="userSpaceOnUse">
<stop stop-color="#09005D"/>
<stop offset="1" stop-color="#1A0F91"/>
</linearGradient>
<linearGradient id="paint15_linear_298_3901" x1="8.74556" y1="87.8603" x2="111.038" y2="87.8603" gradientUnits="userSpaceOnUse">
<stop stop-color="#4F52FF"/>
<stop offset="1" stop-color="#4042E2"/>
</linearGradient>
<linearGradient id="paint16_linear_298_3901" x1="14.3713" y1="111.566" x2="120.348" y2="137.344" gradientUnits="userSpaceOnUse">
<stop stop-color="#09005D"/>
<stop offset="1" stop-color="#1A0F91"/>
</linearGradient>
<linearGradient id="paint17_linear_298_3901" x1="139.495" y1="126.798" x2="89.2477" y2="101.392" gradientUnits="userSpaceOnUse">
<stop stop-color="#09005D"/>
<stop offset="1" stop-color="#1A0F91"/>
</linearGradient>
<linearGradient id="paint18_linear_298_3901" x1="106.432" y1="80.5344" x2="53.9601" y2="56.8933" gradientUnits="userSpaceOnUse">
<stop stop-color="#09005D"/>
<stop offset="1" stop-color="#1A0F91"/>
</linearGradient>
<linearGradient id="paint19_linear_298_3901" x1="23.0585" y1="135.814" x2="33.1685" y2="135.814" gradientUnits="userSpaceOnUse">
<stop stop-color="#4F52FF"/>
<stop offset="1" stop-color="#4042E2"/>
</linearGradient>
<linearGradient id="paint20_linear_298_3901" x1="30.8481" y1="116.374" x2="28.0858" y2="135.459" gradientUnits="userSpaceOnUse">
<stop stop-color="#09005D"/>
<stop offset="1" stop-color="#1A0F91"/>
</linearGradient>
<linearGradient id="paint21_linear_298_3901" x1="23.5636" y1="132.768" x2="26.2989" y2="132.768" gradientUnits="userSpaceOnUse">
<stop stop-color="#FEBBBA"/>
<stop offset="1" stop-color="#FF928E"/>
</linearGradient>
<linearGradient id="paint22_linear_298_3901" x1="38.9154" y1="133.81" x2="47.0783" y2="133.81" gradientUnits="userSpaceOnUse">
<stop stop-color="#4F52FF"/>
<stop offset="1" stop-color="#4042E2"/>
</linearGradient>
<linearGradient id="paint23_linear_298_3901" x1="44.5302" y1="118.354" x2="41.7679" y2="137.439" gradientUnits="userSpaceOnUse">
<stop stop-color="#09005D"/>
<stop offset="1" stop-color="#1A0F91"/>
</linearGradient>
<linearGradient id="paint24_linear_298_3901" x1="31.0453" y1="109.6" x2="7.47386" y2="130.639" gradientUnits="userSpaceOnUse">
<stop stop-color="#09005D"/>
<stop offset="1" stop-color="#1A0F91"/>
</linearGradient>
<linearGradient id="paint25_linear_298_3901" x1="36.5199" y1="132.998" x2="39.7859" y2="132.998" gradientUnits="userSpaceOnUse">
<stop stop-color="#FEBBBA"/>
<stop offset="1" stop-color="#FF928E"/>
</linearGradient>
<linearGradient id="paint26_linear_298_3901" x1="37.4626" y1="95.3587" x2="31.1846" y2="104.501" gradientUnits="userSpaceOnUse">
<stop stop-color="#09005D"/>
<stop offset="1" stop-color="#1A0F91"/>
</linearGradient>
<linearGradient id="paint27_linear_298_3901" x1="18.3798" y1="86.978" x2="19.99" y2="82.9179" gradientUnits="userSpaceOnUse">
<stop stop-color="#FEBBBA"/>
<stop offset="1" stop-color="#FF928E"/>
</linearGradient>
<linearGradient id="paint28_linear_298_3901" x1="23.4186" y1="26.1918" x2="20.4444" y2="66.8364" gradientUnits="userSpaceOnUse">
<stop stop-color="#FF928E"/>
<stop offset="1" stop-color="#FE7062"/>
</linearGradient>
<linearGradient id="paint29_linear_298_3901" x1="17.469" y1="94.9614" x2="19.8095" y2="94.9614" gradientUnits="userSpaceOnUse">
<stop stop-color="#E1473D"/>
<stop offset="1" stop-color="#E9605A"/>
</linearGradient>
<linearGradient id="paint30_linear_298_3901" x1="32.135" y1="102.768" x2="39.6784" y2="102.768" gradientUnits="userSpaceOnUse">
<stop stop-color="#FEBBBA"/>
<stop offset="1" stop-color="#FF928E"/>
</linearGradient>
<linearGradient id="paint31_linear_298_3901" x1="23.2926" y1="78.7369" x2="16.0852" y2="85.9244" gradientUnits="userSpaceOnUse">
<stop stop-color="#FEBBBA"/>
<stop offset="1" stop-color="#FF928E"/>
</linearGradient>
<linearGradient id="paint32_linear_298_3901" x1="17.0248" y1="74.6369" x2="25.5126" y2="83.0256" gradientUnits="userSpaceOnUse">
<stop stop-color="#09005D"/>
<stop offset="1" stop-color="#1A0F91"/>
</linearGradient>
<linearGradient id="paint33_linear_298_3901" x1="22.1278" y1="77.5685" x2="14.9203" y2="84.756" gradientUnits="userSpaceOnUse">
<stop stop-color="#FEBBBA"/>
<stop offset="1" stop-color="#FF928E"/>
</linearGradient>
<linearGradient id="paint34_linear_298_3901" x1="-1584.81" y1="-1629.21" x2="-1558.13" y2="-1600.69" gradientUnits="userSpaceOnUse">
<stop stop-color="#09005D"/>
<stop offset="1" stop-color="#1A0F91"/>
</linearGradient>
<linearGradient id="paint35_linear_298_3901" x1="2302.02" y1="-640.534" x2="2264.92" y2="-628.399" gradientUnits="userSpaceOnUse">
<stop stop-color="#09005D"/>
<stop offset="1" stop-color="#1A0F91"/>
</linearGradient>
</defs>
</svg>
