<svg width="137" height="131" viewBox="0 0 137 131" fill="none" xmlns="http://www.w3.org/2000/svg">
<path d="M114.645 45.8173C113.364 30.0301 112.723 22.1369 109.739 17.0294C101.198 2.40861 76.3693 -1.07143 60.687 0.262268C39.6921 2.04687 15.6742 14.1051 5.10184 37.387C-4.5006 58.533 -0.0728697 82.4691 14.3959 98.1257C40.9192 126.83 95.6317 121.706 108.997 102.871C114.331 95.3543 114.715 83.3472 115.28 65.7125C115.552 57.223 115.022 50.4573 114.645 45.8173Z" fill="#F4F7FA"/>
<path d="M104.584 9.6586C103.227 8.53662 101.168 7.92597 99.4279 7.80258C87.0896 6.92908 85.2894 32.6932 87.1801 38.4532C89.0709 44.2131 87.8459 46.1021 78.1284 49.1147C68.4109 52.1274 73.073 57.9279 74.2578 61.32C75.4425 64.7122 77.7875 67.5778 70.7047 70.9484C63.622 74.319 66.0824 76.407 66.0824 76.407C66.0824 76.407 79.1461 89.7571 78.4245 85.483C77.7029 81.2089 79.0099 74.7551 90.7226 74.2649C95.767 74.0536 103.493 71.649 105.203 66.2525C105.602 64.9957 105.88 63.0763 105.576 61.7756C105.155 59.9711 103.969 58.5495 103.312 56.8511C101.778 52.8936 105.625 49.9954 107.838 47.35C108.993 45.969 110.149 44.5529 111.034 42.9783C112.871 39.7091 112.184 36.2033 110.183 33.1898C109.223 31.7449 107.889 30.2118 107.471 28.4885C107.021 26.6367 107.413 24.107 107.52 22.2024C107.604 20.7085 107.746 19.2206 107.662 17.7229C107.507 14.9376 106.854 11.5366 104.584 9.6586Z" fill="url(#paint0_linear_298_4284)"/>
<mask id="mask0_298_4284" style="mask-type:alpha" maskUnits="userSpaceOnUse" x="85" y="27" width="48" height="79">
<path d="M124.865 28.8866C123.508 27.7646 121.449 27.1539 119.709 27.0305C107.371 26.157 105.57 51.9212 107.461 57.6811C109.352 63.4411 108.127 65.33 98.4094 68.3427C88.6919 71.3554 93.354 77.1559 94.5388 80.548C95.7235 83.9402 98.0685 86.8057 90.9858 90.1763C83.903 93.5469 86.3635 95.635 86.3635 95.635C86.3635 95.635 99.4271 108.985 98.7055 104.711C97.9839 100.437 99.2909 93.9831 111.004 93.4929C116.048 93.2816 123.774 90.877 125.484 85.4805C125.883 84.2237 126.161 82.3043 125.857 81.0036C125.436 79.1991 124.25 77.7775 123.593 76.0791C122.059 72.1215 125.906 69.2234 128.119 66.578C129.274 65.1969 130.43 63.7808 131.315 62.2062C133.152 58.9371 132.465 55.4313 130.464 52.4178C129.504 50.9729 128.17 49.4397 127.752 47.7164C127.302 45.8646 127.694 43.335 127.801 41.4304C127.885 39.9365 128.027 38.4486 127.943 36.9509C127.788 34.1656 127.135 30.7646 124.865 28.8866Z" fill="white"/>
</mask>
<g mask="url(#mask0_298_4284)">
<g style="mix-blend-mode:soft-light" opacity="0.8">
<path d="M65.0551 83.9C65.0115 83.9163 64.9633 83.9152 64.9204 83.8971C64.8775 83.879 64.8432 83.8452 64.8245 83.8026C64.8057 83.76 64.804 83.7119 64.8197 83.6681C64.8354 83.6243 64.8673 83.5881 64.9088 83.567C64.9637 83.5383 70.4633 80.6482 76.5982 75.8881C82.2513 71.502 89.6157 64.5859 92.5973 56.5465C95.0878 49.8315 97.3592 38.7313 98.8286 26.0916C100.147 14.7572 100.355 6.37468 99.7947 4.8187C99.7863 4.79614 99.7825 4.77215 99.7835 4.74811C99.7845 4.72408 99.7902 4.70047 99.8004 4.67866C99.8105 4.65685 99.8249 4.63726 99.8426 4.62103C99.8604 4.6048 99.8812 4.59225 99.9039 4.5841C99.9265 4.57595 99.9506 4.57237 99.9746 4.57356C99.9987 4.57474 100.022 4.58067 100.044 4.59101C100.066 4.60135 100.085 4.61589 100.101 4.63379C100.117 4.65169 100.13 4.67259 100.138 4.6953C100.793 6.5154 100.377 15.9324 99.1911 26.1334C97.7183 38.801 95.4397 49.9321 92.9395 56.6728C89.9275 64.7951 82.5093 71.764 76.8168 76.1801C70.657 80.9588 65.1329 83.8611 65.0779 83.8899C65.0703 83.8935 65.0627 83.8969 65.0551 83.9Z" fill="white"/>
<path d="M98.8087 28.2886C98.714 28.3224 98.6179 28.2962 98.5837 28.202C98.5376 28.0773 93.9385 15.7144 88.0071 12.9232C87.9857 12.9135 87.9665 12.8996 87.9505 12.8823C87.9346 12.865 87.9224 12.8447 87.9145 12.8226C87.9066 12.8004 87.9032 12.777 87.9046 12.7535C87.906 12.7301 87.9121 12.7071 87.9225 12.6861C87.9437 12.6427 87.9812 12.6094 88.0269 12.5936C88.0725 12.5777 88.1226 12.5806 88.1662 12.6016C94.2329 15.4566 98.7368 27.5613 98.9259 28.0752C98.9605 28.1694 98.9047 28.2544 98.81 28.2865L98.8087 28.2886Z" fill="white"/>
<path d="M96.5658 42.6258C96.5253 42.6406 96.4809 42.6405 96.4405 42.6257C96.4 42.6108 96.3661 42.5822 96.3449 42.5447C96.3236 42.5073 96.3162 42.4635 96.3242 42.4212C96.3321 42.3789 96.3548 42.3407 96.3882 42.3135C96.4216 42.2856 99.808 39.5105 103.987 37.1816C109.632 34.035 113.959 33.1564 116.845 34.5708C116.867 34.5813 116.886 34.596 116.902 34.614C116.917 34.6319 116.93 34.6528 116.937 34.6755C116.945 34.6981 116.948 34.7221 116.947 34.7459C116.945 34.7698 116.939 34.7932 116.928 34.8146C116.918 34.8361 116.903 34.8553 116.885 34.8711C116.867 34.8869 116.846 34.899 116.824 34.9068C116.801 34.9145 116.777 34.9177 116.753 34.9162C116.729 34.9146 116.706 34.9084 116.684 34.8979C110.044 31.6439 96.7528 42.4851 96.6191 42.595C96.6032 42.6082 96.5852 42.6186 96.5658 42.6258Z" fill="white"/>
<path d="M89.3611 63.3617C89.32 63.3759 89.2751 63.3751 89.2347 63.3592C89.1942 63.3433 89.1607 63.3135 89.1402 63.2752C89.1198 63.2368 89.1138 63.1924 89.1233 63.15C89.1327 63.1076 89.1571 63.0699 89.1919 63.0439C89.779 62.6099 103.637 52.4305 109.042 53.4029C109.089 53.4114 109.132 53.4385 109.159 53.4781C109.187 53.5178 109.198 53.5668 109.189 53.6144C109.181 53.662 109.154 53.7042 109.114 53.7318C109.074 53.7594 109.025 53.7702 108.977 53.7617C103.726 52.8172 89.551 63.2315 89.4084 63.3367C89.3941 63.3476 89.3781 63.356 89.3611 63.3617Z" fill="white"/>
</g>
</g>
<path d="M115.413 47.6087C114.516 46.0941 112.785 44.8229 111.189 44.1185C99.8745 39.1255 89.454 62.7628 89.2831 68.8207C89.1122 74.8785 87.3192 76.2435 77.1551 75.7934C66.9909 75.3434 69.4146 82.3778 69.3786 85.9703C69.3427 89.5627 70.5807 93.0521 62.7734 93.8305C54.9661 94.6089 56.5738 97.4035 56.5738 97.4035C56.5738 97.4035 64.3452 114.382 65.1137 110.116C65.8823 105.85 69.2987 100.219 80.486 103.717C85.3046 105.224 93.3868 105.573 96.8261 101.073C97.6268 100.025 98.5374 98.3125 98.6931 96.986C98.9084 95.146 98.2743 93.4075 98.2304 91.587C98.1271 87.3441 102.729 85.9175 105.708 84.1768C107.263 83.2678 108.83 82.3259 110.196 81.1434C113.033 78.6882 113.573 75.1566 112.711 71.6444C112.297 69.9604 111.561 68.0668 111.751 66.3037C111.955 64.4092 113.18 62.1623 113.926 60.4052C114.511 59.0279 115.149 57.6756 115.576 56.238C116.375 53.5638 116.913 50.1408 115.413 47.6087Z" fill="url(#paint1_linear_298_4284)"/>
<mask id="mask1_298_4284" style="mask-type:alpha" maskUnits="userSpaceOnUse" x="76" y="62" width="61" height="69">
<path d="M135.694 66.8366C134.797 65.322 133.066 64.0508 131.47 63.3464C120.155 58.3534 109.735 81.9907 109.564 88.0486C109.393 94.1064 107.6 95.4714 97.4361 95.0213C87.2719 94.5713 89.6956 101.606 89.6596 105.198C89.6237 108.791 90.8617 112.28 83.0544 113.058C75.2471 113.837 76.8548 116.631 76.8548 116.631C76.8548 116.631 84.6262 133.61 85.3947 129.344C86.1633 125.078 89.5797 119.447 100.767 122.945C105.586 124.452 113.668 124.801 117.107 120.301C117.908 119.253 118.818 117.54 118.974 116.214C119.189 114.374 118.555 112.635 118.511 110.815C118.408 106.572 123.01 105.145 125.989 103.405C127.544 102.496 129.111 101.554 130.477 100.371C133.314 97.9161 133.854 94.3845 132.992 90.8723C132.578 89.1883 131.842 87.2947 132.032 85.5316C132.236 83.6371 133.461 81.3902 134.207 79.6331C134.792 78.2558 135.43 76.9035 135.857 75.4659C136.656 72.7917 137.194 69.3687 135.694 66.8366Z" fill="white"/>
</mask>
<g mask="url(#mask1_298_4284)">
<g style="mix-blend-mode:soft-light" opacity="0.8">
<path d="M53.0707 104.107C53.0246 104.107 52.9801 104.089 52.9464 104.058C52.9127 104.026 52.8922 103.983 52.8891 103.937C52.886 103.891 52.9005 103.845 52.9296 103.81C52.9588 103.774 53.0004 103.75 53.0462 103.744C53.1075 103.736 59.2614 102.875 66.647 100.47C73.4506 98.2525 82.724 94.2354 88.2549 87.678C92.8725 82.2012 98.7692 72.5235 104.433 61.1261C109.512 50.9062 112.547 43.0882 112.547 41.4334C112.549 41.3865 112.569 41.3423 112.603 41.31C112.637 41.2776 112.682 41.2596 112.729 41.2596C112.776 41.2596 112.821 41.2776 112.855 41.31C112.889 41.3423 112.91 41.3865 112.912 41.4334C112.912 43.368 109.331 52.0886 104.76 61.2872C99.0839 72.7094 93.1703 82.4134 88.534 87.9104C82.9486 94.535 73.608 98.5851 66.7557 100.816C59.3405 103.23 53.1596 104.094 53.0982 104.102C53.0892 104.105 53.08 104.106 53.0707 104.107Z" fill="white"/>
<path d="M103.668 63.2242C103.645 63.2247 103.621 63.2205 103.599 63.2119C103.577 63.2033 103.557 63.1905 103.54 63.1741C103.523 63.1577 103.51 63.1381 103.5 63.1165C103.491 63.0949 103.486 63.0716 103.485 63.048C103.485 62.9153 103.344 49.7173 98.7079 45.0878C98.6905 45.071 98.6767 45.0509 98.6672 45.0287C98.6577 45.0065 98.6527 44.9826 98.6526 44.9585C98.6524 44.9343 98.6571 44.9104 98.6663 44.8881C98.6756 44.8657 98.6891 44.8455 98.7063 44.8284C98.7234 44.8114 98.7438 44.798 98.7662 44.7889C98.7886 44.7798 98.8126 44.7753 98.8368 44.7756C98.861 44.776 98.8848 44.7811 98.907 44.7907C98.9292 44.8003 98.9492 44.8143 98.9659 44.8317C103.708 49.5694 103.847 62.499 103.85 63.0476C103.851 63.0713 103.846 63.0948 103.837 63.1167C103.828 63.1386 103.814 63.1585 103.797 63.1751C103.781 63.1918 103.76 63.2049 103.738 63.2137C103.716 63.2225 103.693 63.2268 103.669 63.2263L103.668 63.2242Z" fill="white"/>
<path d="M96.7018 75.9202C96.6589 75.92 96.6174 75.9048 96.5846 75.8771C96.5519 75.8495 96.5299 75.8112 96.5225 75.7689C96.5151 75.7267 96.5229 75.6832 96.5444 75.6461C96.5659 75.609 96.5997 75.5807 96.6401 75.566C96.6824 75.5517 100.808 74.0844 105.529 73.3056C111.907 72.2529 116.276 72.8893 118.514 75.1963C118.548 75.231 118.566 75.2777 118.565 75.326C118.564 75.3744 118.544 75.4204 118.51 75.454C118.492 75.4707 118.472 75.4838 118.45 75.4926C118.428 75.5014 118.404 75.5057 118.38 75.5053C118.331 75.5045 118.285 75.4846 118.252 75.4498C113.102 70.1421 96.926 75.8513 96.7644 75.9092C96.7444 75.9167 96.7232 75.9204 96.7018 75.9202Z" fill="white"/>
<path d="M72.9029 98.5128C72.8738 98.5129 72.8451 98.5061 72.8192 98.4928C72.7933 98.4796 72.771 98.4603 72.7541 98.4367C72.7372 98.4131 72.7262 98.3857 72.7221 98.357C72.7179 98.3282 72.7207 98.2989 72.7303 98.2715C72.7472 98.2212 74.4556 93.2004 75.3028 87.563C76.0794 82.3968 76.2736 75.6459 72.7878 72.8213C72.7528 72.79 72.7311 72.7465 72.7274 72.6997C72.7236 72.6529 72.7381 72.6065 72.7677 72.5701C72.7973 72.5337 72.8398 72.51 72.8864 72.5041C72.933 72.4981 72.9801 72.5103 73.0179 72.5382C75.9242 74.8928 76.8141 79.9677 75.6628 87.6222C74.8105 93.2891 73.0928 98.3391 73.0754 98.3894C73.0631 98.4253 73.0398 98.4566 73.0089 98.4787C72.978 98.5008 72.9409 98.5127 72.9029 98.5128Z" fill="white"/>
<path d="M82.8992 92.9972C82.8554 92.9972 82.813 92.9816 82.7798 92.953C82.7466 92.9244 82.7249 92.8848 82.7185 92.8415C82.7121 92.7982 82.7216 92.7541 82.7451 92.7171C82.7687 92.6802 82.8047 92.653 82.8467 92.6405C83.5463 92.4292 100.035 87.5373 104.791 90.2791C104.833 90.3032 104.864 90.343 104.876 90.3897C104.889 90.4364 104.882 90.4861 104.858 90.528C104.834 90.5698 104.794 90.6004 104.747 90.6129C104.701 90.6254 104.651 90.6189 104.609 90.5947C99.9875 87.9324 83.1217 92.9389 82.9525 92.9896C82.9352 92.9947 82.9172 92.9972 82.8992 92.9972Z" fill="white"/>
</g>
</g>
<path d="M77.4856 5.02872L77.3554 5.95842C76.9271 5.97731 76.5013 6.03387 76.083 6.12746L75.7307 5.25776C75.7076 5.20127 75.6735 5.14992 75.6304 5.10666C75.5873 5.0634 75.5361 5.02909 75.4796 5.00572C75.4232 4.98234 75.3627 4.97036 75.3016 4.97047C75.2405 4.97057 75.1801 4.98275 75.1237 5.00632L73.6277 5.62035C73.5128 5.66737 73.4211 5.75765 73.3724 5.87168C73.3236 5.9857 73.3217 6.11432 73.3671 6.22972L73.722 7.1104C73.3589 7.34095 73.0163 7.60223 72.6979 7.89135L71.9459 7.31071C71.8473 7.23515 71.7228 7.20163 71.5996 7.21746C71.4764 7.2333 71.3644 7.29721 71.2882 7.39523L70.2832 8.67991C70.2447 8.72807 70.2162 8.78334 70.1992 8.84255C70.1823 8.90176 70.1772 8.96374 70.1842 9.02492C70.1913 9.08611 70.2104 9.14529 70.2405 9.19908C70.2705 9.25286 70.3109 9.30017 70.3593 9.33831L71.1135 9.92444C70.9103 10.3058 70.7405 10.7039 70.6059 11.1145L69.6487 10.9877C69.524 10.9722 69.3981 11.0061 69.2981 11.0822C69.1981 11.1583 69.1319 11.2704 69.1136 11.3946L68.8734 13.0149C68.8639 13.0759 68.8668 13.1381 68.8817 13.198C68.8966 13.258 68.9233 13.3143 68.9602 13.3638C68.9971 13.4133 69.0436 13.4549 69.0968 13.4863C69.15 13.5176 69.2089 13.5381 69.2701 13.5465L70.2299 13.6733C70.2404 14.1054 70.2888 14.5359 70.3745 14.9596L69.4749 15.34C69.3579 15.3887 69.2647 15.4811 69.2149 15.5975C69.1651 15.714 69.1628 15.8452 69.2084 15.9633L69.8086 17.4871C69.8313 17.545 69.8654 17.5976 69.9089 17.642C69.9524 17.6865 70.0043 17.7217 70.0616 17.7458C70.1189 17.7698 70.1805 17.7821 70.2427 17.782C70.3049 17.7818 70.3664 17.7692 70.4236 17.7449L71.325 17.368C71.5517 17.7352 71.8101 18.0819 72.0973 18.4042L71.4967 19.1855C71.4184 19.2856 71.3826 19.4124 71.3972 19.5385C71.4118 19.6647 71.4755 19.78 71.5745 19.8596L72.8625 20.8687C72.9121 20.907 72.9688 20.935 73.0293 20.9511C73.0898 20.9673 73.153 20.9713 73.215 20.9628C73.2771 20.9543 73.3369 20.9336 73.3909 20.9019C73.4449 20.8701 73.492 20.828 73.5295 20.7779L74.1217 20.0041C74.5054 20.2074 74.9066 20.3758 75.3204 20.5074L75.1851 21.4735C75.1757 21.5355 75.1787 21.5988 75.194 21.6596C75.2093 21.7205 75.2365 21.7777 75.274 21.828C75.3116 21.8783 75.3588 21.9206 75.4129 21.9525C75.4669 21.9844 75.5268 22.0053 75.589 22.014L77.2145 22.2253C77.341 22.2404 77.4683 22.2051 77.5688 22.1269C77.6692 22.0487 77.7347 21.9339 77.7508 21.8077L77.882 20.8493C78.3192 20.8311 78.754 20.7736 79.1809 20.6777L79.5375 21.5652C79.5604 21.6233 79.5947 21.6763 79.6384 21.721C79.6822 21.7657 79.7344 21.8012 79.7921 21.8253C79.8498 21.8495 79.9118 21.8618 79.9743 21.8616C80.0369 21.8614 80.0988 21.8487 80.1563 21.8242L81.6723 21.1827C81.7892 21.1323 81.8818 21.0381 81.9301 20.9203C81.9784 20.8026 81.9786 20.6706 81.9307 20.5526L81.5741 19.6732C81.9443 19.4343 82.2929 19.1635 82.6159 18.864L83.3583 19.4391C83.4075 19.4773 83.4638 19.5052 83.524 19.5214C83.5842 19.5375 83.6469 19.5415 83.7087 19.533C83.7704 19.5246 83.8298 19.504 83.8835 19.4723C83.9371 19.4406 83.9839 19.3986 84.0211 19.3487L85.0142 18.0336C85.0902 17.9327 85.1236 17.806 85.1073 17.6808C85.0909 17.5556 85.0261 17.4418 84.9267 17.3638L84.1945 16.7941C84.3959 16.4016 84.5627 15.9922 84.6927 15.5707L85.6106 15.6911C85.6722 15.6989 85.7347 15.6944 85.7946 15.678C85.8544 15.6615 85.9104 15.6334 85.9594 15.5953C86.0084 15.5572 86.0493 15.5098 86.0799 15.4558C86.1105 15.4018 86.1301 15.3424 86.1376 15.2808L86.3462 13.6559C86.3625 13.532 86.3291 13.4067 86.2531 13.3073C86.1772 13.208 86.0649 13.1428 85.941 13.126L85.0256 13.006C85.0075 12.5687 84.9509 12.1339 84.8564 11.7065L85.7054 11.3515C85.8205 11.3033 85.9118 11.2116 85.9594 11.0962C86.007 10.9809 86.0069 10.8515 85.9591 10.7362L85.3365 9.23815C85.3133 9.18123 85.2791 9.12947 85.2358 9.08586C85.1924 9.04224 85.1409 9.00765 85.0841 8.98407C85.0273 8.96049 84.9664 8.94839 84.9049 8.94849C84.8433 8.94858 84.7825 8.96085 84.7257 8.9846L83.8718 9.33915C83.6395 8.97475 83.3758 8.63129 83.0837 8.31268L83.6476 7.57695C83.7231 7.47887 83.7565 7.35489 83.7407 7.23218C83.7248 7.10947 83.6609 6.99806 83.563 6.92235L82.2877 5.94321C82.2391 5.90591 82.1837 5.87857 82.1245 5.86273C82.0654 5.8469 82.0037 5.84289 81.9429 5.85094C81.8822 5.85899 81.8237 5.87894 81.7707 5.90964C81.7177 5.94034 81.6713 5.98118 81.6342 6.02984L81.0644 6.7681C80.6834 6.57121 80.2857 6.40844 79.8759 6.2817L80.0028 5.35665C80.0111 5.29626 80.0074 5.23483 79.9918 5.17589C79.9763 5.11694 79.9492 5.06166 79.9122 5.01323C79.8751 4.96479 79.8288 4.92416 79.776 4.89367C79.7232 4.86318 79.6648 4.84344 79.6043 4.83559L78.011 4.62683C77.8881 4.61108 77.7639 4.64448 77.6655 4.71975C77.5671 4.79501 77.5025 4.90606 77.4856 5.02872ZM71.8681 12.5783C72.3287 9.37677 75.2697 7.13238 78.4399 7.54948C81.6101 7.96658 83.8366 10.888 83.4107 14.0925C82.9822 17.3181 80.0349 19.6069 76.83 19.1868C73.6251 18.7668 71.4049 15.7993 71.8681 12.5783Z" fill="#D8DEE8"/>
<path d="M53.0535 4.52163L52.8518 5.9631C52.1898 5.99218 51.5316 6.07929 50.8849 6.22341L50.3397 4.87873C50.3039 4.79139 50.2512 4.71199 50.1846 4.64511C50.1179 4.57823 50.0387 4.52519 49.9514 4.48905C49.8642 4.45291 49.7706 4.43438 49.6762 4.43453C49.5817 4.43468 49.4882 4.45352 49.4011 4.48994L47.0883 5.44204C46.9106 5.51452 46.7687 5.65405 46.6933 5.83039C46.6179 6.00672 46.6151 6.20564 46.6856 6.384L47.2355 7.74559C46.6743 8.10244 46.1446 8.5065 45.6523 8.95336L44.4895 8.05281C44.3368 7.93687 44.1444 7.88589 43.9543 7.91098C43.7642 7.93607 43.5917 8.0352 43.4744 8.18677L41.9203 10.173C41.861 10.2475 41.817 10.3329 41.7908 10.4244C41.7646 10.516 41.7567 10.6118 41.7676 10.7064C41.7785 10.8009 41.808 10.8924 41.8544 10.9756C41.9008 11.0587 41.9632 11.1319 42.0379 11.191L43.2041 12.0966C42.8909 12.6865 42.6293 13.3022 42.422 13.937L40.9416 13.743C40.7487 13.7193 40.5543 13.7719 40.3997 13.8896C40.2452 14.0072 40.1429 14.1806 40.1146 14.3727L39.7395 16.8782C39.7248 16.9725 39.7291 17.0688 39.7521 17.1615C39.7752 17.2541 39.8164 17.3412 39.8735 17.4177C39.9306 17.4943 40.0024 17.5586 40.0847 17.6071C40.167 17.6556 40.2581 17.6873 40.3528 17.7002L41.8374 17.8946C41.8536 18.5628 41.9282 19.2284 42.0603 19.8837L40.67 20.4639C40.4893 20.5394 40.3451 20.6823 40.2682 20.8623C40.1912 21.0423 40.1876 21.2452 40.258 21.4278L41.186 23.7838C41.2212 23.8732 41.2739 23.9547 41.3411 24.0233C41.4083 24.092 41.4886 24.1466 41.5772 24.1837C41.6659 24.2209 41.7611 24.2399 41.8572 24.2397C41.9533 24.2394 42.0484 24.2199 42.1369 24.1823L43.5306 23.5995C43.8808 24.1686 44.2802 24.706 44.7242 25.2054L43.7937 26.4102C43.6725 26.5648 43.6173 26.7608 43.6398 26.9558C43.6624 27.1508 43.761 27.3291 43.9142 27.4519L45.9048 29.0125C45.9815 29.0717 46.0692 29.115 46.1628 29.14C46.2564 29.165 46.3541 29.1711 46.4501 29.158C46.5461 29.1449 46.6386 29.1129 46.722 29.0637C46.8055 29.0146 46.8784 28.9494 46.9364 28.8718L47.8543 27.675C48.4473 27.9896 49.0675 28.2502 49.7073 28.4534L49.4984 29.9473C49.4839 30.0432 49.4885 30.141 49.5121 30.2351C49.5356 30.3292 49.5777 30.4176 49.6357 30.4954C49.6937 30.5731 49.7666 30.6386 49.8501 30.688C49.9337 30.7374 50.0262 30.7697 50.1223 30.7832L52.636 31.1124C52.8315 31.136 53.0284 31.0813 53.1837 30.9604C53.339 30.8396 53.4401 30.6622 53.4651 30.4671L53.6681 28.9846C54.3441 28.9565 55.0162 28.868 55.6764 28.7201L56.2263 30.0897C56.2617 30.1796 56.3148 30.2614 56.3823 30.3305C56.4499 30.3995 56.5307 30.4543 56.6198 30.4916C56.709 30.529 56.8047 30.5481 56.9014 30.5479C56.998 30.5477 57.0937 30.5281 57.1826 30.4903L59.5268 29.4981C59.7071 29.4202 59.8498 29.2749 59.9244 29.0933C59.999 28.9117 59.9996 28.7082 59.9261 28.5261L59.3762 27.1662C59.9485 26.7968 60.4875 26.3781 60.9869 25.9149L62.1327 26.8024C62.2088 26.8614 62.296 26.9048 62.389 26.9298C62.4821 26.9548 62.5792 26.9609 62.6747 26.9479C62.7702 26.935 62.8622 26.9031 62.9451 26.8541C63.0281 26.8052 63.1005 26.7402 63.158 26.6629L64.693 24.6298C64.8108 24.4739 64.8626 24.278 64.8373 24.0843C64.812 23.8906 64.7116 23.7146 64.5577 23.5941L63.4224 22.7151C63.7342 22.1083 63.9919 21.4754 64.1926 20.8235L65.6122 21.0095C65.7074 21.0215 65.804 21.0147 65.8966 20.9893C65.9891 20.964 66.0758 20.9206 66.1515 20.8617C66.2272 20.8028 66.2906 20.7296 66.3379 20.6461C66.3852 20.5627 66.4156 20.4708 66.4272 20.3756L66.7491 17.8637C66.7746 17.672 66.723 17.4781 66.6055 17.3244C66.4881 17.1707 66.3145 17.0698 66.1227 17.0439L64.7074 16.8584C64.68 16.1823 64.5928 15.51 64.4468 14.8494L65.7581 14.3C65.9357 14.225 66.0765 14.0828 66.1496 13.9045C66.2227 13.7263 66.2223 13.5263 66.1485 13.3483L65.1896 11.0329C65.1535 10.9452 65.1004 10.8654 65.0334 10.7982C64.9663 10.731 64.8866 10.6777 64.7989 10.6413C64.7112 10.605 64.6172 10.5863 64.5222 10.5863C64.4272 10.5864 64.3332 10.6052 64.2455 10.6416L62.925 11.191C62.5663 10.6272 62.1587 10.0961 61.7068 9.60373L62.5802 8.46695C62.6383 8.39173 62.681 8.30581 62.7058 8.2141C62.7305 8.1224 62.737 8.02671 62.7247 7.93251C62.7125 7.83831 62.6818 7.74745 62.6343 7.66512C62.5869 7.5828 62.5237 7.51062 62.4483 7.45273L60.4759 5.93901C60.4009 5.88134 60.3152 5.83904 60.2238 5.81453C60.1324 5.79002 60.037 5.78379 59.9431 5.7962C59.8493 5.80861 59.7588 5.83941 59.6769 5.88683C59.595 5.93425 59.5233 5.99737 59.4659 6.07255L58.5878 7.21355C57.9985 6.90899 57.3834 6.6574 56.7495 6.46175L56.9453 5.03128C56.9582 4.93797 56.9525 4.84302 56.9285 4.75193C56.9045 4.66083 56.8627 4.57538 56.8055 4.5005C56.7483 4.42563 56.6768 4.36281 56.5952 4.31566C56.5136 4.26852 56.4234 4.23798 56.3299 4.22582L53.8669 3.90296C53.6771 3.87827 53.4852 3.9294 53.3329 4.04524C53.1806 4.16108 53.0802 4.33227 53.0535 4.52163ZM44.3677 16.1974C45.0796 11.2472 49.627 7.77686 54.5284 8.4192C59.4299 9.06154 62.8725 13.579 62.2144 18.5361C61.552 23.5226 56.9953 27.0618 52.0401 26.4123C47.0849 25.7628 43.6512 21.1772 44.3677 16.1974Z" fill="#D8DEE8"/>
<path d="M50.6945 18.4798L39.9204 107.965C39.7588 109.307 40.6843 110.51 41.9807 110.638L86.8637 115.561C89.6131 115.732 91.1189 114.329 91.2885 112.902L102.602 17.7639C102.771 16.3453 101.422 15.0593 98.6606 15.0593L53.369 16.0135C52.0582 16.0355 50.8569 17.1452 50.6945 18.4798Z" fill="url(#paint2_linear_298_4284)"/>
<path d="M48.6762 18.326L37.8412 108.259C37.6788 109.607 38.6076 110.816 39.9087 110.946L86.44 115.574C87.8989 115.719 89.2355 114.665 89.4064 113.231L100.784 17.6013C100.954 16.175 99.8827 15.0289 98.4078 15.0539L51.3596 15.8471C50.0437 15.869 48.8378 16.9847 48.6762 18.326Z" fill="url(#paint3_linear_298_4284)"/>
<path d="M49.5588 23.2847L39.5165 106.671C39.3646 107.93 40.2355 109.058 41.4524 109.176L85.2133 113.428C86.5693 113.559 87.8125 112.575 87.9711 111.24L98.485 22.901C98.6432 21.5728 97.6484 20.4985 96.2784 20.5129L52.0687 20.9832C50.8379 20.9963 49.7102 22.033 49.5588 23.2847Z" fill="#D8DEE8"/>
<path d="M73.0278 18.2638C72.9702 18.7426 73.3141 19.1259 73.7963 19.12C74.2785 19.1141 74.7171 18.7198 74.7747 18.2402C74.8322 17.7605 74.4866 17.3772 74.004 17.3844C73.5214 17.3916 73.0832 17.7854 73.0278 18.2638Z" fill="url(#paint4_linear_298_4284)"/>
<g style="mix-blend-mode:soft-light">
<path d="M57.1237 79.2604C66.0824 62.7117 79.4654 57.7585 83.4947 40.7035C85.673 31.4842 84.1888 22.6588 81.6894 15.3357L98.4063 15.0539C99.8813 15.0289 100.953 16.175 100.783 17.6013L89.4049 113.231C89.2357 114.665 87.8975 115.719 86.4382 115.574L49.8603 111.936C49.5913 97.1077 53.1312 86.6367 57.1237 79.2604Z" fill="white"/>
</g>
<path d="M4.49951 27.8161C4.49951 19.0228 12.1766 11.8958 21.3899 11.8967C30.3308 11.8967 37.3869 18.6501 37.3869 26.9777C37.3869 35.3053 30.3308 42.4175 21.3899 42.8744C12.1766 43.3451 4.49951 36.6094 4.49951 27.8161Z" fill="url(#paint5_linear_298_4284)"/>
<path d="M5.49268 27.115C5.49268 18.3217 12.9477 11.1942 21.8945 11.1955C30.5769 11.1955 37.4288 17.9485 37.4288 26.2765C37.4288 34.6046 30.5765 41.7164 21.8945 42.1732C12.9477 42.6439 5.49268 35.9078 5.49268 27.115Z" fill="url(#paint6_linear_298_4284)"/>
<g style="mix-blend-mode:soft-light" opacity="0.5">
<path d="M8.04468 27.0478C8.04468 19.6605 14.3081 13.6723 21.8249 13.6732C29.1195 13.6732 34.8763 19.3469 34.8763 26.3438C34.8763 33.3406 29.1195 39.3152 21.8249 39.6977C14.3081 40.0949 8.04468 34.4356 8.04468 27.0478Z" fill="white"/>
</g>
<g style="mix-blend-mode:soft-light" opacity="0.5">
<path d="M21.3078 14.8083C28.6021 14.8083 34.3588 20.482 34.3588 27.4788C34.3573 29.108 34.0445 30.7219 33.4371 32.2338C34.3793 30.413 34.8723 28.3935 34.8752 26.3438C34.8752 19.3469 29.1185 13.674 21.8238 13.6732C16.0265 13.6732 10.9778 17.2356 8.96997 22.2543C11.2452 17.8425 15.958 14.8078 21.3078 14.8083Z" fill="white"/>
</g>
<path d="M15.593 25.2395V31.6874C15.593 33.5519 17.1627 35.0221 19.0932 34.9718L23.88 34.845C25.7872 34.7952 27.3285 33.2599 27.3285 31.4149V25.0337L15.593 25.2395ZM20.0013 31.9055L20.8895 29.2123C20.6978 29.1157 20.5365 28.9678 20.4236 28.7853C20.3107 28.6027 20.2506 28.3924 20.25 28.1778C20.25 27.516 20.8058 26.9688 21.4902 26.9561C22.1745 26.9434 22.7274 27.4679 22.7274 28.1284C22.7252 28.3456 22.665 28.5582 22.553 28.7444C22.441 28.9306 22.2813 29.0835 22.0904 29.1874L22.9786 31.8362L20.0013 31.9055Z" fill="white"/>
<path d="M25.9677 24.4785C25.4601 24.4869 25.0481 24.0943 25.0481 23.6016C25.0481 21.7063 23.4556 20.1849 21.4917 20.2099C19.5206 20.2352 17.9125 21.8077 17.9125 23.7174C17.9125 24.2135 17.4946 24.6226 16.979 24.631C16.4634 24.6395 16.0442 24.2439 16.0442 23.747C16.0442 20.8442 18.4945 18.4548 21.4917 18.4223C24.4724 18.3889 26.886 20.7005 26.886 23.575C26.886 24.0643 26.4752 24.47 25.9677 24.4785Z" fill="white"/>
<path d="M37.0545 61.2554C37.0545 61.2554 36.7293 60.0358 36.9598 59.7239C37.1903 59.412 38.6009 58.1654 38.4656 58.5719C38.386 58.8124 38.2721 59.0402 38.1272 59.248C38.1272 59.248 38.8886 59.6001 38.3983 60.1287C37.9081 60.6574 37.7469 60.7791 37.7216 61.2537C37.6962 61.7282 37.3802 61.8922 37.0545 61.2554Z" fill="url(#paint7_linear_298_4284)"/>
<path d="M23.5043 113.901C23.5043 113.901 23.3317 114.957 23.3537 115.331C23.3757 115.704 27.545 115.898 27.5873 115.617C27.6296 115.335 26.8983 114.889 26.3835 114.729C25.8688 114.57 24.3621 114.15 24.3621 114.15L23.5043 113.901Z" fill="url(#paint8_linear_298_4284)"/>
<path d="M24.5161 112.849L24.3832 114.159C24.3832 114.159 23.8989 114.479 23.4722 114.232L23.2585 112.805L24.5161 112.849Z" fill="url(#paint9_linear_298_4284)"/>
<path d="M16.0646 115.61C16.0646 115.61 15.8924 116.667 15.914 117.041C15.9356 117.415 20.1057 117.608 20.148 117.327C20.1903 117.046 19.4585 116.598 18.9438 116.44C18.429 116.281 16.9228 115.861 16.9228 115.861L16.0646 115.61Z" fill="url(#paint10_linear_298_4284)"/>
<path d="M17.0767 114.559L16.9439 115.869C16.9439 115.869 16.4596 116.189 16.0328 115.942L15.8213 114.514L17.0767 114.559Z" fill="url(#paint11_linear_298_4284)"/>
<path d="M23.76 78.6082L25.2057 81.5368C25.5932 87.1082 25.7861 93.1661 25.6621 99.6449C25.5703 104.465 25.3123 109.031 24.9431 113.317L22.9826 113.227C22.0376 111.354 20.9218 108.515 20.8195 105.011C20.712 101.356 21.8215 100.869 21.75 97.3705C21.6591 92.8344 19.7552 91.6232 18.7409 86.168C18.3531 84.0816 18.0917 81.3563 18.4026 78.0496L23.76 78.6082Z" fill="url(#paint12_linear_298_4284)"/>
<path style="mix-blend-mode:multiply" opacity="0.3" d="M18.402 78.0496L21.2956 78.3513C23.0298 81.3699 23.5162 84.5118 23.2117 85.9013C22.7807 87.8676 21.6408 88.4973 21.7034 90.4712C21.7651 92.4245 22.9169 92.9311 23.6491 95.2334C24.1566 96.8274 24.0213 98.293 23.7336 101.159C23.1542 106.932 21.7588 108.698 22.9275 110.59C23.2595 111.128 23.858 111.769 25.0305 112.258C25.0017 112.612 24.9734 112.967 24.9434 113.317L22.9829 113.227C22.0379 111.353 20.9221 108.515 20.8198 105.011C20.7123 101.356 21.8218 100.869 21.7503 97.3705C21.6594 92.8344 19.7555 91.6232 18.7412 86.1684C18.353 84.0816 18.0916 81.3563 18.402 78.0496Z" fill="url(#paint13_linear_298_4284)"/>
<path d="M21.1665 80.3659C20.2617 85.295 19.4627 90.5702 18.8401 96.1645C18.0872 102.92 17.6854 109.288 17.5289 115.201L15.3759 115.262C12.5496 109.676 12.3766 105.888 12.7843 103.422C12.9412 102.472 13.3676 100.609 13.4653 97.8244C13.533 95.8835 13.4091 94.4061 13.2538 92.6304C12.9154 88.737 12.5026 87.8872 12.4434 84.9092C12.3876 82.1142 12.3761 80.7002 13.1747 79.8744C15.2782 77.6998 20.7515 80.1732 21.1665 80.3659Z" fill="url(#paint14_linear_298_4284)"/>
<path d="M36.679 61.0673L38.1099 60.9676C39.2355 65.5109 38.428 69.9177 35.8885 71.5383C31.9205 74.0709 24.5459 69.2986 22.9479 64.1053C22.2462 61.8233 22.4061 58.5347 23.8078 57.8932C24.1969 57.7157 24.801 57.6878 26.1092 58.4219C30.0163 60.6135 30.119 64.7557 32.1049 65.1065C32.9881 65.2645 34.4144 64.702 36.679 61.0673Z" fill="url(#paint15_linear_298_4284)"/>
<path d="M25.7544 82.5363C26.4417 81.3974 25.5784 80.2965 25.3817 78.1413C25.1592 75.6949 26.1008 75.2875 27.0351 71.2336C27.6556 68.5375 28.2512 65.9491 27.5402 62.9191C27.2018 61.4671 26.6219 59.0042 24.5819 57.8146C23.5291 57.2006 22.0914 57.2619 19.2595 57.4102C15.7573 57.5932 14.0061 57.6845 12.7004 58.3716C12.5092 58.4722 8.53663 60.6312 8.26296 64.1501C7.98464 67.732 11.8891 68.2134 12.4081 72.9899C12.6416 75.1341 12.225 78.4321 11.9547 80.5712C11.6954 82.625 11.5169 83.149 11.9226 83.7724C12.9001 85.2713 15.8935 84.844 21.8807 83.99C24.2308 83.6536 25.2413 83.3865 25.7544 82.5363Z" fill="url(#paint16_linear_298_4284)"/>
<path d="M16.6449 72.2208C16.3911 73.1505 15.4812 73.847 14.8476 76.1116C14.7106 76.6006 13.736 80.084 15.0003 80.9389C15.7304 81.4338 16.386 80.496 18.1583 80.3739C21.2291 80.1626 22.6922 82.7404 24.6983 82.036C25.046 81.9138 25.5058 81.6531 25.9643 81.0547C26.0557 81.5939 26.04 82.0626 25.7528 82.5367C25.2398 83.387 24.2301 83.6541 21.8809 83.9892C15.8936 84.8432 12.9002 85.2705 11.9227 83.7715C11.5171 83.1499 11.6956 82.6242 11.9549 80.5704C12.2252 78.4312 12.6418 75.1333 12.4083 72.9891C11.8876 68.2138 7.98312 67.7312 8.26313 64.1493C8.33757 63.1922 8.69034 62.3394 9.16153 61.5973C14.1146 63.6 17.4409 69.2948 16.6449 72.2208Z" fill="url(#paint17_linear_298_4284)"/>
<path d="M10.3896 79.2658L11.3803 79.8997C11.5583 79.6943 11.9724 79.2801 12.6132 79.139C13.3382 78.9797 14.1698 79.2079 14.1893 79.439C14.2045 79.6241 13.6982 79.8109 13.6199 79.8397C12.9855 80.0729 12.5202 79.8794 12.263 80.1333C12.1725 80.2229 12.06 80.3899 11.8007 80.545C11.7441 80.5795 11.685 80.6099 11.6239 80.6358C11.2009 80.7998 10.4781 80.0657 10.4159 80.0019L10.3896 79.2658Z" fill="url(#paint18_linear_298_4284)"/>
<path d="M13.3175 66.2813C14.0344 64.566 14.531 61.9395 13.3987 58.0407C5.93823 60.9777 2.13354 67.9404 3.61904 73.4598C4.84398 78.0103 9.29921 80.2247 10.2932 80.6908L10.9873 79.1133C9.83512 77.8315 8.53742 75.9371 8.72099 73.7747C8.9752 70.7768 11.8654 69.7537 13.3175 66.2813Z" fill="url(#paint19_linear_298_4284)"/>
<path d="M19.0761 53.8803C19.0761 53.8803 19.0173 55.184 18.6109 56.1623C18.245 57.0447 16.3192 57.5991 15.9292 57.7965C15.5392 57.9938 16.6601 58.569 17.7865 58.6839C18.9129 58.7989 22.1296 58.5415 22.7095 58.1151C23.2894 57.6887 22.2442 57.7204 21.4406 57.4254C20.6369 57.1305 20.1717 55.5601 20.3138 54.8476C20.4559 54.1351 19.0761 53.8803 19.0761 53.8803Z" fill="url(#paint20_linear_298_4284)"/>
<path d="M20.8577 53.4074C21.4422 52.834 21.5239 52.7668 21.5873 52.5686C21.8411 51.7724 21.2248 50.6825 20.4144 50.4134C20.3721 50.3994 19.829 50.2257 19.6213 50.4611C19.4453 50.6614 19.7059 50.9378 19.579 51.3232C19.4635 51.6841 19.1505 51.7111 18.5698 52.1844C18.0918 52.5745 17.7945 52.8183 17.7259 53.1564C17.5847 53.8592 18.4361 54.8776 19.1899 54.8501C19.4631 54.8421 19.5371 54.7039 20.8577 53.4074Z" fill="url(#paint21_linear_298_4284)"/>
<path d="M19.2672 54.9609C19.2672 54.9609 19.8886 55.6636 20.8348 55.4312C21.6808 55.2233 21.4659 53.2802 20.8458 52.9696C20.639 52.8665 20.2629 52.8749 19.9804 53.0119C19.8112 53.0922 19.7689 53.1758 19.4918 53.3018C19.2381 53.418 19.1573 53.4019 19.0888 53.4839C19.0042 53.5862 18.9665 53.8063 19.2343 54.3384C19.0414 54.2019 18.8337 54.1732 18.7064 54.2636C18.6632 54.2977 18.6305 54.3432 18.6121 54.395C18.53 54.6346 18.7804 54.8793 19.2672 54.9609Z" fill="url(#paint22_linear_298_4284)"/>
<path d="M90.1257 28.6516L90.3448 29.831L85.8431 29.8416L46.7769 29.9341C45.7719 29.9363 44.8477 30.7662 44.7098 31.7881L35.3827 94.0591C35.244 95.0898 36.85 96.6631 37.8491 96.74L55.1806 98.0708V98.05L81.1057 100.036L81.1687 100.062C82.2757 100.147 83.2913 99.344 83.4351 98.2567V98.2609L92.1708 31.7788C92.3125 30.6986 91.239 28.6516 90.1257 28.6516Z" fill="url(#paint23_linear_298_4284)"/>
<path d="M82.5531 96.9615C82.4101 98.0505 81.395 98.8631 80.2881 98.7786L36.9227 95.452C35.9241 95.3751 35.2308 94.4775 35.3679 93.4468L43.8456 30.5144C43.9831 29.493 44.9073 28.663 45.9114 28.6605L89.5204 28.5404C90.6333 28.5375 91.4238 29.4093 91.2808 30.4877L82.5531 96.9615Z" fill="url(#paint24_linear_298_4284)"/>
<path d="M83.1294 62.3525C83.0584 62.8917 82.5542 63.294 82.0035 63.2737L43.8365 61.8821C43.3327 61.864 42.9787 61.4494 43.0476 60.9343L43.8001 55.3776C43.8695 54.8629 44.3293 54.5147 44.8335 54.5286L83.0334 55.5885C83.5833 55.6037 83.9758 55.9929 83.9047 56.5321L83.1294 62.3525Z" fill="white"/>
<path d="M81.6515 73.6428C81.58 74.1833 81.0754 74.6444 80.5251 74.6148L42.3874 72.7326C41.884 72.7076 41.5334 72.2254 41.6027 71.7107L42.359 66.048C42.4284 65.5324 42.8928 65.0908 43.3962 65.1111L81.5572 66.6489C82.1071 66.6713 82.4975 67.1691 82.4264 67.7088L81.6515 73.6428Z" fill="white"/>
<path style="mix-blend-mode:multiply" opacity="0.1" d="M83.9059 56.5092C83.8115 56.4795 83.7134 56.4632 83.6144 56.461L45.4136 55.4016C44.9094 55.3868 44.4492 55.7359 44.3807 56.2497L43.6308 61.8068C43.6308 61.8216 43.6278 61.8347 43.6261 61.8491C43.2391 61.7401 42.9917 61.3733 43.0483 60.9338L43.8 55.3771C43.8685 54.8637 44.3287 54.5142 44.8325 54.529L83.0337 55.588C83.5738 55.604 83.9625 55.981 83.9059 56.5092Z" fill="url(#paint25_linear_298_4284)"/>
<path style="mix-blend-mode:multiply" opacity="0.1" d="M82.4347 67.5849C82.3403 67.5475 82.2402 67.5263 82.1387 67.5224L43.9785 65.9846C43.4747 65.9639 43.0099 66.4071 42.9418 66.9214L42.1842 72.5842C42.1797 72.6199 42.1773 72.6559 42.177 72.6919C41.7896 72.5652 41.5425 72.1506 41.6018 71.7111L42.3589 66.0484C42.4274 65.5332 42.8923 65.0912 43.396 65.1115L81.5562 66.6493C81.7955 66.6609 82.021 66.765 82.1849 66.9396C82.3488 67.1141 82.4384 67.3456 82.4347 67.5849Z" fill="url(#paint26_linear_298_4284)"/>
<path d="M71.5085 82.7941C71.621 81.9417 71.0178 81.1565 70.1604 81.1071L50.418 79.9746C49.6004 79.9276 48.8453 80.6156 48.7341 81.4456L47.9194 87.5808C47.8082 88.412 48.3754 89.2073 49.1922 89.2631L68.9249 90.612C69.7819 90.6708 70.5712 89.9477 70.6841 89.0941L71.5085 82.7941Z" fill="url(#paint27_linear_298_4284)"/>
<path d="M72.9995 41.4591C72.7393 43.4203 71.7305 45.1906 70.2971 46.4926C68.7519 47.8964 66.7165 48.7509 64.6 48.7104C62.494 48.6681 60.7217 47.7502 59.5835 46.3147C58.5332 44.992 58.0184 43.2298 58.2769 41.3002C58.8128 37.2885 62.5016 34.0456 66.5503 34.0553C70.6367 34.0646 73.54 37.379 72.9995 41.4591Z" fill="url(#paint28_linear_298_4284)"/>
<path d="M69.0624 39.2299C68.8293 40.9871 67.206 42.3947 65.4434 42.3736C63.688 42.3529 62.4585 40.9216 62.6911 39.1771C62.9237 37.4326 64.5306 36.0262 66.2864 36.0343C68.0502 36.0423 69.2959 37.4728 69.0624 39.2299Z" fill="white"/>
<path d="M70.2968 46.4925C68.7517 47.8964 66.7163 48.7509 64.5998 48.7103C62.4938 48.668 60.7215 47.7502 59.5833 46.3146C60.886 44.5013 63.0343 43.2952 65.3167 43.3252C67.6105 43.3548 69.4598 44.6255 70.2968 46.4925Z" fill="white"/>
<g style="mix-blend-mode:soft-light" opacity="0.4">
<path d="M91.2823 30.4886L82.5533 96.9623C82.4103 98.0509 81.3304 98.8606 80.2239 98.7757L54.1782 96.7772C52.8867 95.4557 51.8724 93.8896 51.195 92.171C50.831 91.2435 50.5654 90.2803 50.4028 89.2974C49.9193 86.4905 50.1067 83.3004 50.8118 80.1694C51.3517 77.7639 52.1848 75.4337 53.2925 73.2308C54.163 71.5138 55.1866 69.9439 56.3299 68.6246C57.1531 67.675 58.0434 66.7525 58.9824 65.8477C60.1147 64.7558 61.3181 63.69 62.5596 62.6339C65.4519 60.1715 68.5498 57.764 71.4175 55.2217C78.0346 49.3569 83.403 42.8038 82.1113 33.4535C82.069 33.1577 81.6667 30.9036 81.1515 28.5658L89.4571 28.543C90.5695 28.5384 91.424 29.4123 91.2823 30.4886Z" fill="white"/>
</g>
<defs>
<linearGradient id="paint0_linear_298_4284" x1="79.3081" y1="85.3474" x2="110.152" y2="1.96728" gradientUnits="userSpaceOnUse">
<stop stop-color="#E38DDD"/>
<stop offset="1" stop-color="#9571F6"/>
</linearGradient>
<linearGradient id="paint1_linear_298_4284" x1="56.438" y1="77.1174" x2="116.363" y2="77.1174" gradientUnits="userSpaceOnUse">
<stop stop-color="#FF9085"/>
<stop offset="1" stop-color="#FB6FBB"/>
</linearGradient>
<linearGradient id="paint2_linear_298_4284" x1="71.8167" y1="63.0037" x2="89.5044" y2="64.935" gradientUnits="userSpaceOnUse">
<stop stop-color="#444B8C"/>
<stop offset="1" stop-color="#26264F"/>
</linearGradient>
<linearGradient id="paint3_linear_298_4284" x1="56.2318" y1="18.4578" x2="99.896" y2="167.244" gradientUnits="userSpaceOnUse">
<stop stop-color="#444B8C"/>
<stop offset="1" stop-color="#26264F"/>
</linearGradient>
<linearGradient id="paint4_linear_298_4284" x1="72.6213" y1="14.7935" x2="123.942" y2="153.915" gradientUnits="userSpaceOnUse">
<stop stop-color="#FFC444"/>
<stop offset="1" stop-color="#F36F56"/>
</linearGradient>
<linearGradient id="paint5_linear_298_4284" x1="-376.475" y1="401.795" x2="-341.345" y2="368.639" gradientUnits="userSpaceOnUse">
<stop stop-color="#311944"/>
<stop offset="1" stop-color="#893976"/>
</linearGradient>
<linearGradient id="paint6_linear_298_4284" x1="10.7744" y1="36.3735" x2="38.9266" y2="10.8031" gradientUnits="userSpaceOnUse">
<stop stop-color="#FF9085"/>
<stop offset="1" stop-color="#FB6FBB"/>
</linearGradient>
<linearGradient id="paint7_linear_298_4284" x1="39.3208" y1="58.5854" x2="33.7427" y2="64.2685" gradientUnits="userSpaceOnUse">
<stop stop-color="#FFC444"/>
<stop offset="1" stop-color="#F36F56"/>
</linearGradient>
<linearGradient id="paint8_linear_298_4284" x1="25.4813" y1="112.518" x2="25.5282" y2="99.9222" gradientUnits="userSpaceOnUse">
<stop stop-color="#AA80F9"/>
<stop offset="1" stop-color="#6165D7"/>
</linearGradient>
<linearGradient id="paint9_linear_298_4284" x1="24.6928" y1="117.015" x2="24.0928" y2="110.485" gradientUnits="userSpaceOnUse">
<stop stop-color="#FFC444"/>
<stop offset="1" stop-color="#F36F56"/>
</linearGradient>
<linearGradient id="paint10_linear_298_4284" x1="18.0483" y1="112.49" x2="18.0952" y2="99.8942" gradientUnits="userSpaceOnUse">
<stop stop-color="#AA80F9"/>
<stop offset="1" stop-color="#6165D7"/>
</linearGradient>
<linearGradient id="paint11_linear_298_4284" x1="17.1355" y1="117.709" x2="16.5353" y2="111.179" gradientUnits="userSpaceOnUse">
<stop stop-color="#FFC444"/>
<stop offset="1" stop-color="#F36F56"/>
</linearGradient>
<linearGradient id="paint12_linear_298_4284" x1="24.0049" y1="83.7698" x2="19.3916" y2="107.376" gradientUnits="userSpaceOnUse">
<stop stop-color="#311944"/>
<stop offset="1" stop-color="#893976"/>
</linearGradient>
<linearGradient id="paint13_linear_298_4284" x1="26.7815" y1="95.6931" x2="19.8164" y2="96.2509" gradientUnits="userSpaceOnUse">
<stop stop-color="#311944"/>
<stop offset="1" stop-color="#893976"/>
</linearGradient>
<linearGradient id="paint14_linear_298_4284" x1="22.9285" y1="97.0019" x2="12.3551" y2="97.8486" gradientUnits="userSpaceOnUse">
<stop stop-color="#311944"/>
<stop offset="1" stop-color="#893976"/>
</linearGradient>
<linearGradient id="paint15_linear_298_4284" x1="30.7954" y1="61.8609" x2="23.0117" y2="111.897" gradientUnits="userSpaceOnUse">
<stop stop-color="#AA80F9"/>
<stop offset="1" stop-color="#6165D7"/>
</linearGradient>
<linearGradient id="paint16_linear_298_4284" x1="14.6393" y1="117.228" x2="10.8545" y2="167.886" gradientUnits="userSpaceOnUse">
<stop stop-color="#AA80F9"/>
<stop offset="1" stop-color="#6165D7"/>
</linearGradient>
<linearGradient id="paint17_linear_298_4284" x1="1.77853" y1="99.9538" x2="22.6378" y2="64.204" gradientUnits="userSpaceOnUse">
<stop stop-color="#AA80F9"/>
<stop offset="1" stop-color="#6165D7"/>
</linearGradient>
<linearGradient id="paint18_linear_298_4284" x1="8.76711" y1="74.9325" x2="13.152" y2="80.8615" gradientUnits="userSpaceOnUse">
<stop stop-color="#FFC444"/>
<stop offset="1" stop-color="#F36F56"/>
</linearGradient>
<linearGradient id="paint19_linear_298_4284" x1="5.39558" y1="116.538" x2="1.61124" y2="167.196" gradientUnits="userSpaceOnUse">
<stop stop-color="#AA80F9"/>
<stop offset="1" stop-color="#6165D7"/>
</linearGradient>
<linearGradient id="paint20_linear_298_4284" x1="22.1072" y1="59.6095" x2="17.8619" y2="54.3486" gradientUnits="userSpaceOnUse">
<stop stop-color="#FFC444"/>
<stop offset="1" stop-color="#F36F56"/>
</linearGradient>
<linearGradient id="paint21_linear_298_4284" x1="18.4706" y1="58.4997" x2="20.7152" y2="51.113" gradientUnits="userSpaceOnUse">
<stop stop-color="#444B8C"/>
<stop offset="1" stop-color="#3E4177"/>
</linearGradient>
<linearGradient id="paint22_linear_298_4284" x1="24.6014" y1="55.093" x2="18.2794" y2="52.2949" gradientUnits="userSpaceOnUse">
<stop stop-color="#FFC444"/>
<stop offset="1" stop-color="#F36F56"/>
</linearGradient>
<linearGradient id="paint23_linear_298_4284" x1="35.3751" y1="64.361" x2="92.1835" y2="64.361" gradientUnits="userSpaceOnUse">
<stop stop-color="#311944"/>
<stop offset="1" stop-color="#893976"/>
</linearGradient>
<linearGradient id="paint24_linear_298_4284" x1="69.9129" y1="175.99" x2="63.1512" y2="58.766" gradientUnits="userSpaceOnUse">
<stop stop-color="#F36F56"/>
<stop offset="1" stop-color="#FFC444"/>
</linearGradient>
<linearGradient id="paint25_linear_298_4284" x1="43.0386" y1="58.1886" x2="83.9114" y2="58.1886" gradientUnits="userSpaceOnUse">
<stop stop-color="#F36F56"/>
<stop offset="1" stop-color="#FFC444"/>
</linearGradient>
<linearGradient id="paint26_linear_298_4284" x1="41.5937" y1="68.9021" x2="82.4347" y2="68.9021" gradientUnits="userSpaceOnUse">
<stop stop-color="#F36F56"/>
<stop offset="1" stop-color="#FFC444"/>
</linearGradient>
<linearGradient id="paint27_linear_298_4284" x1="61.6679" y1="72.8577" x2="52.5546" y2="130.704" gradientUnits="userSpaceOnUse">
<stop stop-color="#F36F56"/>
<stop offset="1" stop-color="#FFC444"/>
</linearGradient>
<linearGradient id="paint28_linear_298_4284" x1="64.6715" y1="12.632" x2="66.6174" y2="70.6405" gradientUnits="userSpaceOnUse">
<stop stop-color="#F36F56"/>
<stop offset="1" stop-color="#FFC444"/>
</linearGradient>
</defs>
</svg>
