<?xml version="1.0" encoding="UTF-8" standalone="no"?>
<svg
   version="1.1"
   id="Capa_1"
   x="0"
   y="0"
   viewBox="0 0 3085.0898 720.00002"
   xml:space="preserve"
   sodipodi:docname="logo-actinver (1).svg"
   width="3085.0898"
   height="720"
   inkscape:version="1.1 (c68e22c387, 2021-05-23)"
   xmlns:inkscape="http://www.inkscape.org/namespaces/inkscape"
   xmlns:sodipodi="http://sodipodi.sourceforge.net/DTD/sodipodi-0.dtd"
   xmlns="http://www.w3.org/2000/svg"
   xmlns:svg="http://www.w3.org/2000/svg"
   xmlns:rdf="http://www.w3.org/1999/02/22-rdf-syntax-ns#"
   xmlns:cc="http://creativecommons.org/ns#"
   xmlns:dc="http://purl.org/dc/elements/1.1/"><defs
     id="defs15" /><sodipodi:namedview
     id="namedview13"
     pagecolor="#ffffff"
     bordercolor="#666666"
     borderopacity="1.0"
     inkscape:pageshadow="2"
     inkscape:pageopacity="0.0"
     inkscape:pagecheckerboard="0"
     showgrid="false"
     fit-margin-top="0"
     fit-margin-left="0"
     fit-margin-right="0"
     fit-margin-bottom="0"
     inkscape:zoom="0.26337792"
     inkscape:cx="1509.2381"
     inkscape:cy="799.23176"
     inkscape:window-width="1920"
     inkscape:window-height="1017"
     inkscape:window-x="1912"
     inkscape:window-y="-8"
     inkscape:window-maximized="1"
     inkscape:current-layer="Capa_1" /><style
     id="style2">.st0{fill:#041e41}.st1{fill:#b6a269}</style><title
     id="title4">Asset 1</title><path
     class="st0"
     d="m 1206.2732,177.26813 c 4.8566,0 10.9275,3.64249 10.9275,10.92749 V 314.4688 h 114.1315 c 6.0708,0 10.9275,4.85666 10.9275,10.92749 v 42.49578 c 0,4.85667 -4.8567,10.92749 -10.9275,10.92749 h -114.1315 v 214.90725 c 0,35.2108 13.3558,52.20911 43.7099,52.20911 26.7117,0 60.7083,-15.78415 66.7791,-19.42665 3.6425,-1.21416 8.4992,-1.21416 10.9275,3.6425 l 19.4266,46.13828 c 1.2142,4.85666 -1.2141,8.49916 -3.6425,9.71332 l -1.2141,1.21417 c -8.4992,4.85666 -66.7791,29.13996 -115.3457,29.13996 -66.7791,0 -94.7049,-33.99662 -94.7049,-111.7032 V 377.6054 h -58.2799 c -6.0709,0 -10.9275,-4.85666 -10.9275,-10.92749 v -42.49579 c 0,-6.07082 4.8566,-10.92748 10.9275,-10.92748 h 58.2799 V 186.98145 c 0,-6.07083 4.8567,-10.92749 10.9275,-10.92749 h 57.0657 M 878.44857,314.4688 c 38.85328,0 99.56155,18.21248 142.05733,63.1366 3.6425,4.85666 2.4283,12.14165 -1.2142,15.78414 l -3.6425,3.6425 -31.56826,27.9258 c -3.64249,3.6425 -10.92748,3.6425 -14.56998,0 l -1.21416,-1.21416 c -24.28331,-25.49747 -57.06577,-38.85329 -88.63407,-38.85329 -66.77909,0 -132.34401,57.06577 -132.34401,131.12985 0,75.27824 59.4941,134.77234 131.12985,134.77234 50.99494,0 76.49241,-24.28331 95.91905,-43.70995 l 6.07083,-6.07083 c 3.64249,-4.85666 10.92749,-3.64249 14.56995,0 l 33.9967,27.92581 c 4.8566,4.85666 3.6425,10.92748 2.4283,14.56998 -31.5683,41.28162 -89.84824,75.27824 -154.199,75.27824 -111.7032,0 -203.97976,-91.06239 -203.97976,-201.55143 1.21416,-110.48904 94.70489,-202.7656 205.19393,-202.7656 M 346.64418,13.355818 646.543,693.28836 c 2.42833,6.07083 2.42833,10.92749 0,15.78415 -2.42833,4.85666 -8.49916,7.28499 -14.56998,7.28499 h -61.92243 c -9.71332,0 -16.99831,-4.85666 -20.64081,-14.56998 l -58.27993,-129.91568 -3.6425,-9.71332 H 160.8769 l -3.6425,9.71332 c -8.49916,20.64081 -16.99831,40.06745 -26.71163,60.70826 v 1.21417 c -9.71333,23.06914 -20.64081,46.13828 -30.35414,69.20742 0,1.21416 -6.07082,13.35581 -20.640805,13.35581 H 16.391231 c -6.070826,0 -10.927487,-2.42833 -14.5699831,-7.28499 -2.42833053,-4.85666 -2.42833053,-10.92748 0,-15.78415 L 304.1484,13.355818 C 306.57673,7.2849916 315.07589,0 326.00337,0 c 14.56999,1.2141653 20.64081,13.355818 20.64081,13.355818 M 197.30185,479.59528 h 253.76054 l -9.71332,-21.85498 -103.20404,-236.76222 -14.56999,-31.5683 -13.35582,31.5683 -103.20404,236.76222 -9.71333,21.85498 M 304.1484,13.355818 C 306.57673,7.2849916 315.07589,0 326.00337,0 c 13.35582,0 20.64081,13.355818 20.64081,13.355818 M 1814.57,312.04047 c 143.2715,0 163.9123,116.55987 163.9123,186.98145 v 206.4081 c 0,6.07082 -4.8567,12.14165 -10.9275,12.14165 h -55.8516 c -6.0708,0 -10.9275,-6.07083 -10.9275,-12.14165 V 494.16526 c 0,-70.42158 -36.4249,-112.91737 -97.1332,-112.91737 -70.4216,0 -118.9882,49.78078 -126.2732,69.20742 l -1.2142,1.21417 v 252.54637 c 0,6.07083 -4.8566,12.14165 -10.9274,12.14165 h -54.6375 c -6.0708,0 -10.9275,-6.07082 -10.9275,-12.14165 v -370.3204 c 0,-6.07083 6.0709,-10.92749 10.9275,-10.92749 h 27.9258 c 3.6425,0 6.0708,3.6425 7.285,4.85666 l 12.1417,35.21079 6.0708,16.99832 12.1416,-13.35582 c 0,0 53.4233,-54.63744 138.4149,-54.63744 m 573.086,2.42833 c 4.8566,0 9.7133,4.85666 7.285,10.92749 l -186.9815,384.89039 c -4.8566,8.49915 -15.7841,8.49915 -19.4266,0 L 2001.5514,325.39629 c -2.4283,-4.85666 1.2142,-10.92749 7.285,-10.92749 h 60.7083 c 4.8566,0 8.4991,3.6425 9.7133,6.07083 l 121.4165,257.40303 122.6307,-257.40303 c 2.4284,-3.6425 6.0709,-6.07083 9.7133,-6.07083 h 58.28 m -889.9832,2.42833 c 6.0709,0 10.9275,4.85666 10.9275,10.92749 v 378.81956 c 0,6.07083 -4.8566,10.92749 -10.9275,10.92749 h -54.6374 c -6.0708,0 -10.9275,-6.07083 -10.9275,-12.14165 v -377.6054 c 0,-6.07083 4.8567,-10.92749 10.9275,-10.92749 h 57.0658"
     id="path6"
     style="stroke-width:12.1417" /><path
     class="st1"
     d="m 1473.3895,177.26813 c 27.9258,0 48.5667,21.85497 48.5667,49.78077 0,26.71164 -21.855,48.56661 -48.5667,48.56661 -26.7116,0 -47.3524,-20.64081 -47.3524,-48.56661 0,-27.9258 20.6408,-49.78077 47.3524,-49.78077"
     id="path8"
     style="stroke-width:12.1417" /><path
     class="st0"
     d="m 3019.0219,315.68297 c 31.5683,0 57.0658,6.07082 64.3508,15.78415 1.2141,2.42833 2.4283,4.85666 1.2141,8.49915 l -24.2833,50.99494 c -2.4283,4.85667 -7.285,6.07083 -10.9274,4.85667 -8.4992,-3.6425 -25.4975,-8.49916 -38.8533,-8.49916 -67.9933,0 -99.5616,53.42327 -100.7758,55.8516 l -1.2141,2.42833 v 262.2597 c 0,6.07082 -4.8567,12.14165 -10.9275,12.14165 h -52.2091 c -6.0708,0 -10.9275,-6.07083 -10.9275,-12.14165 V 336.32378 c 0,-6.07083 4.8567,-10.92749 10.9275,-10.92749 h 27.9258 c 2.4283,0 6.0708,2.42833 7.285,6.07083 l 10.9275,35.21079 6.0708,19.42664 12.1416,-16.99831 c 4.8567,-7.28499 40.0675,-53.42327 109.2749,-53.42327 m -420.1012,-3.6425 c 104.4183,0 182.1248,75.27825 182.1248,176.05397 0,6.07082 -1.2141,16.99831 -1.2141,24.2833 -1.2142,6.07083 -6.0709,9.71332 -10.9275,9.71332 h -293.828 v 10.92749 c 3.6425,57.06577 49.7808,116.55986 132.344,116.55986 43.7099,0 81.3491,-19.42664 98.3474,-30.35413 l 7.285,-3.64249 c 2.4283,-1.21417 7.285,-1.21417 9.7133,2.42833 l 27.9258,36.42496 1.2142,1.21416 c 2.4283,3.6425 1.2141,8.49916 -1.2142,10.92749 -13.3558,10.92749 -64.3508,48.56661 -149.3423,48.56661 -116.5599,0 -200.3373,-84.99157 -200.3373,-201.55143 -1.2142,-115.3457 84.9916,-201.55144 197.9089,-201.55144 m -118.9882,167.55481 h 225.8348 c 0,0 0,-30.35413 -19.4267,-59.4941 -20.6408,-31.5683 -58.2799,-49.78078 -88.634,-49.78078 -58.28,0 -84.9916,29.13997 -100.7757,52.20911 -18.2125,24.28331 -18.2125,57.06577 -16.9984,57.06577"
     id="path10"
     style="stroke-width:12.1417" /><metadata
     id="metadata832"><rdf:RDF><cc:Work
         rdf:about=""><dc:title>Asset 1</dc:title></cc:Work></rdf:RDF></metadata></svg>
