<?xml version="1.0" encoding="utf-8"?>
<!-- Generator: Adobe Illustrator 25.4.1, SVG Export Plug-In . SVG Version: 6.00 Build 0)  -->
<svg version="1.1" id="Capa_1" xmlns="http://www.w3.org/2000/svg" xmlns:xlink="http://www.w3.org/1999/xlink" x="0px" y="0px"
	 viewBox="0 0 1301.71 350.45" style="enable-background:new 0 0 1301.71 350.45;" xml:space="preserve">
<style type="text/css">
	.st0{fill:url(#SVGID_1_);}
	.st1{fill:#0089FF;}
	.st2{fill:#1D1D1B;}
	.st3{fill:#FFFFFF;}
	.st4{fill:#008CFF;}
	.st5{fill:#052E56;}
	.st6{fill:#0A0A0A;}
	.st7{fill:url(#SVGID_00000145058053091226288110000011666389606692005505_);}
	.st8{fill:url(#SVGID_00000183962998167310163550000014020376699977094058_);}
	.st9{fill:#613FCA;}
</style>
<g>
	<g>
		<path d="M964.75,115.86c0-4.84-0.06-9.04,0.02-13.24c0.07-3.82,1.67-5.49,5.46-5.5c21.09-0.04,42.17-0.04,63.26,0
			c4.09,0.01,5.51,1.52,5.51,5.69c0.03,14.89,0.01,29.78,0.01,44.66c0,64.02,0,128.04-0.01,192.06c0,6.07-0.85,6.92-6.83,6.92
			c-20.22,0-40.44,0.01-60.65,0c-5.6,0-6.76-1.16-6.77-6.72c-0.01-5.94,0-11.89,0-18.41c-1.19,0.71-2.01,1.11-2.73,1.63
			c-64.97,47.15-166.78,26.32-192.03-68.65c-11.87-44.64-3.99-86.72,26.29-122.65c25.9-30.74,59.61-44.63,99.98-41.6
			c24.59,1.84,47.06,9.29,66.59,24.72C963.21,115.06,963.66,115.24,964.75,115.86z M891.01,157.1
			c-17.44,0.57-35.03,8.87-46.09,28.47c-6.27,11.12-8.12,23.3-7.55,35.94c1.45,32.68,25.2,55.52,57.87,55.66
			c33.38,0.14,59.72-26.21,59.71-59.73C954.94,183.48,928.9,157.08,891.01,157.1z"/>
		<path d="M496.06,90.03c19.29,0.84,38.01-0.15,56.03,2.93c20.34,3.47,34.05,17.39,40.35,37.2c13.82,43.45,27.15,87.05,40.68,130.59
			c0.36,1.16,0.77,2.3,1.45,4.33c1.95-6.37,3.68-11.89,5.34-17.43c11.47-38.47,22.94-76.95,34.39-115.43
			c7.48-25.15,29.16-41.36,55.44-41.38c12.26-0.01,24.53,0,37.35,0c-0.55,1.76-0.91,3.13-1.39,4.45
			c-25.08,68.68-50.19,137.34-75.23,206.04c-9.2,25.23-29.65,39.69-56.48,39.69c-13.77,0-27.54-0.07-41.31,0.06
			c-2.61,0.02-3.89-0.7-4.83-3.26c-30.05-81.11-60.18-162.18-90.3-243.27C497.15,93.54,496.85,92.48,496.06,90.03z"/>
		<path d="M1093.56,3.23c24,0,47.67,0,71.64,0c0,113.99,0,227.92,0,342.05c-23.88,0-47.64,0-71.64,0
			C1093.56,231.29,1093.56,117.46,1093.56,3.23z"/>
		<path d="M1227.17,221.32c0-39.08,0-78.17,0-117.25c0-6.84,0.88-7.69,7.71-7.69c19.85,0,39.69,0,59.54,0c5.82,0,7.05,1.2,7.05,6.91
			c0,78.91,0,157.82-0.01,236.73c0,5.76-1.19,6.94-7.01,6.94c-19.97,0.01-39.94,0-59.91,0c-6.35,0-7.38-1-7.38-7.27
			C1227.17,300.23,1227.17,260.77,1227.17,221.32z"/>
		<path d="M1227.17,37.05c0-8.55-0.02-17.1,0.01-25.66c0.02-5.19,1.25-6.47,6.27-6.48c20.69-0.02,41.38-0.03,62.08,0
			c4.83,0.01,6.23,1.48,6.18,6.22c-0.29,32.37-25.94,58.29-58.27,58.86c-3.47,0.06-6.94,0.06-10.41,0.01
			c-4.34-0.06-5.81-1.47-5.84-5.8C1227.13,55.14,1227.17,46.09,1227.17,37.05z"/>
	</g>
	<g>
		<g>
			<g>
				
					<linearGradient id="SVGID_1_" gradientUnits="userSpaceOnUse" x1="102.8612" y1="148.3571" x2="-231.3526" y2="341.3155" gradientTransform="matrix(-1 0 0 1 162.0247 0)">
					<stop  offset="0.1606" style="stop-color:#008CFF"/>
					<stop  offset="0.1692" style="stop-color:#038AFE"/>
					<stop  offset="0.3939" style="stop-color:#4654D9"/>
					<stop  offset="0.4991" style="stop-color:#613FCA"/>
					<stop  offset="1" style="stop-color:#052E56"/>
				</linearGradient>
				<path class="st0" d="M263.16,48.58L388.1,350.45h-59.64c-32.33,0-61.33-19.87-73-50.02l-61.07-157.77l-61.66,157.97
					C121,330.68,92.05,350.45,59.8,350.45H0L144.69,0.23l46.14,0C222.5,0.23,251.05,19.31,263.16,48.58z"/>
			</g>
		</g>
		<g>
			<g>
				<path class="st1" d="M194.5,142.44l-61.66,157.97c-11.73,30.04-40.68,49.82-72.92,49.82H0.12L144.8,0l46.14,0
					c14.22,0,32.89,4.3,48.05,16.29L194.5,142.44z"/>
			</g>
		</g>
	</g>
</g>
</svg>
