<?xml version="1.0" encoding="utf-8"?>
<!-- Generator: Adobe Illustrator 25.4.1, SVG Export Plug-In . SVG Version: 6.00 Build 0)  -->
<svg version="1.1" id="Capa_1" xmlns="http://www.w3.org/2000/svg" xmlns:xlink="http://www.w3.org/1999/xlink" x="0px" y="0px"
	 viewBox="0 0 598.43 540.38" style="enable-background:new 0 0 598.43 540.38;" xml:space="preserve">
<style type="text/css">
	.st0{fill:url(#SVGID_1_);}
	.st1{fill:#0089FF;}
	.st2{fill:#1D1D1B;}
	.st3{fill:#FFFFFF;}
	.st4{fill:#008CFF;}
	.st5{fill:#052E56;}
	.st6{fill:#0A0A0A;}
	.st7{fill:url(#SVGID_00000118394923263120945630000017559952999664977545_);}
	.st8{fill:url(#SVGID_00000002381050348447245090000003039935619700844443_);}
	.st9{fill:#613FCA;}
</style>
<g>
	<g>
		<g>
			
				<linearGradient id="SVGID_1_" gradientUnits="userSpaceOnUse" x1="-3295.1665" y1="228.7572" x2="-3810.5032" y2="526.287" gradientTransform="matrix(-1 0 0 1 -3203.9399 0)">
				<stop  offset="0.1606" style="stop-color:#008CFF"/>
				<stop  offset="0.1692" style="stop-color:#038AFE"/>
				<stop  offset="0.3939" style="stop-color:#4654D9"/>
				<stop  offset="0.4991" style="stop-color:#613FCA"/>
				<stop  offset="1" style="stop-color:#052E56"/>
			</linearGradient>
			<path class="st0" d="M405.78,74.9l192.65,465.48h-91.96c-49.85,0-94.57-30.64-112.57-77.13l-94.17-243.27l-95.07,243.58
				c-18.08,46.32-62.72,76.82-112.45,76.82H0L223.1,0.35h71.15C343.08,0.35,387.1,29.78,405.78,74.9z"/>
		</g>
	</g>
	<g>
		<g>
			<path class="st1" d="M299.91,219.63l-95.07,243.58c-18.08,46.32-62.72,76.82-112.45,76.82H0.18L223.27,0l71.15,0
				c21.93,0,50.72,6.63,74.09,25.12L299.91,219.63z"/>
		</g>
	</g>
</g>
</svg>
